<svg width="980" height="551" xmlns="http://www.w3.org/2000/svg" xmlns:xlink="http://www.w3.org/1999/xlink">
<path fill="#ff595e" d="M 199.40 137.33 Q 199.40 137.33 204.89 131.59 210.39 125.84 214.30 124.51 218.21 123.18 218.41 123.05 218.62 122.92 218.85 122.84 219.07 122.77 219.31 122.75 219.56 122.73 219.79 122.77 220.03 122.81 220.25 122.90 220.47 123.00 220.67 123.14 220.86 123.29 221.01 123.48 221.16 123.66 221.27 123.88 221.37 124.10 221.42 124.34 221.46 124.57 221.45 124.81 221.44 125.05 221.38 125.29 221.31 125.52 221.19 125.73 221.07 125.93 220.90 126.11 220.73 126.28 224.25 135.12 227.77 143.96 231.25 160.67 234.73 177.39 237.73 185.78 240.72 194.18 240.74 194.42 240.76 194.66 240.73 194.90 240.69 195.14 240.59 195.36 240.50 195.58 240.36 195.77 240.21 195.97 240.03 196.12 239.84 196.27 239.62 196.38 239.40 196.48 239.17 196.53 238.93 196.58 238.69 196.57 238.45 196.56 238.22 196.50 237.99 196.43 237.78 196.31 237.57 196.19 237.39 196.03 237.22 195.86 237.09 195.66 236.96 195.45 236.88 195.22 236.81 195.00 241.44 191.77 246.07 188.54 251.78 182.70 257.50 176.85 261.80 178.49 266.10 180.12 270.24 184.93 274.38 189.73 290.36 180.63 306.35 171.53 321.42 165.26 336.50 158.99 345.48 166.64 354.45 174.29 367.62 177.14 380.79 179.98 394.13 179.34 407.46 178.71 413.47 179.44 419.48 180.17 419.48 180.18 419.48 180.18 419.48 180.19 419.48 180.19 413.56 181.45 407.64 182.70 393.80 183.29 379.96 183.89 365.99 180.64 352.02 177.40 343.82 169.83 335.63 162.26 321.96 168.64 308.29 175.03 291.65 184.03 275.01 193.04 269.72 188.39 264.42 183.74 260.87 181.97 257.33 180.21 252.66 186.12 247.99 192.02 244.36 193.10 240.72 194.18 240.74 194.42 240.76 194.66 240.73 194.90 240.69 195.14 240.59 195.36 240.50 195.58 240.36 195.77 240.21 195.97 240.03 196.12 239.84 196.27 239.62 196.38 239.41 196.48 239.17 196.53 238.93 196.58 238.69 196.57 238.45 196.56 238.22 196.50 237.99 196.43 237.78 196.31 237.57 196.19 237.39 196.03 237.22 195.86 237.09 195.66 236.96 195.45 236.88 195.22 236.81 195.00 233.81 186.60 230.82 178.21 227.39 161.69 223.96 145.18 221.08 134.18 218.21 123.18 218.41 123.05 218.62 122.92 218.85 122.84 219.07 122.77 219.31 122.75 219.55 122.73 219.79 122.77 220.03 122.81 220.25 122.90 220.47 123.00 220.67 123.14 220.86 123.29 221.01 123.48 221.16 123.66 221.27 123.88 221.37 124.10 221.42 124.34 221.46 124.57 221.45 124.81 221.44 125.05 221.38 125.29 221.31 125.52 221.19 125.73 221.07 125.93 220.90 126.11 220.73 126.28 216.78 127.64 212.83 128.99 206.12 133.17 199.41 137.34 199.40 137.34 Z" data-drauu_index="0"></path><path fill="#ff595e" d="M 428.88 180.37 Q 428.88 180.37 428.88 180.37 428.87 180.37 428.87 180.38 428.87 180.38 428.87 180.37 Z" data-drauu_index="1"></path>
</svg>