<svg width="980" height="551" xmlns="http://www.w3.org/2000/svg" xmlns:xlink="http://www.w3.org/1999/xlink">
<line fill="transparent" stroke="#ffffff" stroke-width="3" stroke-linecap="round" x1="500.35" y1="112.70" x2="574.72" y2="111.55" data-drauu_index="1"></line><line fill="transparent" stroke="#ffffff" stroke-width="3" stroke-linecap="round" x1="577.02" y1="111.17" x2="624.55" y2="81.27" data-drauu_index="4"></line><line fill="transparent" stroke="#ffffff" stroke-width="3" stroke-linecap="round" x1="578.17" y1="111.93" x2="632.99" y2="125.73" data-drauu_index="6"></line><path fill="#ff595e" d="M 557.06 35.48 Q 557.06 35.48 555.01 36.18 552.96 36.88 552.96 36.87 552.96 36.87 552.96 36.86 552.96 36.86 555.00 36.16 557.05 35.46 557.05 35.47 Z" data-drauu_index="0"></path><path fill="#ff595e" d="M 543.12 37.13 Q 543.12 37.13 544.46 36.30 545.80 35.47 547.27 35.78 548.73 36.10 549.74 36.18 550.75 36.26 552.05 36.28 553.36 36.30 554.17 36.19 554.98 36.07 555.73 35.97 556.48 35.86 557.55 35.81 558.62 35.76 559.57 35.75 560.52 35.74 561.52 36.14 562.52 36.54 563.29 37.40 564.05 38.26 564.24 39.08 564.43 39.91 564.47 40.74 564.52 41.57 564.51 42.39 564.50 43.20 564.47 44.03 564.44 44.85 564.20 45.89 563.95 46.93 562.74 48.59 561.53 50.24 561.53 50.24 561.53 50.24 561.53 50.24 561.52 50.24 561.52 50.24 561.52 50.24 561.52 50.24 561.52 50.25 561.52 50.25 561.52 50.25 561.52 50.25 561.52 50.25 561.51 50.25 561.51 50.25 561.51 50.25 561.51 50.24 561.51 50.24 561.51 50.24 561.51 50.24 561.51 50.24 561.51 50.24 561.51 50.24 561.51 50.24 561.51 50.24 561.51 50.24 561.51 50.23 561.51 50.24 561.52 50.24 561.52 50.24 561.53 50.24 561.53 50.24 561.53 50.24 561.53 50.24 561.52 50.24 561.52 50.24 561.52 50.24 561.52 50.24 561.52 50.25 561.52 50.25 561.52 50.25 561.52 50.25 561.52 50.25 561.51 50.25 561.51 50.25 561.51 50.25 561.51 50.24 561.51 50.24 561.51 50.24 561.51 50.24 561.51 50.24 561.51 50.24 561.51 50.24 561.51 50.24 561.51 50.24 561.51 50.24 561.51 50.23 560.59 47.55 559.68 44.87 559.64 44.08 559.59 43.29 559.78 42.03 559.97 40.77 559.00 40.78 558.03 40.80 557.17 40.85 556.32 40.91 555.42 41.11 554.52 41.31 553.26 41.30 552.00 41.29 550.52 41.21 549.04 41.13 547.54 40.80 546.04 40.47 545.16 40.28 544.27 40.09 543.69 38.62 543.11 37.15 543.11 37.14 Z" data-drauu_index="1"></path><path fill="#ff595e" d="M 545.35 39.37 Q 545.35 39.37 545.89 40.44 546.43 41.51 546.45 42.52 546.46 43.53 546.71 44.95 546.95 46.37 547.00 47.24 547.04 48.11 547.28 49.72 547.52 51.32 546.83 52.78 546.13 54.25 546.13 54.25 546.13 54.25 546.13 54.25 546.13 54.25 546.13 54.25 546.13 54.25 546.13 54.25 546.13 54.26 546.12 54.26 546.12 54.26 546.12 54.26 546.12 54.26 546.12 54.26 546.12 54.26 546.12 54.26 546.12 54.26 546.12 54.26 546.11 54.26 546.11 54.26 546.11 54.26 546.11 54.25 546.11 54.25 546.11 54.25 546.11 54.25 546.11 54.25 546.11 54.25 546.11 54.25 546.12 54.25 546.12 54.25 546.13 54.25 546.13 54.25 546.13 54.25 546.13 54.25 546.13 54.25 546.13 54.25 546.13 54.25 546.13 54.25 546.13 54.26 546.12 54.26 546.12 54.26 546.12 54.26 546.12 54.26 546.12 54.26 546.12 54.26 546.12 54.26 546.12 54.26 546.12 54.26 546.11 54.26 546.11 54.26 546.11 54.26 546.11 54.25 546.11 54.25 546.11 54.25 546.11 54.25 546.11 54.25 546.11 54.25 544.47 52.28 542.82 50.32 542.63 49.30 542.45 48.28 542.41 46.83 542.37 45.39 542.22 44.39 542.07 43.39 542.12 42.62 542.18 41.85 542.58 40.82 542.97 39.79 544.15 39.58 545.33 39.37 545.34 39.37 Z" data-drauu_index="2"></path><path fill="#ff595e" d="M 559.84 61.11 Q 559.84 61.11 561.12 60.40 562.41 59.69 563.82 59.60 565.23 59.50 566.62 59.16 568.02 58.82 568.45 58.18 568.89 57.53 568.89 57.53 568.89 57.53 568.90 57.53 568.90 57.53 568.90 57.53 568.90 57.53 568.90 57.53 568.90 57.53 568.90 57.53 568.90 57.53 568.90 57.53 568.91 57.53 568.91 57.53 568.91 57.54 568.91 57.54 568.91 57.54 568.91 57.54 568.91 57.54 568.91 57.54 568.91 57.54 568.91 57.54 568.91 57.55 568.91 57.55 568.91 57.55 568.91 57.55 568.90 57.55 568.90 57.54 568.90 57.54 568.90 57.54 568.89 57.53 568.89 57.53 568.89 57.53 568.90 57.53 568.90 57.53 568.90 57.53 568.90 57.53 568.90 57.53 568.90 57.53 568.90 57.53 568.90 57.53 568.90 57.53 568.91 57.53 568.91 57.53 568.91 57.54 568.91 57.54 568.91 57.54 568.91 57.54 568.91 57.54 568.91 57.54 568.91 57.54 568.91 57.54 568.91 57.55 568.91 57.55 568.91 57.55 568.91 57.55 568.90 57.55 569.74 59.75 570.58 61.96 569.92 62.47 569.25 62.98 568.31 63.24 567.37 63.51 566.33 63.70 565.29 63.88 564.45 63.89 563.60 63.90 562.36 63.86 561.12 63.82 560.48 62.47 559.84 61.13 559.84 61.12 Z" data-drauu_index="3"></path><path fill="#ff595e" d="M 568.77 52.20 Q 568.77 52.20 569.76 53.48 570.76 54.77 570.70 55.79 570.64 56.81 570.77 57.90 570.90 58.99 570.97 60.40 571.03 61.82 571.07 63.22 571.10 64.62 571.12 65.86 571.14 67.09 571.29 67.91 571.44 68.73 571.64 69.50 571.83 70.27 572.48 70.65 573.14 71.03 573.99 70.27 574.85 69.51 574.85 69.52 574.86 69.52 574.86 69.52 574.87 69.52 575.11 72.08 575.36 74.64 574.43 75.07 573.50 75.50 572.34 75.44 571.18 75.37 569.83 74.42 568.47 73.48 567.86 72.54 567.25 71.59 566.98 70.55 566.71 69.51 566.53 68.32 566.35 67.14 566.35 65.92 566.35 64.70 566.34 63.36 566.33 62.02 566.28 60.74 566.23 59.47 566.10 58.00 565.97 56.54 566.05 55.32 566.13 54.11 567.44 53.15 568.75 52.19 568.76 52.19 Z" data-drauu_index="4"></path><path fill="#ff595e" d="M 542.01 43.83 Q 542.01 43.83 543.30 44.47 544.59 45.10 544.90 45.99 545.21 46.88 545.38 47.72 545.55 48.55 545.96 49.53 546.37 50.51 546.55 51.49 546.73 52.48 547.16 53.67 547.59 54.87 547.74 55.67 547.89 56.47 547.96 57.34 548.02 58.20 548.18 59.03 548.35 59.85 548.44 60.67 548.53 61.48 548.56 62.34 548.60 63.19 548.78 64.17 548.97 65.14 548.89 65.72 548.82 66.31 548.81 66.53 548.81 66.75 548.75 66.96 548.69 67.18 548.58 67.37 548.47 67.56 548.32 67.72 548.17 67.88 547.98 68.00 547.80 68.12 547.59 68.19 547.38 68.27 547.16 68.29 546.94 68.31 546.72 68.27 546.50 68.24 546.30 68.15 546.10 68.07 545.92 67.94 545.74 67.81 545.60 67.64 545.46 67.47 545.36 67.27 545.26 67.07 545.22 66.86 545.17 66.64 545.78 65.92 546.39 65.21 547.12 64.00 547.84 62.79 547.85 62.79 547.85 62.79 547.86 62.79 547.86 62.80 548.34 64.55 548.82 66.31 548.81 66.53 548.81 66.75 548.75 66.96 548.69 67.18 548.58 67.37 548.47 67.56 548.32 67.72 548.17 67.88 547.98 68.00 547.80 68.12 547.59 68.19 547.38 68.27 547.16 68.29 546.94 68.31 546.72 68.27 546.50 68.24 546.30 68.15 546.10 68.07 545.92 67.94 545.74 67.81 545.60 67.64 545.46 67.47 545.36 67.27 545.26 67.07 545.22 66.86 545.17 66.64 544.92 65.90 544.67 65.16 544.45 64.28 544.22 63.39 544.13 62.02 544.04 60.65 543.84 59.56 543.65 58.46 543.56 57.34 543.48 56.22 543.24 55.47 543.00 54.72 542.76 53.91 542.52 53.10 542.22 51.98 541.91 50.86 541.58 49.52 541.25 48.19 540.97 47.30 540.69 46.41 541.34 45.12 541.99 43.83 542.00 43.83 Z" data-drauu_index="5"></path><path fill="#ff595e" d="M 490.69 28.78 Q 490.69 28.78 489.45 28.58 488.22 28.39 487.97 27.37 487.72 26.36 487.65 25.27 487.58 24.19 487.56 23.10 487.55 22.01 487.72 20.76 487.89 19.51 487.96 18.49 488.02 17.46 488.23 16.24 488.43 15.03 488.50 14.16 488.57 13.29 488.90 12.25 489.24 11.21 490.17 10.24 491.10 9.26 492.21 9.47 493.32 9.68 494.25 9.91 495.18 10.13 496.74 10.61 498.30 11.08 499.15 11.16 500.00 11.23 501.31 11.45 502.62 11.66 503.99 11.74 505.36 11.81 506.80 11.69 508.23 11.57 510.16 11.36 512.08 11.15 514.45 10.75 516.82 10.34 519.26 9.85 521.70 9.36 524.47 8.68 527.24 8.00 530.18 7.23 533.12 6.46 536.20 5.80 539.27 5.14 542.16 4.54 545.06 3.94 547.72 3.37 550.38 2.80 552.96 2.24 555.53 1.68 558.14 1.27 560.74 0.85 563.37 0.68 565.99 0.50 568.31 0.27 570.63 0.04 573.14 -0.05 575.65 -0.15 577.75 -0.35 579.85 -0.54 581.95 -0.93 584.05 -1.32 586.13 -1.65 588.22 -1.99 590.05 -2.29 591.88 -2.59 593.63 -2.88 595.37 -3.17 597.01 -3.30 598.64 -3.43 599.98 -3.49 601.32 -3.54 602.20 -3.70 603.09 -3.87 604.11 -3.96 605.13 -4.05 605.88 -4.09 606.64 -4.12 607.45 -4.13 608.27 -4.14 609.10 -4.14 609.92 -4.14 610.91 -4.13 611.91 -4.12 612.81 -4.12 613.71 -4.11 614.56 -4.25 615.42 -4.39 616.42 -4.46 617.43 -4.53 618.35 -4.70 619.26 -4.87 620.28 -4.97 621.30 -5.06 622.06 -5.10 622.81 -5.13 623.63 -5.15 624.44 -5.16 625.55 -5.17 626.65 -5.18 627.55 -5.18 628.44 -5.18 629.34 -4.99 630.24 -4.80 631.15 -4.68 632.07 -4.56 632.79 -4.27 633.51 -3.98 634.26 -3.73 635.02 -3.48 635.78 -3.10 636.54 -2.72 637.12 -2.16 637.70 -1.59 638.36 -0.84 639.02 -0.09 639.03 1.15 639.05 2.38 639.05 3.24 639.05 4.09 639.06 4.94 639.06 5.78 639.07 6.78 639.08 7.78 639.09 9.17 639.09 10.56 638.92 12.08 638.76 13.60 638.70 15.07 638.64 16.54 638.60 17.98 638.57 19.41 638.52 20.82 638.48 22.23 638.39 23.31 638.31 24.39 638.11 25.33 637.90 26.27 637.46 28.00 637.02 29.74 637.02 29.74 637.01 29.74 637.01 29.74 637.00 29.74 635.79 28.01 634.57 26.27 634.37 25.32 634.17 24.37 634.10 23.28 634.03 22.19 634.01 20.76 633.98 19.32 634.01 17.83 634.03 16.34 634.11 14.71 634.18 13.07 634.34 11.81 634.49 10.55 634.50 9.17 634.50 7.78 634.51 6.78 634.52 5.78 634.52 4.94 634.53 4.10 634.53 3.24 634.53 2.39 634.53 1.33 634.52 0.28 635.13 0.96 635.74 1.65 635.02 1.17 634.31 0.68 633.34 0.44 632.38 0.21 631.31 -0.10 630.24 -0.41 629.33 -0.62 628.42 -0.83 627.55 -0.83 626.68 -0.82 625.60 -0.82 624.52 -0.81 623.10 -0.76 621.68 -0.72 620.86 -0.65 620.05 -0.59 618.90 -0.38 617.76 -0.17 616.93 -0.10 616.10 -0.03 614.91 0.15 613.72 0.33 612.82 0.34 611.92 0.34 610.94 0.36 609.95 0.37 609.15 0.38 608.35 0.39 606.93 0.44 605.51 0.49 604.70 0.56 603.88 0.62 602.69 0.82 601.51 1.02 600.26 1.07 599.01 1.12 597.56 1.24 596.11 1.35 594.37 1.64 592.63 1.93 590.79 2.23 588.95 2.53 586.92 2.86 584.88 3.19 582.58 3.62 580.28 4.04 578.06 4.25 575.84 4.47 573.46 4.56 571.09 4.66 568.70 4.90 566.31 5.14 563.89 5.30 561.47 5.46 559.00 5.85 556.53 6.24 553.95 6.81 551.37 7.38 548.69 7.95 546.01 8.53 543.13 9.13 540.25 9.72 537.28 10.36 534.31 11.00 531.33 11.78 528.36 12.56 525.49 13.26 522.62 13.96 520.11 14.46 517.60 14.97 515.09 15.39 512.59 15.80 510.59 16.02 508.59 16.24 506.84 16.36 505.09 16.48 503.47 16.38 501.86 16.28 500.68 16.08 499.50 15.88 498.28 15.73 497.05 15.58 496.04 15.30 495.04 15.02 493.81 14.32 492.59 13.62 492.50 14.66 492.41 15.70 492.24 16.70 492.07 17.70 492.01 18.88 491.94 20.07 491.82 20.99 491.69 21.92 491.72 22.93 491.76 23.94 491.83 25.27 491.89 26.60 491.30 27.69 490.71 28.77 490.70 28.78 Z" data-drauu_index="6"></path><path fill="#ff595e" d="M 639.59 125.25 Q 639.59 125.25 639.70 126.23 639.82 127.21 639.81 127.21 639.81 127.21 639.80 127.21 639.80 127.21 639.68 126.22 639.57 125.23 639.58 125.24 Z" data-drauu_index="7"></path><path fill="#ff595e" d="M 650.40 131.62 Q 650.40 131.62 650.41 131.62 650.41 131.61 650.41 131.61 650.42 131.61 650.41 131.61 Z" data-drauu_index="8"></path><path fill="#ff595e" d="M 419.88 258.50 Q 419.88 258.50 420.68 257.54 421.47 256.58 422.57 256.05 423.67 255.52 424.45 255.25 425.23 254.99 426.04 254.70 426.85 254.42 427.88 254.24 428.92 254.07 429.83 253.86 430.74 253.66 431.77 253.41 432.81 253.17 434.06 253.03 435.31 252.90 436.32 252.71 437.32 252.52 438.38 252.41 439.44 252.31 440.18 252.18 440.92 252.05 440.78 252.50 440.64 252.95 440.64 252.95 440.64 252.95 440.64 252.95 440.64 252.95 440.64 252.95 440.64 252.95 440.65 252.95 440.65 252.95 440.65 252.95 440.65 252.96 440.65 252.96 440.65 252.96 440.65 252.96 440.65 252.96 440.65 252.96 440.65 252.96 440.65 252.96 440.65 252.96 440.65 252.97 440.65 252.97 440.65 252.97 440.65 252.97 440.65 252.97 440.64 252.97 440.64 252.97 440.64 252.97 440.64 252.97 440.64 252.96 440.64 252.96 440.64 252.95 440.64 252.95 440.64 252.95 440.64 252.95 440.64 252.95 440.64 252.95 440.64 252.95 440.65 252.95 440.65 252.95 440.65 252.95 440.65 252.96 440.65 252.96 440.65 252.96 440.65 252.96 440.65 252.96 440.65 252.96 440.65 252.96 440.65 252.96 440.65 252.96 440.65 252.97 440.65 252.97 440.65 252.97 440.65 252.97 440.65 252.97 440.64 252.97 440.64 252.97 440.64 252.97 441.29 254.80 441.94 256.63 440.92 256.90 439.89 257.16 439.05 257.23 438.21 257.30 437.00 257.52 435.79 257.74 434.85 257.82 433.91 257.90 432.82 258.15 431.73 258.40 430.03 258.67 428.32 258.94 427.49 259.19 426.65 259.45 425.82 259.70 424.99 259.95 424.17 260.16 423.34 260.38 422.42 260.41 421.50 260.44 420.69 259.48 419.88 258.52 419.88 258.51 Z" data-drauu_index="21"></path><path fill="#ff595e" d="M 489.03 257.39 Q 489.03 257.39 490.43 256.54 491.83 255.69 492.82 255.58 493.80 255.47 494.99 255.42 496.18 255.37 497.36 255.19 498.54 255.00 499.81 254.90 501.07 254.80 502.25 254.74 503.44 254.69 504.43 254.52 505.42 254.34 506.64 254.24 507.85 254.14 508.67 254.10 509.49 254.05 510.45 253.80 511.41 253.55 512.60 253.32 513.79 253.10 513.79 253.10 513.79 253.09 513.79 253.09 513.79 253.09 513.79 253.09 513.80 253.09 513.80 253.10 513.80 253.10 513.80 253.10 513.80 253.10 513.80 253.10 513.80 253.10 513.80 253.10 513.80 253.10 513.80 253.10 513.80 253.10 513.80 253.10 513.80 253.11 513.80 253.11 513.80 253.11 513.80 253.11 513.80 253.11 513.80 253.11 513.80 253.11 513.80 253.11 513.80 253.11 513.80 253.11 513.79 253.10 513.79 253.10 513.79 253.10 513.79 253.10 513.79 253.09 513.79 253.09 513.79 253.09 513.79 253.09 513.80 253.09 513.80 253.10 513.80 253.10 513.80 253.10 513.80 253.10 513.80 253.10 513.80 253.10 513.80 253.10 513.80 253.10 513.80 253.10 513.80 253.10 513.80 253.10 513.80 253.11 513.80 253.11 513.80 253.11 513.80 253.11 513.80 253.11 513.80 253.11 513.80 253.11 513.80 253.11 513.80 253.11 513.98 255.23 514.17 257.35 512.83 257.78 511.50 258.21 510.60 258.41 509.69 258.60 508.92 258.62 508.15 258.64 507.12 258.68 506.09 258.73 504.83 258.91 503.56 259.08 502.45 259.09 501.34 259.10 500.23 259.15 499.12 259.20 497.72 259.37 496.33 259.54 495.22 259.56 494.12 259.59 492.73 259.66 491.34 259.74 490.18 258.57 489.02 257.41 489.02 257.40 Z" data-drauu_index="22"></path><path fill="#ff595e" d="M 542.55 252.39 Q 542.55 252.39 541.88 252.93 541.21 253.47 540.85 253.64 540.49 253.80 540.27 253.66 540.05 253.51 539.87 253.32 539.69 253.12 539.56 252.89 539.44 252.66 539.37 252.40 539.30 252.14 539.30 251.88 539.29 251.62 539.35 251.36 539.41 251.10 539.53 250.86 539.64 250.62 539.82 250.42 539.99 250.22 540.20 250.07 540.42 249.91 540.66 249.81 540.91 249.71 541.17 249.68 541.43 249.64 541.70 249.67 541.96 249.69 542.21 249.78 542.46 249.87 543.61 249.47 544.76 249.08 545.58 249.04 546.39 249.00 547.19 248.85 547.99 248.69 548.98 248.60 549.97 248.51 551.66 248.24 553.35 247.96 554.64 247.69 555.92 247.42 557.72 248.82 559.51 250.22 559.51 250.22 559.52 250.22 559.52 250.22 559.52 250.22 559.52 250.22 559.52 250.22 559.52 250.22 559.52 250.22 559.52 250.22 559.52 250.23 559.52 250.23 559.52 250.23 559.52 250.23 559.52 250.23 559.52 250.23 559.52 250.23 559.52 250.23 559.52 250.24 559.52 250.24 559.52 250.24 559.52 250.24 559.52 250.24 559.52 250.24 559.52 250.24 559.52 250.24 559.51 250.24 559.51 250.23 559.51 250.23 559.51 250.22 559.51 250.22 559.51 250.22 559.52 250.22 559.52 250.22 559.52 250.22 559.52 250.22 559.52 250.22 559.52 250.22 559.52 250.22 559.52 250.22 559.52 250.23 559.52 250.23 559.52 250.23 559.52 250.23 559.52 250.23 559.52 250.23 559.52 250.23 559.52 250.23 559.52 250.24 559.52 250.24 559.52 250.24 559.52 250.24 559.52 250.24 559.52 250.24 559.52 250.24 559.52 250.24 559.51 250.24 558.51 251.04 557.51 251.85 556.64 251.99 555.78 252.14 554.08 252.41 552.38 252.68 551.37 252.90 550.36 253.11 549.58 253.17 548.80 253.23 547.69 253.42 546.58 253.61 545.49 253.67 544.39 253.73 543.48 253.92 542.57 254.12 541.53 253.96 540.49 253.80 540.27 253.66 540.05 253.51 539.87 253.32 539.69 253.12 539.56 252.89 539.44 252.66 539.37 252.40 539.30 252.15 539.30 251.88 539.29 251.62 539.35 251.36 539.41 251.10 539.52 250.86 539.64 250.63 539.82 250.42 539.99 250.22 540.20 250.07 540.42 249.91 540.66 249.81 540.91 249.71 541.17 249.68 541.43 249.64 541.70 249.67 541.96 249.69 542.21 249.78 542.46 249.87 542.54 250.26 542.62 250.64 542.59 251.51 542.56 252.37 542.55 252.38 Z" data-drauu_index="23"></path><path fill="#ff595e" d="M 384.20 404.61 Q 384.20 404.61 384.61 405.39 385.02 406.17 385.12 407.01 385.21 407.84 385.16 408.02 385.11 408.21 385.01 408.37 384.92 408.54 384.79 408.67 384.66 408.81 384.50 408.91 384.34 409.02 384.16 409.08 383.98 409.14 383.79 409.15 383.60 409.17 383.41 409.14 383.22 409.11 383.05 409.04 382.87 408.96 382.72 408.85 382.57 408.74 382.45 408.59 382.33 408.45 382.25 408.27 382.16 408.10 382.12 407.92 382.09 407.73 382.09 407.54 382.10 407.35 381.68 406.34 381.27 405.33 381.27 404.26 381.26 403.18 381.26 401.91 381.26 400.64 381.25 399.82 381.24 399.00 382.22 397.58 383.21 396.17 384.61 396.31 386.01 396.44 387.19 396.41 388.37 396.37 389.85 396.59 391.32 396.81 392.38 396.86 393.43 396.91 394.92 396.92 396.41 396.94 397.23 396.94 398.04 396.94 398.87 396.94 399.70 396.94 400.69 396.94 401.68 396.94 402.75 396.94 403.81 396.94 405.07 396.94 406.32 396.94 407.95 397.11 409.59 397.28 412.20 397.34 414.81 397.40 417.07 397.43 419.33 397.46 421.26 397.47 423.18 397.48 425.12 397.49 427.05 397.49 428.84 397.50 430.62 397.50 432.34 397.50 434.07 397.50 435.76 397.50 437.45 397.50 438.83 397.35 440.22 397.19 441.57 397.12 442.93 397.05 444.16 397.01 445.38 396.98 446.55 396.97 447.71 396.96 448.53 396.95 449.35 396.95 450.42 397.13 451.50 397.31 452.81 397.38 454.13 397.45 455.65 397.47 457.18 397.49 458.60 397.49 460.02 397.49 461.10 397.50 462.18 397.50 462.94 397.51 463.71 397.53 464.59 397.27 465.47 397.02 466.48 397.00 467.48 396.97 468.22 396.81 468.96 396.64 469.94 396.53 470.92 396.42 471.69 396.42 472.45 396.42 473.96 396.62 475.46 396.83 476.49 397.21 477.53 397.58 478.40 397.80 479.28 398.02 480.55 398.52 481.83 399.01 482.38 399.53 482.94 400.05 483.04 400.83 483.15 401.61 481.91 403.50 480.67 405.39 480.67 405.39 480.67 405.39 480.67 405.39 480.67 405.39 480.67 405.40 480.67 405.40 480.67 405.40 480.67 405.40 480.66 405.40 480.66 405.40 480.66 405.40 480.66 405.40 480.66 405.40 480.66 405.40 480.66 405.40 480.66 405.40 480.66 405.40 480.65 405.40 480.65 405.40 480.65 405.40 480.65 405.40 480.65 405.39 480.65 405.39 480.65 405.39 480.65 405.39 480.65 405.39 480.65 405.39 480.66 405.39 480.66 405.39 480.67 405.39 480.67 405.39 480.67 405.39 480.67 405.39 480.67 405.39 480.67 405.40 480.67 405.40 480.67 405.40 480.67 405.40 480.66 405.40 480.66 405.40 480.66 405.40 480.66 405.40 480.66 405.40 480.66 405.40 480.66 405.40 480.66 405.40 480.66 405.40 480.65 405.40 480.65 405.40 480.65 405.40 480.65 405.40 480.65 405.39 480.65 405.39 480.65 405.39 480.65 405.39 480.65 405.39 479.72 404.29 478.79 403.19 477.95 402.93 477.12 402.67 476.12 402.36 475.11 402.04 474.34 401.84 473.58 401.64 472.75 401.64 471.91 401.64 471.03 401.70 470.14 401.75 468.83 401.98 467.53 402.21 466.55 402.22 465.58 402.23 464.74 402.49 463.89 402.76 463.03 402.77 462.17 402.79 461.09 402.79 460.01 402.79 458.58 402.79 457.15 402.79 456.33 402.78 455.51 402.78 453.98 402.73 452.45 402.68 450.91 402.46 449.36 402.24 448.56 402.25 447.77 402.25 446.64 402.26 445.51 402.28 444.36 402.30 443.21 402.33 441.99 402.39 440.77 402.45 439.11 402.62 437.45 402.79 435.76 402.79 434.06 402.79 432.34 402.78 430.62 402.78 428.83 402.78 427.04 402.78 425.09 402.77 423.14 402.77 421.21 402.75 419.27 402.74 416.97 402.71 414.68 402.68 411.85 402.61 409.03 402.53 407.67 402.38 406.32 402.23 405.06 402.23 403.81 402.23 402.75 402.23 401.68 402.23 400.69 402.23 399.69 402.23 398.86 402.23 398.03 402.22 397.20 402.22 396.38 402.22 395.57 402.21 394.75 402.21 393.28 402.16 391.80 402.11 390.61 401.88 389.42 401.65 388.21 401.64 387.00 401.62 385.53 401.29 384.07 400.96 385.04 400.34 386.02 399.71 386.02 400.90 386.01 402.08 386.01 403.17 386.01 404.27 386.01 405.29 386.01 406.30 385.61 407.07 385.21 407.84 385.16 408.02 385.11 408.21 385.01 408.37 384.92 408.54 384.79 408.67 384.66 408.81 384.50 408.91 384.34 409.02 384.16 409.08 383.98 409.14 383.79 409.15 383.60 409.17 383.41 409.14 383.22 409.11 383.05 409.04 382.87 408.96 382.72 408.85 382.57 408.74 382.45 408.59 382.33 408.45 382.25 408.27 382.16 408.10 382.12 407.92 382.09 407.73 382.09 407.54 382.10 407.35 382.41 406.48 382.72 405.60 383.45 405.10 384.18 404.60 384.19 404.60 Z" data-drauu_index="24"></path><path fill="#ff595e" d="M 373.05 368.37 Q 373.05 368.37 373.56 369.13 374.07 369.89 374.02 368.96 373.97 368.03 374.87 367.57 375.77 367.12 376.75 366.86 377.74 366.60 378.43 366.24 379.13 365.88 379.91 365.43 380.69 364.97 381.38 364.38 382.08 363.80 382.96 362.48 383.84 361.16 384.04 359.96 384.23 358.75 384.02 357.35 383.81 355.96 383.60 356.71 383.38 357.46 383.13 358.34 382.88 359.22 382.61 360.24 382.35 361.26 382.27 362.32 382.19 363.39 381.98 364.79 381.76 366.19 381.69 367.61 381.62 369.02 381.74 370.31 381.86 371.60 381.92 373.23 381.98 374.87 382.00 376.36 382.03 377.86 382.19 378.99 382.35 380.12 382.43 381.21 382.51 382.30 382.55 383.09 382.58 383.88 382.60 384.74 382.62 385.60 382.60 385.88 382.57 386.16 382.48 386.43 382.39 386.70 382.23 386.93 382.08 387.17 381.87 387.36 381.67 387.56 381.42 387.69 381.17 387.83 380.90 387.91 380.63 387.98 380.34 387.99 380.06 388.00 379.79 387.94 379.51 387.88 379.26 387.75 379.00 387.63 378.79 387.45 378.57 387.27 378.40 387.04 378.24 386.81 378.13 386.55 378.02 386.29 377.98 386.01 377.94 385.73 378.81 386.82 379.67 387.92 378.92 387.57 378.16 387.22 377.34 386.45 376.51 385.69 376.01 385.00 375.52 384.32 375.22 383.45 374.92 382.58 375.06 380.98 375.21 379.38 376.39 378.20 377.58 377.02 378.83 376.42 380.08 375.82 381.28 375.48 382.48 375.15 383.66 374.95 384.83 374.75 386.11 374.78 387.39 374.82 388.36 375.03 389.32 375.24 391.09 375.33 392.85 375.41 392.85 375.42 392.85 375.42 392.85 375.43 392.85 375.43 391.24 376.03 389.64 376.62 388.70 377.26 387.76 377.91 386.83 378.20 385.89 378.50 384.88 378.92 383.86 379.34 382.93 379.71 381.99 380.08 381.23 380.38 380.46 380.69 379.93 381.22 379.39 381.76 379.82 382.57 380.26 383.39 381.44 384.50 382.62 385.60 382.60 385.88 382.57 386.16 382.48 386.43 382.39 386.70 382.23 386.93 382.08 387.17 381.87 387.36 381.67 387.56 381.42 387.69 381.17 387.83 380.90 387.91 380.63 387.98 380.35 387.99 380.06 388.00 379.79 387.94 379.51 387.88 379.26 387.75 379.00 387.63 378.79 387.45 378.57 387.27 378.40 387.04 378.24 386.81 378.13 386.55 378.02 386.29 377.98 386.01 377.94 385.73 377.94 385.36 377.93 385.00 377.89 383.81 377.86 382.63 377.79 381.68 377.73 380.74 377.55 379.33 377.37 377.93 377.36 376.48 377.34 375.02 377.29 373.50 377.24 371.98 377.12 370.37 377.00 368.75 377.11 367.11 377.22 365.47 377.43 364.20 377.64 362.94 377.81 361.50 377.98 360.06 378.31 358.96 378.63 357.86 379.00 356.77 379.38 355.68 380.02 354.53 380.66 353.39 381.38 352.83 382.11 352.28 382.85 352.02 383.59 351.77 384.57 351.98 385.56 352.20 386.22 352.76 386.87 353.33 387.29 354.02 387.70 354.71 388.05 356.05 388.40 357.39 388.36 358.31 388.33 359.24 388.22 360.23 388.11 361.22 387.76 362.34 387.41 363.46 386.88 364.30 386.34 365.14 385.63 366.15 384.92 367.17 383.92 367.97 382.93 368.78 381.99 369.32 381.05 369.87 379.96 370.37 378.88 370.87 377.94 371.12 377.00 371.36 376.16 371.60 375.33 371.84 374.33 371.99 373.32 372.14 372.46 371.90 371.61 371.67 371.10 370.99 370.58 370.31 370.66 369.21 370.73 368.12 371.88 368.23 373.03 368.35 373.04 368.36 Z" data-drauu_index="25"></path><path fill="#ff595e" d="M 395.36 357.77 Q 395.36 357.77 396.45 359.05 397.53 360.33 397.76 361.54 397.99 362.75 398.07 364.37 398.15 365.99 398.33 367.34 398.52 368.70 398.61 370.20 398.69 371.70 398.88 373.01 399.06 374.32 399.14 375.65 399.21 376.97 399.05 378.51 398.89 380.05 398.70 381.99 398.50 383.93 398.49 383.93 398.49 383.94 398.49 383.94 398.49 383.95 396.76 382.05 395.04 380.15 394.81 378.71 394.59 377.28 394.49 376.12 394.40 374.97 394.19 373.47 393.99 371.97 393.92 370.64 393.84 369.30 393.65 367.75 393.45 366.20 393.40 364.75 393.35 363.30 393.25 361.82 393.16 360.33 394.25 359.05 395.34 357.77 395.35 357.77 Z" data-drauu_index="26"></path><path fill="#ff595e" d="M 403.72 377.28 Q 403.72 377.28 404.86 378.08 406.01 378.88 406.28 379.87 406.55 380.86 406.81 381.72 407.07 382.59 407.35 383.64 407.64 384.69 407.79 385.55 407.94 386.42 408.39 387.18 408.83 387.95 410.12 388.13 411.42 388.31 412.98 388.01 414.54 387.71 415.49 387.16 416.44 386.62 417.21 386.10 417.98 385.57 418.63 383.95 419.27 382.32 419.25 381.44 419.22 380.57 419.21 379.62 419.20 378.68 419.01 377.81 418.82 376.94 418.66 376.63 418.51 376.33 418.46 376.09 418.41 375.84 418.41 375.60 418.42 375.35 418.49 375.11 418.56 374.87 418.68 374.65 418.80 374.44 418.97 374.26 419.14 374.08 419.35 373.94 419.56 373.81 419.79 373.73 420.03 373.65 420.28 373.63 420.52 373.60 420.77 373.64 421.01 373.68 421.24 373.78 421.47 373.87 421.67 374.02 421.87 374.17 422.03 374.36 422.19 374.55 422.30 374.77 422.40 374.99 422.05 376.08 421.69 377.16 421.92 376.65 422.15 376.15 422.11 376.39 422.07 376.63 421.98 376.86 421.88 377.08 421.74 377.28 421.59 377.48 421.40 377.63 421.21 377.79 420.99 377.89 420.77 378.00 420.53 378.05 420.29 378.10 420.05 378.09 419.80 378.08 419.57 378.01 419.33 377.95 419.12 377.83 418.91 377.70 418.73 377.53 418.55 377.37 418.42 377.16 418.29 376.95 418.21 376.72 418.13 376.49 418.11 376.25 418.09 376.00 420.08 375.79 422.07 375.57 422.65 377.70 423.24 379.82 423.23 379.83 423.23 379.83 423.22 379.83 423.22 379.84 421.61 379.20 420.00 378.56 419.27 377.94 418.54 377.33 420.34 376.74 422.15 376.15 422.11 376.39 422.07 376.63 421.98 376.86 421.88 377.08 421.74 377.28 421.59 377.48 421.40 377.63 421.21 377.79 420.99 377.89 420.77 378.00 420.53 378.05 420.29 378.10 420.05 378.09 419.80 378.08 419.57 378.01 419.33 377.95 419.12 377.83 418.91 377.70 418.73 377.53 418.55 377.37 418.42 377.16 418.29 376.95 418.21 376.72 418.13 376.49 418.11 376.25 418.09 376.00 418.65 375.37 419.20 374.75 418.86 375.54 418.51 376.33 418.46 376.09 418.41 375.84 418.41 375.60 418.42 375.35 418.49 375.11 418.56 374.87 418.68 374.65 418.80 374.44 418.97 374.26 419.14 374.08 419.35 373.94 419.56 373.81 419.79 373.73 420.03 373.65 420.28 373.63 420.52 373.60 420.77 373.64 421.01 373.68 421.24 373.78 421.47 373.87 421.67 374.02 421.87 374.17 422.03 374.36 422.19 374.55 422.30 374.77 422.40 374.99 422.47 375.33 422.53 375.66 422.66 377.17 422.79 378.68 422.78 379.63 422.77 380.57 422.74 381.88 422.71 383.20 422.25 384.93 421.79 386.67 421.09 387.69 420.40 388.70 419.48 389.44 418.56 390.19 417.05 391.10 415.53 392.02 414.43 392.27 413.33 392.52 412.21 392.65 411.08 392.79 409.96 392.69 408.83 392.58 407.74 392.20 406.65 391.82 405.92 391.17 405.18 390.51 404.64 389.63 404.10 388.75 403.77 387.26 403.44 385.78 403.19 384.75 402.94 383.73 402.68 382.74 402.42 381.75 402.24 380.64 402.05 379.53 402.88 378.41 403.70 377.28 403.71 377.28 Z" data-drauu_index="27"></path><path fill="#ff595e" d="M 427.69 373.93 Q 427.69 373.93 429.14 374.08 430.59 374.23 431.69 375.12 432.79 376.01 433.37 376.57 433.95 377.13 434.58 377.60 435.21 378.07 436.39 379.18 437.58 380.29 438.35 381.09 439.12 381.90 439.73 384.22 440.34 386.54 440.34 386.54 440.34 386.54 440.33 386.55 440.33 386.55 438.27 385.73 436.22 384.91 435.41 384.19 434.60 383.47 433.57 382.51 432.53 381.55 431.72 380.91 430.90 380.28 429.83 379.24 428.75 378.21 428.05 377.53 427.35 376.85 427.51 375.39 427.68 373.94 427.69 373.94 Z" data-drauu_index="28"></path><path fill="#ff595e" d="M 438.84 377.29 Q 438.84 377.29 438.44 378.61 438.04 379.92 437.40 380.40 436.75 380.87 436.17 381.51 435.59 382.16 433.95 383.98 432.30 385.80 430.88 387.45 429.45 389.10 428.16 390.33 426.88 391.55 425.46 392.75 424.05 393.94 424.04 393.94 424.04 393.94 424.03 393.93 424.03 393.93 424.47 392.01 424.91 390.09 425.72 388.51 426.53 386.92 427.77 384.99 429.02 383.05 430.64 380.95 432.27 378.86 433.35 377.83 434.43 376.80 435.43 376.36 436.43 375.92 437.63 376.60 438.84 377.27 438.84 377.28 Z" data-drauu_index="29"></path><path fill="#ff595e" d="M 516.35 434.15 Q 516.35 434.15 517.14 432.95 517.92 431.76 519.17 431.62 520.42 431.48 522.25 432.37 524.08 433.27 524.09 433.27 524.09 433.27 524.09 433.27 524.09 433.27 524.09 433.27 524.09 433.27 524.09 433.27 524.09 433.27 524.09 433.27 524.09 433.28 524.09 433.28 524.09 433.28 524.09 433.28 524.10 433.28 524.09 433.28 524.09 433.28 524.09 433.28 524.09 433.28 524.09 433.29 524.09 433.29 524.09 433.29 524.09 433.29 524.09 433.29 524.09 433.29 524.09 433.29 524.09 433.29 524.09 433.28 524.09 433.28 524.08 433.27 524.08 433.27 524.09 433.27 524.09 433.27 524.09 433.27 524.09 433.27 524.09 433.27 524.09 433.27 524.09 433.27 524.09 433.27 524.09 433.27 524.09 433.28 524.09 433.28 524.09 433.28 524.09 433.28 524.10 433.28 524.09 433.28 524.09 433.28 524.09 433.28 524.09 433.28 524.09 433.29 524.09 433.29 524.09 433.29 524.09 433.29 524.09 433.29 524.09 433.29 524.09 433.29 524.09 433.29 522.37 434.55 520.65 435.81 519.63 435.86 518.62 435.91 517.48 435.04 516.35 434.17 516.35 434.16 Z" data-drauu_index="30"></path><path fill="#ff595e" d="M 577.68 431.94 Q 577.68 431.94 577.00 432.50 576.32 433.06 576.05 433.43 575.79 433.81 575.55 433.86 575.31 433.90 575.07 433.89 574.83 433.87 574.60 433.80 574.37 433.73 574.17 433.61 573.96 433.48 573.79 433.31 573.62 433.15 573.49 432.94 573.37 432.73 573.30 432.51 573.23 432.28 573.21 432.04 573.19 431.80 573.24 431.56 573.28 431.32 573.38 431.10 573.48 430.88 573.62 430.69 573.77 430.50 573.96 430.36 574.15 430.21 574.37 430.11 574.59 430.01 575.80 430.14 577.01 430.27 578.29 430.25 579.56 430.23 580.41 430.11 581.26 430.00 582.33 429.76 583.40 429.52 584.34 429.39 585.29 429.26 586.25 428.99 587.22 428.73 588.10 428.53 588.98 428.34 589.37 429.92 589.76 431.49 588.92 431.72 588.08 431.94 586.87 432.15 585.66 432.36 584.64 432.51 583.63 432.66 582.26 432.80 580.88 432.95 580.05 433.17 579.22 433.40 578.01 433.05 576.80 432.70 576.80 432.70 576.80 432.70 576.80 432.70 576.80 432.70 576.80 432.69 576.80 432.69 576.80 432.69 576.80 432.69 576.80 432.69 576.80 432.69 576.79 432.69 576.79 432.69 576.79 432.69 576.79 432.69 576.79 432.68 576.79 432.68 576.80 432.68 576.80 432.68 576.80 432.68 576.80 432.68 576.80 432.68 576.80 432.68 576.80 432.68 576.80 432.68 576.80 432.68 576.80 432.68 576.80 432.68 576.80 432.69 576.80 432.69 576.80 432.70 576.80 432.70 576.80 432.70 576.80 432.70 576.80 432.70 576.80 432.69 576.80 432.69 576.80 432.69 576.80 432.69 576.80 432.69 576.80 432.69 576.79 432.69 576.79 432.69 576.79 432.69 576.79 432.69 576.79 432.68 576.79 432.68 576.80 432.68 576.80 432.68 576.80 432.68 576.80 432.68 576.80 432.68 576.80 432.68 576.80 432.68 576.80 432.68 576.80 432.68 576.80 432.68 577.89 430.85 578.98 429.03 579.80 428.81 580.61 428.59 581.51 428.52 582.40 428.45 583.24 428.23 584.08 428.01 585.21 427.94 586.33 427.87 587.20 427.67 588.07 427.47 589.10 427.48 590.13 427.49 591.18 427.94 592.22 428.40 592.27 429.97 592.31 431.55 591.25 432.12 590.19 432.68 588.83 432.97 587.46 433.25 586.14 433.51 584.81 433.78 583.63 434.05 582.45 434.33 581.58 434.52 580.71 434.72 579.42 434.69 578.13 434.67 576.96 434.24 575.79 433.81 575.55 433.86 575.31 433.90 575.07 433.89 574.83 433.87 574.60 433.80 574.37 433.73 574.17 433.61 573.96 433.48 573.79 433.32 573.62 433.15 573.49 432.94 573.37 432.73 573.30 432.51 573.23 432.28 573.21 432.04 573.19 431.80 573.24 431.56 573.28 431.32 573.38 431.10 573.48 430.88 573.62 430.69 573.77 430.50 573.96 430.36 574.15 430.21 574.37 430.11 574.59 430.01 575.05 430.03 575.51 430.06 576.64 430.11 577.77 430.16 577.73 431.04 577.69 431.92 577.68 431.93 Z" data-drauu_index="31"></path><path fill="#ff595e" d="M 597.75 418.54 Q 597.75 418.54 596.92 417.67 596.09 416.79 596.68 416.04 597.28 415.29 597.88 414.47 598.48 413.64 599.31 412.95 600.14 412.27 600.84 411.62 601.54 410.98 602.48 410.06 603.42 409.14 604.48 408.12 605.53 407.09 606.73 405.75 607.94 404.42 609.30 402.99 610.67 401.57 612.22 400.01 613.77 398.45 615.19 396.87 616.60 395.29 618.05 393.78 619.49 392.26 620.97 390.92 622.44 389.58 623.58 388.67 624.71 387.76 626.84 387.68 628.98 387.59 628.98 387.59 628.98 387.59 628.98 387.59 628.98 387.59 628.98 387.59 628.98 387.59 628.98 387.59 628.99 387.59 628.99 387.59 628.99 387.59 628.99 387.59 628.99 387.59 628.99 387.59 628.99 387.59 628.99 387.59 628.99 387.59 628.99 387.59 628.99 387.60 628.99 387.60 628.99 387.60 628.99 387.60 628.99 387.60 628.99 387.60 628.99 387.60 628.99 387.60 628.99 387.60 628.99 387.60 628.98 387.60 628.98 387.59 628.98 387.59 628.98 387.59 628.98 387.59 628.98 387.59 628.98 387.59 628.98 387.59 628.98 387.59 628.98 387.59 628.99 387.59 628.99 387.59 628.99 387.59 628.99 387.59 628.99 387.59 628.99 387.59 628.99 387.59 628.99 387.59 628.99 387.59 628.99 387.59 628.99 387.60 628.99 387.60 628.99 387.60 628.99 387.60 628.99 387.60 628.99 387.60 628.99 387.60 628.99 387.60 628.99 387.60 629.13 388.76 629.27 389.91 628.55 390.78 627.84 391.65 626.82 392.47 625.80 393.28 624.46 394.50 623.13 395.71 621.74 397.18 620.35 398.64 618.86 400.31 617.37 401.98 615.87 403.53 614.36 405.08 613.07 406.46 611.77 407.83 610.47 409.30 609.18 410.78 608.13 411.83 607.07 412.89 606.08 413.86 605.09 414.83 604.25 415.60 603.41 416.37 602.52 417.17 601.62 417.96 600.85 418.49 600.07 419.02 598.92 418.78 597.77 418.55 597.76 418.54 Z" data-drauu_index="32"></path><path fill="#ff595e" d="M 642.36 366.70 Q 642.36 366.70 641.32 367.18 640.28 367.67 640.54 366.30 640.81 364.93 642.21 365.86 643.62 366.78 644.47 367.47 645.32 368.15 646.33 368.94 647.34 369.72 648.99 370.81 650.64 371.90 652.04 372.88 653.44 373.86 654.48 374.33 655.52 374.79 656.38 375.20 657.23 375.61 657.92 375.95 658.60 376.28 659.18 376.48 659.75 376.68 659.99 376.84 660.24 377.00 660.44 377.21 660.64 377.43 660.79 377.68 660.93 377.94 661.01 378.22 661.09 378.50 661.09 378.80 661.10 379.09 661.04 379.38 660.98 379.66 660.85 379.93 660.72 380.19 660.53 380.42 660.34 380.64 660.11 380.82 659.87 380.99 659.60 381.10 659.33 381.21 659.04 381.26 658.75 381.30 658.45 381.27 658.16 381.25 657.88 381.15 657.61 381.05 658.73 381.07 659.85 381.08 658.62 381.59 657.38 382.10 656.33 382.66 655.27 383.22 654.65 383.77 654.03 384.31 652.58 385.55 651.13 386.79 649.53 388.11 647.93 389.43 645.94 389.02 643.95 388.61 643.95 388.61 643.95 388.61 643.94 388.61 643.94 388.62 643.94 388.62 643.94 388.62 643.94 388.62 643.94 388.62 643.94 388.61 643.94 388.61 643.94 388.61 643.93 388.61 643.93 388.61 643.93 388.61 643.93 388.61 643.93 388.61 643.93 388.61 643.93 388.61 643.93 388.61 643.93 388.60 643.93 388.60 643.93 388.60 643.93 388.60 643.93 388.60 643.93 388.60 643.93 388.60 643.94 388.60 643.94 388.61 643.94 388.61 643.95 388.61 643.95 388.61 643.95 388.61 643.94 388.61 643.94 388.62 643.94 388.62 643.94 388.62 643.94 388.62 643.94 388.62 643.94 388.61 643.94 388.61 643.94 388.61 643.93 388.61 643.93 388.61 643.93 388.61 643.93 388.61 643.93 388.61 643.93 388.61 643.93 388.61 643.93 388.61 643.93 388.60 643.93 388.60 643.93 388.60 643.93 388.60 643.93 388.60 643.93 388.60 643.93 388.60 644.38 387.17 644.83 385.74 646.39 384.40 647.95 383.06 649.41 381.81 650.88 380.56 651.83 379.78 652.79 379.01 653.65 378.51 654.52 378.02 655.61 377.71 656.70 377.40 658.22 377.04 659.75 376.68 659.99 376.84 660.24 377.00 660.44 377.21 660.64 377.43 660.79 377.68 660.93 377.94 661.01 378.22 661.09 378.50 661.09 378.80 661.10 379.09 661.04 379.38 660.98 379.66 660.85 379.93 660.72 380.19 660.53 380.42 660.34 380.64 660.11 380.82 659.87 380.99 659.60 381.10 659.33 381.21 659.04 381.26 658.75 381.30 658.45 381.27 658.16 381.25 657.88 381.15 657.61 381.05 657.33 381.00 657.06 380.94 656.09 380.46 655.13 379.99 654.30 379.59 653.47 379.20 652.06 378.52 650.65 377.84 649.31 376.89 647.96 375.94 646.16 374.74 644.37 373.55 643.31 372.72 642.25 371.89 641.25 371.06 640.25 370.22 639.26 369.24 638.27 368.25 637.81 367.56 637.36 366.87 637.35 365.77 637.34 364.68 638.93 364.10 640.52 363.51 641.21 363.97 641.89 364.42 642.13 365.55 642.37 366.68 642.37 366.69 Z" data-drauu_index="33"></path><path fill="#ff595e" d="M 686.41 368.36 Q 686.41 368.36 685.47 367.56 684.53 366.76 684.39 366.11 684.25 365.47 684.28 365.21 684.31 364.95 684.40 364.70 684.50 364.46 684.64 364.24 684.79 364.02 684.99 363.85 685.18 363.68 685.42 363.56 685.65 363.43 685.90 363.37 686.16 363.31 686.42 363.31 686.68 363.31 686.93 363.37 687.19 363.43 687.42 363.56 687.65 363.68 687.85 363.85 688.04 364.02 688.19 364.24 688.34 364.46 688.43 364.70 688.53 364.95 688.56 365.21 688.59 365.47 689.39 366.32 690.19 367.17 690.61 368.32 691.02 369.47 691.22 370.94 691.42 372.40 691.49 373.81 691.56 375.22 691.59 376.61 691.62 378.01 691.63 379.24 691.63 380.47 691.52 381.64 691.40 382.81 690.31 382.48 689.22 382.15 689.22 382.16 689.22 382.16 689.22 382.16 689.21 382.16 689.21 382.16 689.21 382.16 689.21 382.16 689.21 382.16 689.21 382.16 689.21 382.16 689.21 382.16 689.21 382.16 689.21 382.16 689.20 382.16 689.20 382.16 689.20 382.16 689.20 382.16 689.20 382.16 689.20 382.16 689.20 382.16 689.20 382.16 689.20 382.16 689.20 382.16 689.20 382.16 689.20 382.16 689.20 382.15 689.20 382.15 689.21 382.15 689.21 382.15 689.22 382.15 689.22 382.16 689.22 382.16 689.22 382.16 689.21 382.16 689.21 382.16 689.21 382.16 689.21 382.16 689.21 382.16 689.21 382.16 689.21 382.16 689.21 382.16 689.21 382.16 689.21 382.16 689.20 382.16 689.20 382.16 689.20 382.16 689.20 382.16 689.20 382.16 689.20 382.16 689.20 382.16 689.20 382.16 689.20 382.16 689.20 382.16 689.20 382.16 689.20 382.16 689.20 382.15 688.10 382.49 687.00 382.82 686.87 381.67 686.75 380.52 686.73 379.31 686.72 378.10 686.69 376.77 686.67 375.44 686.62 374.21 686.56 372.98 686.48 372.00 686.39 371.03 686.13 370.21 685.87 369.39 685.43 368.43 684.98 367.48 684.62 366.47 684.25 365.47 684.28 365.21 684.31 364.95 684.40 364.70 684.49 364.46 684.64 364.24 684.79 364.02 684.99 363.85 685.18 363.68 685.42 363.56 685.65 363.43 685.90 363.37 686.16 363.31 686.42 363.31 686.68 363.31 686.93 363.37 687.19 363.43 687.42 363.56 687.65 363.68 687.85 363.85 688.04 364.02 688.19 364.24 688.34 364.46 688.43 364.70 688.53 364.95 688.56 365.21 688.59 365.47 688.45 366.11 688.31 366.76 687.37 367.56 686.43 368.36 686.42 368.36 Z" data-drauu_index="34"></path><path fill="#ff595e" d="M 687.54 362.77 Q 687.54 362.77 688.63 362.16 689.73 361.55 691.03 361.73 692.33 361.91 693.53 362.03 694.74 362.14 695.87 362.19 697.01 362.24 698.18 362.22 699.34 362.20 701.23 362.89 703.13 363.58 703.13 363.59 703.13 363.59 703.13 363.60 703.14 363.60 701.44 364.80 699.74 366.00 698.28 366.26 696.83 366.51 695.58 366.46 694.32 366.40 692.92 366.26 691.53 366.12 689.71 365.71 687.90 365.30 687.71 364.05 687.53 362.79 687.53 362.78 Z" data-drauu_index="35"></path><path fill="#ff595e" d="M 692.00 375.60 Q 692.00 375.60 692.84 374.89 693.69 374.18 694.80 373.99 695.92 373.80 696.77 373.52 697.61 373.23 698.56 372.94 699.51 372.65 700.35 372.52 701.20 372.38 702.00 372.20 702.79 372.01 703.03 372.18 703.27 372.35 703.40 372.32 703.53 372.29 703.67 372.30 703.80 372.30 703.93 372.34 704.06 372.37 704.17 372.44 704.29 372.51 704.39 372.60 704.49 372.69 704.56 372.80 704.63 372.91 704.68 373.04 704.72 373.17 704.73 373.30 704.75 373.44 704.73 373.57 704.71 373.70 704.65 373.82 704.60 373.95 704.52 374.06 704.44 374.16 704.34 374.25 704.24 374.34 704.12 374.40 704.00 374.45 703.04 374.99 702.08 375.52 701.23 376.28 700.38 377.04 699.73 377.66 699.07 378.28 698.43 379.07 697.78 379.85 697.01 380.59 696.23 381.33 695.51 382.11 694.78 382.88 693.95 383.62 693.12 384.36 692.54 384.97 691.96 385.58 693.37 385.28 694.79 384.98 696.07 384.99 697.35 384.99 698.69 385.00 700.04 385.01 701.10 384.86 702.17 384.72 703.26 384.56 704.36 384.39 705.44 384.27 706.53 384.14 707.60 383.85 708.67 383.56 709.61 381.89 710.56 380.22 710.56 380.22 710.57 380.22 710.57 380.22 710.58 380.23 710.25 382.54 709.92 384.84 708.74 386.38 707.57 387.91 706.38 388.30 705.20 388.69 703.98 388.98 702.76 389.27 701.39 389.44 700.02 389.61 698.66 389.61 697.29 389.60 695.97 389.57 694.65 389.55 693.40 389.49 692.16 389.43 691.03 389.27 689.89 389.11 688.92 388.48 687.96 387.84 687.72 386.70 687.49 385.55 688.52 384.20 689.56 382.85 690.33 382.28 691.09 381.70 691.92 381.17 692.76 380.63 693.68 379.92 694.61 379.21 695.45 378.71 696.30 378.22 697.19 377.60 698.09 376.98 699.28 376.10 700.48 375.21 701.33 374.33 702.17 373.45 702.72 372.90 703.27 372.35 703.40 372.32 703.53 372.29 703.67 372.30 703.80 372.30 703.93 372.34 704.06 372.37 704.17 372.44 704.29 372.51 704.39 372.60 704.49 372.69 704.56 372.80 704.63 372.91 704.68 373.04 704.72 373.17 704.73 373.30 704.75 373.44 704.73 373.57 704.71 373.70 704.65 373.82 704.60 373.95 704.52 374.06 704.44 374.16 704.34 374.25 704.24 374.34 704.12 374.40 704.00 374.45 703.66 374.87 703.33 375.29 702.00 375.72 700.67 376.15 699.74 376.48 698.81 376.82 697.51 377.25 696.21 377.69 694.54 377.68 692.87 377.68 692.43 376.65 691.99 375.62 691.99 375.61 Z" data-drauu_index="36"></path><path fill="#ff595e" d="M 714.31 361.11 Q 714.31 361.11 715.14 362.56 715.96 364.01 715.64 364.90 715.33 365.78 715.38 367.28 715.43 368.78 715.62 369.77 715.81 370.76 716.21 372.64 716.60 374.52 716.92 375.96 717.23 377.39 717.47 378.46 717.72 379.52 717.38 381.95 717.04 384.39 717.04 384.39 717.04 384.40 717.03 384.40 717.03 384.40 715.18 382.56 713.33 380.72 712.97 379.59 712.61 378.45 712.26 376.99 711.90 375.52 711.48 373.59 711.06 371.66 710.84 370.46 710.62 369.27 710.52 367.94 710.41 366.62 710.61 365.37 710.80 364.12 711.08 363.41 711.35 362.70 712.82 361.90 714.29 361.11 714.30 361.11 Z" data-drauu_index="37"></path><path fill="#ff595e" d="M 729.34 377.84 Q 729.34 377.84 728.51 377.59 727.67 377.34 727.11 376.72 726.55 376.11 725.92 377.54 725.28 378.98 724.97 380.46 724.65 381.94 725.64 381.94 726.62 381.93 727.37 381.51 728.12 381.09 729.11 380.08 730.11 379.07 730.48 378.08 730.85 377.10 731.12 375.55 731.39 374.00 731.39 373.99 731.40 373.99 731.40 373.99 731.40 373.98 732.82 375.75 734.23 377.52 734.20 378.53 734.17 379.53 733.83 380.47 733.50 381.40 732.73 382.53 731.96 383.65 731.18 384.30 730.40 384.94 729.51 385.49 728.63 386.04 727.58 386.53 726.53 387.02 725.54 387.21 724.54 387.41 723.38 387.11 722.23 386.81 721.47 386.05 720.71 385.29 720.34 384.18 719.97 383.07 720.35 381.19 720.73 379.30 721.08 378.00 721.42 376.70 721.87 375.99 722.32 375.28 722.90 374.35 723.48 373.42 724.13 372.88 724.78 372.34 726.26 372.20 727.74 372.06 728.65 372.88 729.56 373.70 729.98 375.06 730.40 376.41 729.88 377.12 729.36 377.84 729.35 377.84 Z" data-drauu_index="38"></path><path fill="#ff595e" d="M 737.15 378.95 Q 737.15 378.95 736.66 377.90 736.16 376.86 737.33 375.68 738.50 374.50 739.86 375.16 741.22 375.83 741.99 377.28 742.76 378.72 743.54 380.03 744.31 381.34 744.78 382.28 745.25 383.21 745.54 383.82 745.83 384.43 745.96 384.64 746.10 384.85 746.18 385.09 746.26 385.32 746.28 385.57 746.30 385.82 746.27 386.07 746.23 386.31 746.13 386.55 746.03 386.78 745.89 386.98 745.74 387.18 745.54 387.34 745.35 387.50 745.13 387.61 744.90 387.71 744.66 387.77 744.41 387.82 744.16 387.81 743.91 387.80 743.67 387.73 743.43 387.66 743.21 387.54 743.00 387.42 742.81 387.25 742.63 387.07 744.26 385.74 745.88 384.41 746.01 384.61 746.14 384.82 746.22 385.05 746.30 385.27 746.32 385.52 746.34 385.76 746.31 386.00 746.27 386.24 746.18 386.46 746.08 386.68 745.94 386.88 745.79 387.07 745.61 387.23 745.42 387.38 745.20 387.49 744.98 387.59 744.75 387.64 744.51 387.69 744.27 387.69 744.02 387.68 743.79 387.61 743.56 387.55 743.35 387.43 743.14 387.31 742.96 387.14 742.78 386.97 742.42 386.17 742.05 385.36 741.79 384.16 741.54 382.96 741.51 382.11 741.48 381.27 741.65 380.38 741.82 379.50 742.07 378.66 742.33 377.81 742.91 377.01 743.49 376.20 744.13 375.68 744.77 375.15 746.00 374.51 747.23 373.87 748.19 373.91 749.15 373.96 749.90 374.18 750.64 374.41 751.40 375.06 752.16 375.70 752.93 376.47 753.69 377.25 754.52 378.07 755.34 378.89 756.17 379.74 757.00 380.59 757.39 381.32 757.78 382.06 757.74 383.98 757.69 385.89 757.68 385.89 757.68 385.89 757.67 385.90 757.67 385.90 756.09 385.12 754.50 384.34 753.69 383.57 752.88 382.80 752.04 381.97 751.21 381.13 750.39 380.30 749.57 379.47 748.77 378.62 747.97 377.78 747.15 378.23 746.33 378.67 745.89 379.50 745.45 380.32 745.37 381.42 745.29 382.52 745.58 383.47 745.88 384.41 746.01 384.61 746.14 384.82 746.22 385.05 746.30 385.27 746.32 385.52 746.34 385.76 746.31 386.00 746.27 386.24 746.18 386.46 746.08 386.68 745.94 386.88 745.79 387.07 745.61 387.23 745.42 387.38 745.20 387.49 744.98 387.59 744.75 387.64 744.51 387.69 744.27 387.69 744.02 387.68 743.79 387.61 743.56 387.55 743.35 387.43 743.14 387.31 742.96 387.14 742.78 386.97 744.31 385.70 745.83 384.43 745.96 384.64 746.10 384.85 746.18 385.08 746.26 385.32 746.28 385.57 746.30 385.82 746.27 386.07 746.23 386.31 746.13 386.54 746.04 386.78 745.89 386.98 745.74 387.18 745.54 387.34 745.35 387.50 745.13 387.61 744.90 387.71 744.66 387.77 744.41 387.82 744.16 387.81 743.91 387.80 743.67 387.73 743.43 387.66 743.21 387.54 743.00 387.42 742.81 387.25 742.63 387.07 742.48 386.77 742.33 386.47 741.56 385.53 740.80 384.59 740.23 383.38 739.66 382.18 739.09 381.35 738.52 380.52 738.20 379.45 737.88 378.38 738.66 378.43 739.44 378.49 738.30 378.72 737.17 378.96 737.16 378.95 Z" data-drauu_index="39"></path><path fill="#ff595e" d="M 771.17 376.17 Q 771.17 376.17 769.96 376.10 768.76 376.02 767.76 375.39 766.76 374.76 765.94 376.33 765.13 377.89 764.73 378.75 764.33 379.62 763.82 380.68 763.31 381.73 764.18 381.13 765.06 380.53 765.83 380.41 766.60 380.29 768.02 380.01 769.43 379.73 770.44 379.90 771.45 380.08 772.48 380.85 773.50 381.62 774.11 382.57 774.72 383.53 775.15 384.85 775.59 386.17 775.92 387.30 776.25 388.44 776.43 389.89 776.60 391.34 776.68 392.59 776.75 393.83 776.77 395.01 776.80 396.18 776.64 397.37 776.47 398.55 775.96 399.64 775.45 400.73 774.59 401.63 773.74 402.52 773.09 403.09 772.45 403.65 771.21 404.18 769.98 404.71 768.87 404.79 767.76 404.87 766.60 404.70 765.43 404.52 763.71 403.19 761.99 401.85 761.99 401.84 761.99 401.84 762.00 401.83 762.00 401.83 763.70 402.03 765.40 402.23 766.25 401.91 767.10 401.59 768.26 401.03 769.43 400.47 769.97 399.86 770.52 399.24 771.21 398.50 771.90 397.76 772.04 397.01 772.17 396.26 772.15 395.15 772.13 394.04 772.10 392.92 772.06 391.80 771.98 390.70 771.90 389.61 771.63 388.52 771.35 387.44 770.93 386.09 770.50 384.75 769.73 384.43 768.95 384.12 767.60 384.40 766.26 384.68 765.46 384.91 764.66 385.14 763.71 385.26 762.75 385.37 761.91 385.16 761.06 384.94 760.18 384.20 759.29 383.46 759.08 382.44 758.86 381.42 759.15 380.59 759.43 379.76 759.99 378.71 760.55 377.66 761.15 376.59 761.76 375.52 762.71 374.35 763.66 373.17 764.32 372.55 764.98 371.93 766.02 371.62 767.06 371.31 768.42 371.93 769.78 372.55 770.40 373.15 771.03 373.75 771.10 374.95 771.18 376.16 771.17 376.17 Z" data-drauu_index="40"></path><path fill="#ff595e" d="M 788.45 380.63 Q 788.45 380.63 787.63 380.15 786.80 379.67 785.71 379.77 784.63 379.87 784.16 380.84 783.70 381.80 783.15 383.03 782.60 384.25 783.30 383.64 783.99 383.04 784.67 382.60 785.35 382.16 786.48 381.33 787.61 380.50 788.70 380.13 789.79 379.76 791.53 380.15 793.27 380.55 793.96 381.09 794.65 381.63 795.64 382.73 796.64 383.84 797.37 384.80 798.11 385.76 798.66 386.42 799.21 387.09 799.93 387.87 800.65 388.65 801.71 387.71 802.78 386.76 802.79 386.76 802.79 386.77 802.80 386.77 802.80 386.77 802.47 388.48 802.14 390.19 801.60 390.82 801.07 391.45 800.10 391.54 799.13 391.63 798.32 391.31 797.51 391.00 796.74 390.46 795.97 389.93 795.29 389.18 794.61 388.44 793.97 387.59 793.32 386.74 792.58 385.86 791.83 384.98 791.22 384.45 790.62 383.92 789.82 384.27 789.01 384.62 787.93 385.47 786.84 386.33 786.20 386.89 785.56 387.45 784.67 387.98 783.78 388.51 782.81 388.66 781.85 388.81 781.00 388.60 780.15 388.39 779.41 387.68 778.67 386.97 778.38 385.85 778.09 384.74 778.27 383.68 778.46 382.62 779.14 381.15 779.82 379.68 780.40 378.75 780.97 377.82 781.53 377.30 782.09 376.78 783.66 376.20 785.23 375.62 786.26 375.65 787.29 375.67 788.15 376.07 789.01 376.46 789.56 377.20 790.10 377.93 790.11 378.80 790.12 379.67 789.30 380.15 788.47 380.63 788.46 380.63 Z" data-drauu_index="41"></path><path fill="#ff595e" d="M 807.99 353.30 Q 807.99 353.30 809.07 355.39 810.15 357.47 810.17 359.16 810.20 360.85 810.35 362.42 810.51 363.99 810.73 365.62 810.95 367.25 811.28 368.64 811.61 370.02 811.81 371.55 812.01 373.07 812.13 374.54 812.26 376.01 811.60 378.34 810.93 380.67 810.93 380.67 810.92 380.67 810.92 380.67 810.91 380.67 810.20 378.64 809.49 376.60 809.01 375.24 808.52 373.88 808.05 372.51 807.57 371.14 807.06 369.50 806.56 367.86 806.32 366.14 806.09 364.42 805.92 362.63 805.76 360.85 805.78 359.16 805.81 357.47 806.89 355.39 807.97 353.30 807.98 353.30 Z" data-drauu_index="42"></path><path fill="#ff595e" d="M 801.28 374.48 Q 801.28 374.48 802.46 373.47 803.64 372.46 804.83 372.59 806.03 372.72 807.75 372.80 809.47 372.87 809.48 372.88 809.48 372.88 809.48 372.89 809.48 372.89 807.95 373.80 806.42 374.71 805.24 375.30 804.07 375.89 802.68 375.20 801.29 374.50 801.29 374.49 Z" data-drauu_index="43"></path><path fill="#ff595e" d="M 818.56 384.52 Q 818.56 384.52 818.53 383.53 818.50 382.53 818.99 381.54 819.49 380.54 819.34 379.80 819.18 379.06 820.06 379.81 820.93 380.55 822.01 379.78 823.08 379.01 822.64 378.06 822.21 377.11 823.01 377.31 823.82 377.50 824.71 377.10 825.59 376.71 826.17 375.79 826.74 374.86 826.46 375.58 826.17 376.29 825.47 376.78 824.76 377.26 824.19 377.97 823.62 378.68 822.86 379.64 822.11 380.59 821.55 381.55 820.99 382.51 820.69 383.55 820.38 384.59 820.08 385.82 819.79 387.06 819.85 388.26 819.90 389.46 820.95 389.93 822.00 390.41 822.73 390.22 823.46 390.03 823.47 390.03 823.47 390.03 823.47 390.03 823.47 390.03 823.47 390.03 823.47 390.03 823.47 390.03 823.47 390.03 823.47 390.03 823.47 390.03 823.47 390.03 823.48 390.03 823.48 390.04 823.48 390.04 823.48 390.04 823.48 390.04 823.48 390.04 823.47 390.04 823.47 390.04 823.47 390.04 823.47 390.04 823.47 390.05 823.47 390.05 823.47 390.05 823.47 390.05 823.47 390.05 823.47 390.04 823.47 390.04 823.46 390.03 823.46 390.03 823.47 390.03 823.47 390.03 823.47 390.03 823.47 390.03 823.47 390.03 823.47 390.03 823.47 390.03 823.47 390.03 823.47 390.03 823.47 390.03 823.47 390.03 823.48 390.03 823.48 390.04 823.48 390.04 823.48 390.04 823.48 390.04 823.48 390.04 823.47 390.04 823.47 390.04 823.47 390.04 823.47 390.04 823.47 390.05 823.47 390.05 823.47 390.05 823.47 390.05 823.47 390.05 823.14 392.34 822.82 394.63 821.70 394.88 820.58 395.13 819.26 394.82 817.95 394.52 816.89 393.44 815.83 392.37 815.40 390.97 814.97 389.58 815.01 387.72 815.04 385.86 815.44 384.43 815.84 382.99 816.43 381.52 817.01 380.05 817.78 378.88 818.55 377.70 819.43 376.66 820.31 375.61 821.31 374.63 822.30 373.65 823.03 373.18 823.75 372.71 824.64 372.19 825.53 371.67 826.49 371.53 827.45 371.40 828.25 371.57 829.06 371.75 829.70 372.30 830.34 372.85 830.38 374.99 830.42 377.13 829.99 377.86 829.55 378.58 827.99 380.05 826.44 381.52 825.72 381.80 825.01 382.08 824.01 382.21 823.00 382.34 822.11 382.10 821.22 381.87 820.35 381.10 819.48 380.33 819.11 379.07 818.73 377.80 820.26 377.08 821.78 376.35 822.65 377.88 823.51 379.40 823.34 380.28 823.17 381.15 822.68 382.08 822.20 383.02 821.39 383.81 820.57 384.61 819.57 384.57 818.58 384.54 818.57 384.53 Z" data-drauu_index="44"></path><path fill="#ff595e" d="M 652.41 429.14 Q 652.41 429.14 653.02 430.25 653.63 431.35 653.39 432.27 653.15 433.19 652.49 434.75 651.83 436.31 651.21 437.12 650.59 437.93 649.54 439.21 648.49 440.48 647.77 441.46 647.04 442.43 646.18 443.42 645.32 444.40 644.71 445.20 644.10 446.01 643.45 446.76 642.80 447.51 642.20 448.15 641.60 448.79 642.94 449.03 644.27 449.28 646.01 449.56 647.75 449.85 648.95 450.31 650.14 450.77 651.02 451.09 651.90 451.41 653.35 452.07 654.79 452.74 655.70 453.17 656.60 453.61 657.26 454.03 657.92 454.46 658.13 454.64 658.33 454.82 658.55 455.00 658.77 455.18 658.94 455.40 659.11 455.63 659.23 455.89 659.34 456.15 659.38 456.43 659.43 456.71 659.41 456.99 659.38 457.27 659.29 457.54 659.20 457.81 659.05 458.05 658.90 458.29 658.70 458.48 658.49 458.68 658.25 458.82 658.00 458.96 657.73 459.04 657.46 459.12 657.18 459.13 656.90 459.14 656.62 459.09 656.34 459.03 656.09 458.91 655.83 458.79 656.86 457.12 657.89 455.45 658.05 455.58 658.22 455.72 658.34 455.89 658.47 456.05 658.55 456.25 658.64 456.44 658.67 456.65 658.70 456.86 658.69 457.07 658.67 457.28 658.60 457.48 658.54 457.68 658.42 457.85 658.31 458.03 658.16 458.18 658.01 458.32 657.83 458.43 657.64 458.54 657.44 458.59 657.24 458.65 657.03 458.66 656.82 458.67 656.61 458.63 656.41 458.59 656.22 458.50 656.03 458.41 655.85 457.66 655.68 456.92 654.93 455.55 654.17 454.17 654.18 454.17 654.18 454.17 654.18 454.16 654.19 454.16 656.04 454.80 657.89 455.45 658.05 455.58 658.22 455.72 658.34 455.88 658.47 456.05 658.55 456.25 658.64 456.44 658.67 456.65 658.70 456.86 658.69 457.07 658.67 457.28 658.60 457.48 658.54 457.68 658.42 457.85 658.31 458.03 658.16 458.18 658.01 458.32 657.83 458.43 657.64 458.54 657.44 458.59 657.24 458.65 657.03 458.66 656.82 458.67 656.61 458.63 656.41 458.59 656.22 458.50 656.03 458.41 657.18 456.61 658.33 454.82 658.55 455.00 658.77 455.18 658.94 455.40 659.11 455.63 659.22 455.89 659.34 456.15 659.38 456.43 659.43 456.71 659.41 456.99 659.38 457.27 659.29 457.54 659.20 457.81 659.05 458.05 658.90 458.29 658.70 458.48 658.49 458.68 658.25 458.82 658.01 458.96 657.73 459.04 657.46 459.12 657.18 459.13 656.90 459.14 656.62 459.09 656.34 459.03 656.09 458.91 655.83 458.79 655.16 458.43 654.48 458.06 653.60 457.65 652.72 457.23 651.46 456.65 650.20 456.06 649.25 455.71 648.30 455.36 647.46 455.01 646.61 454.65 645.86 454.47 645.10 454.28 643.87 454.10 642.65 453.92 641.84 453.62 641.02 453.32 639.68 452.67 638.33 452.02 637.48 450.86 636.62 449.69 636.73 448.76 636.85 447.84 637.50 446.71 638.15 445.59 638.70 445.00 639.25 444.42 639.81 443.79 640.36 443.16 641.08 442.23 641.79 441.29 642.54 440.45 643.28 439.61 644.07 438.56 644.87 437.50 645.88 436.27 646.90 435.04 647.75 433.98 648.61 432.92 648.78 432.16 648.95 431.40 649.42 430.45 649.89 429.49 651.14 429.31 652.40 429.13 652.40 429.14 Z" data-drauu_index="45"></path><path fill="#ff595e" d="M 601.11 434.71 Q 601.11 434.71 602.50 434.91 603.89 435.11 604.48 435.69 605.06 436.27 606.35 437.07 607.64 437.87 609.05 438.60 610.47 439.32 611.66 439.78 612.84 440.24 613.96 440.59 615.08 440.94 616.32 441.45 617.57 441.96 618.62 442.30 619.67 442.63 620.96 444.79 622.25 446.95 622.25 446.96 622.24 446.96 622.24 446.96 622.24 446.97 620.24 446.94 618.24 446.91 617.03 446.51 615.82 446.11 614.76 445.66 613.71 445.20 612.44 444.79 611.17 444.37 609.76 443.78 608.34 443.19 606.15 441.75 603.96 440.31 603.02 439.66 602.08 439.01 601.48 438.27 600.88 437.52 600.99 436.12 601.10 434.72 601.10 434.72 Z" data-drauu_index="46"></path><path fill="#ff595e" d="M 684.19 440.86 Q 684.19 440.86 683.23 441.81 682.27 442.77 681.38 443.00 680.49 443.24 679.80 443.75 679.10 444.25 678.44 445.25 677.77 446.26 677.35 447.07 676.93 447.89 676.50 448.67 676.06 449.46 676.80 448.93 677.54 448.41 678.44 447.66 679.34 446.90 679.75 446.07 680.16 445.24 680.22 444.30 680.29 443.36 679.83 442.66 679.36 441.96 678.50 441.33 677.63 440.70 677.63 440.70 677.63 440.70 677.62 440.69 677.62 440.69 680.10 439.85 682.58 439.02 683.29 439.81 684.00 440.59 684.45 441.78 684.90 442.97 684.91 444.21 684.92 445.44 684.58 446.45 684.24 447.46 683.47 448.78 682.71 450.11 681.80 450.97 680.90 451.84 679.96 452.34 679.02 452.84 678.21 453.09 677.40 453.34 676.23 453.38 675.06 453.42 674.11 452.88 673.15 452.35 672.69 451.69 672.23 451.03 672.22 449.27 672.22 447.50 672.52 446.58 672.82 445.66 673.38 444.68 673.95 443.70 674.44 443.00 674.94 442.30 675.71 441.49 676.48 440.67 677.33 440.15 678.17 439.62 679.01 439.36 679.84 439.10 681.05 439.02 682.26 438.93 683.22 439.88 684.19 440.84 684.19 440.85 Z" data-drauu_index="47"></path><path fill="#ff595e" d="M 671.91 380.08 Q 671.91 380.08 671.11 380.21 670.31 380.34 669.43 381.01 668.55 381.68 667.74 382.72 666.93 383.77 666.49 384.96 666.04 386.16 666.79 385.87 667.55 385.58 668.66 385.17 669.77 384.76 670.52 384.34 671.27 383.92 671.85 383.39 672.43 382.87 672.34 381.99 672.25 381.11 672.58 381.22 672.92 381.34 672.92 381.34 672.92 381.34 672.92 381.34 672.92 381.34 672.92 381.33 672.92 381.33 672.92 381.33 672.92 381.33 672.92 381.33 672.92 381.33 672.92 381.33 672.92 381.33 672.92 381.33 672.92 381.33 672.93 381.33 672.93 381.33 672.93 381.33 672.93 381.33 672.93 381.33 672.93 381.33 672.93 381.33 672.93 381.33 672.93 381.33 672.94 381.33 672.94 381.33 672.94 381.33 672.93 381.34 672.93 381.34 672.92 381.34 672.92 381.34 672.92 381.34 672.92 381.34 672.92 381.34 672.92 381.34 672.92 381.33 672.92 381.33 672.92 381.33 672.92 381.33 672.92 381.33 672.92 381.33 672.92 381.33 672.92 381.33 672.92 381.33 672.92 381.33 672.93 381.33 672.93 381.33 672.93 381.33 672.93 381.33 672.93 381.33 672.93 381.33 672.93 381.33 672.93 381.33 672.93 381.33 672.94 381.33 672.94 381.33 672.94 381.33 674.31 380.23 675.67 379.13 676.00 379.90 676.32 380.67 676.43 381.94 676.54 383.20 676.20 384.29 675.86 385.37 674.66 386.53 673.46 387.69 672.55 388.23 671.65 388.78 670.57 389.26 669.49 389.73 668.43 389.90 667.38 390.08 666.54 390.04 665.70 390.01 664.73 389.84 663.75 389.68 662.97 389.03 662.19 388.37 661.84 387.25 661.50 386.12 661.93 384.68 662.36 383.25 662.74 382.30 663.11 381.35 663.82 380.28 664.54 379.21 665.93 378.31 667.33 377.41 668.08 377.14 668.83 376.88 669.70 376.96 670.56 377.05 671.40 377.46 672.25 377.87 672.09 378.97 671.93 380.06 671.92 380.07 Z" data-drauu_index="48"></path><path fill="#ff595e" d="M 704.26 460.91 Q 704.26 460.91 705.47 459.76 706.69 458.61 707.82 457.95 708.94 457.29 709.85 456.56 710.75 455.82 711.55 454.92 712.36 454.02 713.21 453.10 714.06 452.18 714.64 451.25 715.21 450.32 715.80 449.40 716.40 448.48 716.74 447.70 717.08 446.93 717.39 446.22 717.70 445.51 718.17 446.13 718.63 446.75 717.05 447.09 715.47 447.43 714.75 448.20 714.03 448.97 715.24 449.15 716.45 449.33 717.27 449.35 718.09 449.37 719.50 449.13 720.90 448.88 722.20 449.13 723.49 449.39 724.18 450.36 724.86 451.32 725.02 452.26 725.18 453.19 725.37 453.98 725.56 454.77 726.98 454.57 728.40 454.37 728.41 454.38 728.41 454.38 728.41 454.39 728.42 454.39 726.80 455.99 725.19 457.60 724.40 457.59 723.62 457.59 722.53 456.64 721.45 455.69 721.11 454.93 720.76 454.17 720.64 453.20 720.52 452.23 721.32 452.66 722.13 453.09 721.12 453.11 720.10 453.13 719.05 453.29 718.00 453.45 717.11 453.43 716.21 453.40 715.25 453.34 714.29 453.29 712.91 452.99 711.53 452.70 710.81 452.05 710.09 451.41 709.85 450.57 709.61 449.74 709.92 448.59 710.23 447.45 710.94 446.52 711.65 445.58 712.31 444.94 712.97 444.30 714.36 443.78 715.76 443.26 716.49 443.03 717.23 442.81 718.38 442.86 719.53 442.91 720.47 443.78 721.40 444.65 721.23 445.90 721.05 447.15 720.68 447.82 720.31 448.49 719.81 449.46 719.31 450.42 718.68 451.33 718.04 452.24 717.23 453.35 716.43 454.46 715.54 455.33 714.66 456.19 713.64 457.23 712.62 458.27 711.49 459.08 710.37 459.89 708.99 460.60 707.60 461.32 705.93 461.12 704.26 460.93 704.26 460.92 Z" data-drauu_index="49"></path><path fill="#ff595e" d="M 729.36 452.00 Q 729.36 452.00 730.29 451.89 731.23 451.78 732.35 450.86 733.47 449.94 734.18 448.67 734.90 447.39 735.04 446.16 735.19 444.92 735.72 445.50 736.25 446.07 735.72 447.70 735.18 449.33 735.09 450.30 735.00 451.27 735.10 452.32 735.19 453.37 736.06 453.44 736.92 453.50 737.97 453.19 739.01 452.87 739.78 452.60 740.55 452.33 741.91 451.11 743.28 449.88 744.36 446.39 745.43 442.90 745.44 442.90 745.44 442.90 745.44 442.90 745.45 442.91 744.90 446.72 744.35 450.54 743.41 452.92 742.46 455.31 741.57 455.98 740.67 456.66 739.57 457.17 738.47 457.67 737.32 457.77 736.17 457.87 735.10 457.64 734.03 457.41 732.89 456.65 731.74 455.90 731.34 455.09 730.93 454.28 730.80 453.33 730.66 452.37 730.76 451.53 730.85 450.68 731.06 449.50 731.27 448.33 731.82 446.65 732.38 444.96 732.93 444.23 733.48 443.49 734.22 442.90 734.96 442.31 735.97 442.29 736.97 442.26 737.72 442.87 738.48 443.47 738.70 444.28 738.92 445.09 738.82 446.20 738.72 447.30 738.49 448.15 738.26 448.99 737.80 449.95 737.34 450.90 736.62 451.90 735.91 452.90 734.73 453.82 733.55 454.74 732.40 455.01 731.25 455.28 730.01 454.71 728.76 454.14 729.06 453.08 729.35 452.01 729.35 452.00 Z" data-drauu_index="50"></path><path fill="#ff595e" d="M 747.77 417.43 Q 747.77 417.43 748.49 419.68 749.21 421.92 749.13 423.53 749.04 425.15 749.19 427.82 749.35 430.49 749.55 432.58 749.74 434.66 749.99 436.50 750.23 438.33 750.44 439.90 750.65 441.47 750.86 443.42 751.06 445.38 751.05 446.79 751.04 448.20 749.69 449.16 748.34 450.12 748.33 450.12 748.33 450.11 748.33 450.11 748.33 450.10 748.36 449.34 748.39 448.57 748.01 447.35 747.63 446.13 746.97 444.16 746.30 442.19 745.99 440.56 745.67 438.93 745.42 437.01 745.16 435.10 744.95 432.88 744.75 430.66 744.70 427.73 744.64 424.80 744.83 423.04 745.01 421.27 746.38 419.35 747.75 417.43 747.76 417.43 Z" data-drauu_index="51"></path><path fill="#ff595e" d="M 741.62 445.86 Q 741.62 445.86 742.46 444.54 743.29 443.22 744.45 443.00 745.61 442.78 746.80 442.75 747.99 442.71 750.24 442.94 752.49 443.17 752.49 443.17 752.49 443.18 752.49 443.18 752.49 443.19 750.59 444.30 748.68 445.41 747.64 445.95 746.59 446.49 745.52 446.86 744.44 447.23 743.03 446.55 741.62 445.88 741.62 445.87 Z" data-drauu_index="52"></path><path fill="#ff595e" d="M 759.46 453.67 Q 759.46 453.67 759.07 452.59 758.68 451.50 758.87 450.76 759.07 450.02 759.89 448.66 760.72 447.30 761.25 446.00 761.78 444.70 762.24 443.56 762.70 442.43 762.84 441.63 762.99 440.84 762.01 441.70 761.03 442.56 760.28 443.24 759.54 443.92 759.37 443.18 759.20 442.43 760.00 442.42 760.79 442.40 761.51 442.64 762.23 442.87 763.11 443.35 763.99 443.83 766.01 444.75 768.02 445.67 769.13 446.29 770.24 446.92 771.23 447.82 772.21 448.73 772.88 449.77 773.55 450.82 773.82 452.51 774.09 454.21 774.03 455.16 773.98 456.11 773.29 456.89 772.61 457.68 772.61 457.68 772.61 457.68 772.61 457.68 772.61 457.69 772.61 457.69 772.61 457.69 772.61 457.69 772.61 457.69 772.61 457.69 772.61 457.69 772.60 457.69 772.60 457.69 772.60 457.69 772.60 457.69 772.60 457.69 772.60 457.69 772.60 457.69 772.60 457.69 772.60 457.69 772.59 457.69 772.59 457.69 772.59 457.69 772.59 457.69 772.59 457.69 772.59 457.68 772.59 457.68 772.60 457.68 772.60 457.68 772.61 457.68 772.61 457.68 772.61 457.68 772.61 457.68 772.61 457.68 772.61 457.69 772.61 457.69 772.61 457.69 772.61 457.69 772.61 457.69 772.61 457.69 772.61 457.69 772.60 457.69 772.60 457.69 772.60 457.69 772.60 457.69 772.60 457.69 772.60 457.69 772.60 457.69 772.60 457.69 772.60 457.69 772.59 457.69 772.59 457.69 772.59 457.69 772.59 457.69 772.59 457.69 772.59 457.68 772.59 457.68 771.47 457.08 770.35 456.47 770.11 455.67 769.88 454.88 769.45 453.44 769.01 452.00 768.48 451.45 767.94 450.89 766.99 450.35 766.03 449.80 764.78 449.20 763.53 448.59 762.63 448.19 761.72 447.80 760.73 447.24 759.74 446.68 758.81 446.03 757.88 445.37 757.23 444.78 756.57 444.19 756.82 442.73 757.08 441.28 757.92 440.52 758.77 439.77 759.52 439.17 760.28 438.57 761.38 437.94 762.48 437.30 763.40 437.31 764.32 437.31 765.04 437.83 765.76 438.35 766.07 439.05 766.37 439.75 766.45 440.61 766.52 441.48 766.29 442.61 766.05 443.75 765.60 444.88 765.16 446.02 764.82 446.87 764.49 447.72 763.69 449.03 762.90 450.33 762.22 451.49 761.53 452.64 760.50 453.16 759.47 453.68 759.47 453.67 Z" data-drauu_index="53"></path><path fill="#ff595e" d="M 780.66 444.76 Q 780.66 444.76 780.03 445.77 779.40 446.77 778.99 447.47 778.59 448.17 777.98 449.29 777.38 450.42 777.35 451.40 777.33 452.38 777.90 451.29 778.47 450.19 778.99 449.30 779.51 448.41 780.54 447.50 781.57 446.59 783.18 446.75 784.79 446.91 785.72 447.12 786.65 447.32 787.56 447.77 788.47 448.21 790.25 447.79 792.04 447.36 792.04 447.37 792.05 447.37 792.05 447.37 792.05 447.38 790.85 448.94 789.66 450.50 788.16 450.78 786.66 451.05 785.91 451.09 785.15 451.13 784.28 450.61 783.40 450.09 782.83 450.92 782.26 451.74 781.75 452.42 781.24 453.09 780.69 453.66 780.14 454.24 779.53 454.81 778.92 455.38 777.16 455.73 775.40 456.09 774.58 455.53 773.76 454.97 773.35 454.00 772.95 453.02 773.07 451.77 773.19 450.53 773.84 448.88 774.50 447.23 774.94 446.54 775.38 445.85 776.26 444.85 777.14 443.84 777.92 443.61 778.70 443.38 779.68 444.06 780.65 444.74 780.65 444.75 Z" data-drauu_index="54"></path><path fill="#ff595e" d="M 796.27 440.86 Q 796.27 440.86 795.89 442.33 795.50 443.80 794.96 445.10 794.42 446.41 794.14 447.26 793.86 448.12 793.80 448.90 793.74 449.68 794.00 450.78 794.26 451.88 794.97 452.27 795.68 452.66 796.75 452.60 797.83 452.55 798.71 452.36 799.60 452.17 800.67 451.91 801.74 451.65 802.46 451.32 803.19 450.98 804.41 449.70 805.64 448.42 805.64 448.42 805.65 448.42 805.65 448.43 805.66 448.43 805.24 450.60 804.82 452.78 803.94 453.79 803.06 454.81 801.86 455.45 800.67 456.10 799.24 456.54 797.82 456.97 795.71 456.88 793.61 456.78 792.55 456.13 791.49 455.47 790.68 454.42 789.87 453.37 789.60 452.42 789.34 451.47 789.26 450.27 789.18 449.08 789.40 447.82 789.62 446.56 790.00 445.64 790.38 444.72 790.95 443.55 791.51 442.38 792.35 441.42 793.19 440.46 794.72 440.65 796.26 440.84 796.27 440.85 Z" data-drauu_index="55"></path><path fill="#ff595e" d="M 805.20 424.68 Q 805.20 424.68 806.39 425.65 807.58 426.63 807.88 427.86 808.18 429.08 808.44 430.41 808.70 431.74 809.28 434.37 809.87 436.99 810.41 439.21 810.95 441.44 811.46 443.33 811.97 445.22 812.40 447.73 812.84 450.24 812.27 452.59 811.70 454.94 811.70 454.94 811.70 454.94 811.70 454.94 811.70 454.94 811.70 454.94 811.70 454.94 811.70 454.94 811.70 454.95 811.70 454.95 811.70 454.95 811.69 454.95 811.69 454.95 811.69 454.95 811.69 454.95 811.69 454.95 811.69 454.95 811.69 454.95 811.69 454.95 811.69 454.95 811.68 454.95 811.68 454.95 811.68 454.95 811.68 454.94 811.68 454.94 811.68 454.94 811.68 454.94 811.69 454.94 811.69 454.94 811.70 454.94 811.70 454.94 811.70 454.94 811.70 454.94 811.70 454.94 811.70 454.94 811.70 454.94 811.70 454.94 811.70 454.94 811.70 454.95 811.70 454.95 811.70 454.95 811.69 454.95 811.69 454.95 811.69 454.95 811.69 454.95 811.69 454.95 811.69 454.95 811.69 454.95 811.69 454.95 811.69 454.95 811.68 454.95 811.68 454.95 811.68 454.95 811.68 454.94 811.68 454.94 811.68 454.94 811.68 454.94 810.47 453.01 809.26 451.07 808.58 448.74 807.90 446.42 807.28 444.47 806.66 442.53 806.06 440.25 805.46 437.97 804.86 435.28 804.26 432.59 804.01 431.23 803.76 429.87 803.60 428.55 803.44 427.22 804.31 425.95 805.18 424.68 805.19 424.68 Z" data-drauu_index="56"></path><path fill="#ff595e" d="M 805.19 442.51 Q 805.19 442.51 806.13 441.52 807.07 440.53 808.61 440.44 810.16 440.35 812.49 439.72 814.81 439.08 814.82 439.09 814.82 439.09 814.82 439.10 814.82 439.10 812.83 440.61 810.83 442.12 809.00 443.32 807.16 444.52 806.17 443.52 805.19 442.53 805.19 442.52 Z" data-drauu_index="57"></path><path fill="#ff595e" d="M 543.12 434.71 Q 543.12 434.71 543.88 433.97 544.64 433.24 545.74 432.84 546.85 432.45 547.76 432.42 548.68 432.39 549.91 432.15 551.15 431.91 552.10 432.06 553.05 432.21 554.58 432.44 556.12 432.68 556.97 432.77 557.82 432.85 558.58 432.86 559.34 432.87 560.12 432.87 560.90 432.88 561.89 432.88 562.88 432.89 563.69 433.12 564.50 433.35 566.29 434.31 568.08 435.28 568.08 435.29 568.08 435.29 568.08 435.30 568.08 435.30 566.22 436.67 564.36 438.05 563.34 437.86 562.33 437.67 561.58 437.67 560.83 437.67 560.07 437.67 559.30 437.67 558.45 437.66 557.60 437.65 556.79 437.59 555.98 437.53 554.97 437.28 553.96 437.03 552.68 436.85 551.40 436.66 550.07 436.86 548.74 437.06 547.95 437.01 547.16 436.97 545.93 437.23 544.69 437.50 543.78 437.17 542.87 436.84 542.99 435.78 543.11 434.72 543.11 434.72 Z" data-drauu_index="58"></path><path fill="#ff595e" d="M 514.67 470.39 Q 514.67 470.39 515.16 469.39 515.64 468.39 516.48 468.23 517.32 468.08 518.16 468.07 519.01 468.07 520.07 468.25 521.12 468.43 522.39 468.51 523.66 468.59 525.67 470.37 527.67 472.14 527.67 472.14 527.67 472.14 527.67 472.14 527.68 472.14 527.68 472.14 527.68 472.14 527.68 472.14 527.68 472.15 527.68 472.15 527.68 472.15 527.68 472.15 527.68 472.15 527.68 472.15 527.68 472.15 527.68 472.15 527.68 472.15 527.68 472.16 527.68 472.16 527.68 472.16 527.68 472.16 527.68 472.16 527.68 472.16 527.67 472.16 527.67 472.16 527.67 472.16 527.67 472.16 527.67 472.16 527.67 472.15 527.67 472.15 527.67 472.14 527.67 472.14 527.67 472.14 527.67 472.14 527.68 472.14 527.68 472.14 527.68 472.14 527.68 472.14 527.68 472.15 527.68 472.15 527.68 472.15 527.68 472.15 527.68 472.15 527.68 472.15 527.68 472.15 527.68 472.15 527.68 472.15 527.68 472.16 527.68 472.16 527.68 472.16 527.68 472.16 527.68 472.16 527.68 472.16 527.67 472.16 527.67 472.16 527.67 472.16 527.67 472.16 525.58 472.70 523.49 473.24 522.65 473.21 521.80 473.18 520.40 472.96 519.00 472.73 518.16 472.73 517.32 472.73 516.48 472.57 515.64 472.42 515.16 471.41 514.67 470.41 514.67 470.40 Z" data-drauu_index="59"></path><path fill="#ff595e" d="M 540.32 472.07 Q 540.32 472.07 539.87 471.30 539.42 470.53 539.87 469.87 540.33 469.20 541.38 468.40 542.43 467.60 543.28 467.17 544.12 466.75 544.96 466.70 545.80 466.64 547.45 466.80 549.11 466.96 550.46 467.24 551.80 467.52 553.05 467.78 554.31 468.04 555.11 468.14 555.92 468.23 556.40 467.59 556.87 466.94 557.90 466.55 558.93 466.15 560.13 466.25 561.33 466.35 562.13 466.60 562.93 466.85 564.51 467.12 566.09 467.39 567.06 467.47 568.04 467.55 569.54 467.80 571.04 468.04 572.84 469.70 574.65 471.36 574.64 471.36 574.64 471.36 574.63 471.37 574.63 471.37 573.03 471.95 571.44 472.53 570.36 472.29 569.27 472.06 567.85 472.00 566.43 471.94 565.13 471.66 563.84 471.38 562.69 471.23 561.54 471.09 560.38 470.66 559.22 470.22 558.52 471.08 557.82 471.93 557.06 472.21 556.30 472.50 555.31 472.45 554.31 472.40 553.16 472.13 552.00 471.85 550.87 471.59 549.73 471.32 548.44 471.09 547.15 470.86 546.16 470.74 545.17 470.63 544.60 471.16 544.03 471.69 542.95 472.34 541.87 472.98 541.10 472.53 540.33 472.08 540.32 472.08 Z" data-drauu_index="60"></path>
</svg>