<svg width="980" height="551" xmlns="http://www.w3.org/2000/svg" xmlns:xlink="http://www.w3.org/1999/xlink">
<ellipse fill="transparent" stroke="#ff595e" stroke-width="4" stroke-linecap="round" cx="728.82" cy="125.35" rx="12.65" ry="13.03" data-drauu_index="1"></ellipse><ellipse fill="transparent" stroke="#ff595e" stroke-width="4" stroke-linecap="round" cx="728.82" cy="279.83" rx="12.65" ry="12.27" data-drauu_index="2"></ellipse><ellipse fill="transparent" stroke="#ff595e" stroke-width="4" stroke-linecap="round" cx="729.59" cy="435.27" rx="12.65" ry="13.23" data-drauu_index="3"></ellipse><path fill="#ff595e" d="M 721.53 105.03 Q 721.53 105.03 720.61 104.29 719.69 103.56 719.70 103.45 719.72 103.34 719.88 103.10 720.04 102.86 720.25 102.67 720.46 102.47 720.71 102.33 720.96 102.19 721.24 102.12 721.52 102.05 721.80 102.04 722.09 102.03 722.37 102.10 722.65 102.16 722.91 102.29 723.17 102.42 723.38 102.60 723.60 102.79 723.77 103.02 723.94 103.26 724.05 103.52 724.15 103.79 724.19 104.07 724.23 104.36 724.20 104.64 724.18 104.93 724.08 105.20 723.98 105.47 724.02 104.44 724.06 103.40 724.39 104.50 724.71 105.59 724.20 107.71 723.68 109.83 723.68 109.83 723.67 109.83 723.67 109.84 723.66 109.84 721.93 108.04 720.19 106.25 719.96 104.79 719.72 103.34 719.88 103.10 720.04 102.86 720.25 102.67 720.46 102.47 720.71 102.33 720.96 102.19 721.24 102.12 721.52 102.05 721.80 102.04 722.09 102.03 722.37 102.10 722.65 102.16 722.91 102.29 723.17 102.42 723.38 102.60 723.60 102.79 723.77 103.02 723.94 103.26 724.05 103.52 724.15 103.79 724.19 104.07 724.23 104.36 724.20 104.64 724.18 104.93 724.08 105.20 723.98 105.47 723.91 105.55 723.83 105.63 722.69 105.33 721.55 105.04 721.54 105.03 Z" data-drauu_index="4"></path><path fill="#ff595e" d="M 721.55 104.26 Q 721.55 104.26 722.03 104.47 722.52 104.68 723.25 105.47 723.97 106.27 724.06 108.33 724.15 110.38 724.15 110.39 724.15 110.39 724.15 110.40 724.15 110.40 722.62 108.82 721.08 107.24 721.04 106.21 721.00 105.18 721.26 104.73 721.53 104.27 721.54 104.27 Z" data-drauu_index="5"></path><path fill="#ff595e" d="M 747.22 116.93 Q 747.22 116.93 747.09 118.18 746.95 119.43 743.97 119.86 740.99 120.29 740.99 120.29 740.99 120.28 740.99 120.28 740.99 120.27 742.27 118.32 743.55 116.38 744.42 115.83 745.28 115.28 746.25 116.09 747.22 116.91 747.22 116.92 Z" data-drauu_index="6"></path><path fill="#ff595e" d="M 746.07 141.08 Q 746.07 141.08 745.74 142.27 745.41 143.46 743.96 143.21 742.51 142.96 741.43 142.39 740.36 141.82 739.26 140.92 738.17 140.02 737.77 138.04 737.37 136.07 737.37 136.07 737.38 136.06 737.38 136.06 737.38 136.06 739.34 135.96 741.30 135.85 742.46 136.65 743.62 137.44 744.52 138.06 745.41 138.67 745.74 139.86 746.07 141.06 746.07 141.07 Z" data-drauu_index="7"></path><path fill="#ff595e" d="M 710.03 138.76 Q 710.03 138.76 710.21 137.28 710.39 135.81 713.11 135.32 715.83 134.83 715.83 134.84 715.84 134.84 715.84 134.84 715.84 134.85 715.35 136.47 714.86 138.09 713.81 139.02 712.77 139.96 711.40 139.37 710.04 138.78 710.04 138.77 Z" data-drauu_index="8"></path><path fill="#ff595e" d="M 731.90 249.55 Q 731.90 249.55 732.69 250.22 733.48 250.88 733.27 252.30 733.06 253.72 732.99 254.81 732.93 255.90 732.78 257.35 732.63 258.81 732.61 259.85 732.58 260.89 731.47 263.04 730.36 265.19 730.36 265.19 730.35 265.19 730.35 265.19 730.34 265.19 729.27 263.39 728.19 261.60 728.21 260.28 728.22 258.96 728.41 257.75 728.60 256.55 728.80 255.52 729.00 254.50 729.27 253.34 729.54 252.19 729.70 251.08 729.86 249.98 730.87 249.76 731.88 249.55 731.89 249.55 Z" data-drauu_index="9"></path><path fill="#ff595e" d="M 760.26 277.93 Q 760.26 277.93 759.79 279.20 759.31 280.47 758.13 280.80 756.94 281.13 755.79 281.24 754.64 281.34 753.40 281.36 752.16 281.37 751.03 281.20 749.91 281.03 748.58 280.78 747.26 280.54 745.22 279.77 743.19 279.01 743.19 279.00 743.19 279.00 743.19 278.99 743.19 278.99 745.84 277.82 748.48 276.64 749.90 276.70 751.32 276.76 752.60 276.76 753.87 276.76 754.92 276.79 755.97 276.81 757.04 276.53 758.11 276.24 759.18 277.08 760.25 277.91 760.25 277.92 Z" data-drauu_index="10"></path><path fill="#ff595e" d="M 748.75 307.06 Q 748.75 307.06 747.47 307.69 746.19 308.33 745.17 307.59 744.15 306.85 743.35 305.89 742.56 304.94 741.40 303.62 740.24 302.30 739.30 301.26 738.36 300.22 737.81 299.31 737.25 298.41 736.50 296.91 735.75 295.41 735.62 293.04 735.49 290.67 735.49 290.67 735.50 290.66 735.50 290.66 735.51 290.66 737.87 292.41 740.24 294.16 741.30 295.28 742.36 296.39 743.54 297.61 744.71 298.82 745.54 299.79 746.38 300.76 747.14 301.94 747.89 303.13 748.94 303.79 750.00 304.44 749.38 305.74 748.76 307.04 748.75 307.05 Z" data-drauu_index="11"></path><path fill="#ff595e" d="M 697.17 290.19 Q 697.17 290.19 697.17 290.19 697.17 290.18 697.17 290.18 697.17 290.17 697.17 290.18 Z" data-drauu_index="12"></path><path fill="#ff595e" d="M 695.80 290.80 Q 695.80 290.80 695.80 290.79 695.80 290.79 695.79 290.78 695.79 290.78 695.80 290.79 Z" data-drauu_index="13"></path><path fill="#ff595e" d="M 688.96 290.94 Q 688.96 290.94 689.75 289.67 690.54 288.39 691.53 288.54 692.53 288.69 693.68 288.67 694.83 288.65 695.98 288.50 697.13 288.35 698.66 287.92 700.20 287.49 701.45 287.27 702.70 287.06 703.95 286.74 705.20 286.42 706.53 286.08 707.86 285.74 709.05 285.45 710.23 285.17 711.60 284.79 712.96 284.42 715.01 284.72 717.06 285.01 717.06 285.01 717.06 285.02 717.06 285.02 717.06 285.03 716.03 286.62 714.99 288.22 713.99 289.01 712.99 289.80 711.85 290.34 710.71 290.88 709.42 291.32 708.13 291.76 706.83 292.18 705.52 292.61 704.06 292.97 702.60 293.33 701.55 293.54 700.49 293.75 699.10 294.10 697.71 294.45 696.69 294.62 695.67 294.78 694.58 294.77 693.49 294.77 692.25 294.72 691.02 294.67 689.86 294.31 688.69 293.95 688.82 292.45 688.95 290.96 688.95 290.95 Z" data-drauu_index="14"></path><path fill="#ff595e" d="M 728.65 247.19 Q 728.65 247.19 728.65 247.19 728.66 247.19 728.66 247.19 728.67 247.20 728.66 247.19 Z" data-drauu_index="15"></path><path fill="#ff595e" d="M 728.45 244.56 Q 728.45 244.56 730.02 244.60 731.60 244.64 732.02 245.87 732.44 247.09 732.03 249.12 731.61 251.15 731.61 251.15 731.61 251.15 731.60 251.16 731.60 251.16 729.76 250.33 727.93 249.51 727.26 248.32 726.60 247.14 727.51 245.86 728.43 244.57 728.44 244.57 Z" data-drauu_index="16"></path><path fill="#ff595e" d="M 738.41 246.88 Q 738.41 246.88 738.12 248.23 737.84 249.57 735.29 249.51 732.74 249.45 732.74 249.45 732.74 249.44 732.74 249.44 732.73 249.43 733.58 247.84 734.42 246.24 735.37 245.64 736.32 245.04 737.36 245.95 738.40 246.86 738.40 246.87 Z" data-drauu_index="17"></path><path fill="#ff595e" d="M 560.15 459.61 Q 560.15 459.61 559.72 458.74 559.29 457.87 560.27 457.41 561.24 456.94 562.26 456.92 563.27 456.89 564.72 457.03 566.17 457.17 567.27 457.21 568.37 457.25 569.42 457.25 570.46 457.26 571.60 457.26 572.73 457.26 573.96 457.42 575.19 457.58 576.20 457.76 577.22 457.95 578.33 458.32 579.45 458.68 580.77 458.86 582.08 459.04 583.11 459.09 584.14 459.13 585.50 459.30 586.86 459.47 588.26 459.65 589.66 459.82 591.11 459.97 592.56 460.11 593.77 460.29 594.98 460.48 596.21 460.65 597.43 460.83 598.67 460.85 599.90 460.88 601.44 460.85 602.98 460.82 604.57 460.82 606.15 460.82 607.69 460.81 609.23 460.80 610.92 460.80 612.62 460.80 614.27 460.63 615.93 460.47 617.66 460.43 619.39 460.40 620.91 460.12 622.43 459.84 624.15 459.46 625.86 459.08 627.58 458.68 629.30 458.29 631.02 457.97 632.73 457.66 634.12 457.35 635.52 457.03 637.02 456.64 638.53 456.25 640.22 455.85 641.92 455.45 643.55 454.90 645.18 454.36 646.75 453.72 648.32 453.09 649.38 452.78 650.44 452.48 652.36 451.88 654.29 451.29 655.29 451.06 656.29 450.84 657.93 450.45 659.58 450.05 661.29 449.74 663.01 449.42 664.21 449.13 665.42 448.83 666.56 448.48 667.71 448.13 669.13 447.60 670.56 447.06 671.98 446.57 673.41 446.08 674.45 445.87 675.48 445.66 676.94 445.33 678.39 445.00 679.56 444.65 680.74 444.29 682.25 443.97 683.76 443.65 684.69 443.25 685.61 442.84 686.98 442.41 688.35 441.98 689.69 441.59 691.03 441.20 692.39 440.83 693.75 440.45 695.09 440.07 696.44 439.69 697.40 439.35 698.36 439.00 699.31 438.63 700.27 438.26 701.22 437.88 702.18 437.50 703.46 436.79 704.74 436.08 705.68 435.61 706.63 435.15 707.55 434.67 708.47 434.19 709.52 433.62 710.58 433.06 712.59 432.90 714.60 432.75 714.60 432.75 714.60 432.76 714.61 432.76 714.61 432.77 714.03 434.23 713.45 435.69 712.96 436.61 712.47 437.54 711.49 438.28 710.52 439.03 709.28 439.66 708.04 440.28 706.84 440.99 705.64 441.69 704.47 442.28 703.30 442.87 702.32 443.26 701.34 443.65 700.29 444.05 699.24 444.45 697.94 444.85 696.64 445.25 695.27 445.64 693.90 446.03 692.52 446.39 691.13 446.76 689.86 447.14 688.59 447.51 687.48 447.91 686.37 448.30 684.95 448.68 683.53 449.05 682.29 449.44 681.05 449.83 679.55 450.22 678.04 450.61 676.73 450.84 675.41 451.07 673.81 451.62 672.21 452.17 670.76 452.72 669.32 453.26 667.99 453.65 666.66 454.04 665.12 454.38 663.58 454.72 662.27 454.96 660.95 455.19 659.20 455.60 657.46 456.01 655.69 456.43 653.93 456.86 652.90 457.21 651.87 457.57 650.17 458.14 648.46 458.72 646.75 459.27 645.03 459.83 643.23 460.36 641.44 460.90 639.82 461.25 638.19 461.60 636.59 461.94 634.99 462.28 633.50 462.48 632.01 462.67 630.35 463.04 628.69 463.42 626.92 463.77 625.15 464.13 623.26 464.45 621.37 464.77 619.53 464.89 617.69 465.00 616.19 465.06 614.69 465.11 612.84 465.22 610.99 465.34 609.34 465.33 607.69 465.33 606.14 465.32 604.58 465.31 602.92 465.30 601.26 465.30 599.90 465.25 598.53 465.19 597.05 465.07 595.57 464.95 594.21 464.70 592.85 464.46 591.84 464.18 590.84 463.91 589.34 463.80 587.84 463.69 586.39 463.50 584.93 463.31 583.73 463.18 582.54 463.05 580.99 462.84 579.45 462.62 578.39 462.35 577.33 462.08 576.09 461.80 574.85 461.52 573.79 461.36 572.72 461.21 571.59 461.21 570.45 461.20 569.37 461.20 568.29 461.19 567.26 461.16 566.24 461.12 565.07 460.97 563.91 460.81 562.90 460.65 561.90 460.48 561.03 460.05 560.16 459.62 560.15 459.62 Z" data-drauu_index="18"></path><path fill="#ff595e" d="M 735.33 406.34 Q 735.33 406.34 734.34 406.30 733.34 406.26 733.01 405.76 732.68 405.25 732.66 404.98 732.64 404.70 732.69 404.42 732.74 404.15 732.86 403.89 732.97 403.64 733.14 403.42 733.31 403.19 733.53 403.02 733.75 402.85 734.01 402.73 734.26 402.62 734.54 402.57 734.81 402.51 735.09 402.53 735.37 402.55 735.64 402.63 735.90 402.71 736.14 402.85 736.38 403.00 736.58 403.20 736.78 403.39 736.92 403.63 737.07 403.87 737.15 404.14 737.24 404.40 736.92 405.55 736.61 406.69 736.19 407.68 735.78 408.66 735.44 409.80 735.10 410.95 734.91 412.00 734.72 413.05 734.78 414.08 734.85 415.10 733.79 417.39 732.73 419.67 732.73 419.67 732.72 419.66 732.72 419.66 732.72 419.66 731.52 417.64 730.33 415.62 730.12 414.11 729.90 412.61 730.14 411.45 730.39 410.30 730.80 409.16 731.22 408.01 731.95 406.63 732.68 405.25 732.66 404.98 732.64 404.70 732.69 404.42 732.74 404.15 732.86 403.89 732.97 403.64 733.14 403.42 733.31 403.19 733.53 403.02 733.75 402.85 734.01 402.73 734.26 402.62 734.54 402.57 734.81 402.51 735.09 402.53 735.37 402.55 735.64 402.63 735.90 402.71 736.14 402.85 736.38 403.00 736.58 403.20 736.78 403.39 736.92 403.63 737.07 403.87 737.15 404.14 737.24 404.40 737.06 404.74 736.89 405.08 736.12 405.71 735.35 406.33 735.34 406.33 Z" data-drauu_index="19"></path><path fill="#ff595e" d="M 754.12 432.03 Q 754.12 432.03 753.68 433.44 753.24 434.85 751.85 435.26 750.47 435.67 749.23 435.90 747.99 436.13 746.05 436.12 744.12 436.12 741.82 435.18 739.52 434.24 739.52 434.23 739.52 434.23 739.52 434.22 739.52 434.22 742.33 432.63 745.13 431.04 746.56 430.59 747.99 430.15 749.13 429.79 750.27 429.44 751.75 429.31 753.24 429.19 753.68 430.60 754.12 432.01 754.12 432.02 Z" data-drauu_index="20"></path><path fill="#ff595e" d="M 748.37 463.08 Q 748.37 463.08 747.27 464.12 746.18 465.17 744.82 464.28 743.47 463.39 742.36 462.38 741.26 461.38 740.11 459.72 738.96 458.07 738.37 457.19 737.78 456.32 737.20 455.27 736.62 454.22 735.85 452.36 735.09 450.49 734.62 448.98 734.15 447.46 734.16 447.46 734.16 447.46 734.16 447.45 734.17 447.45 735.74 448.16 737.31 448.86 738.17 449.48 739.02 450.10 739.75 450.89 740.48 451.68 741.13 452.50 741.79 453.31 743.06 454.96 744.34 456.60 745.04 457.48 745.74 458.36 746.83 459.22 747.92 460.08 748.14 461.57 748.37 463.06 748.37 463.07 Z" data-drauu_index="21"></path><path fill="#ff595e" d="M 732.66 389.46 Q 732.66 389.46 733.72 389.49 734.77 389.53 735.02 390.92 735.28 392.32 735.44 393.75 735.61 395.19 735.78 396.30 735.94 397.41 736.37 398.76 736.80 400.12 737.38 402.29 737.95 404.46 737.95 404.46 737.95 404.47 737.94 404.47 737.94 404.47 735.77 402.45 733.60 400.43 732.96 399.32 732.31 398.21 732.07 396.69 731.83 395.18 731.67 394.18 731.52 393.18 731.47 392.18 731.42 391.17 732.03 390.32 732.64 389.47 732.65 389.47 Z" data-drauu_index="22"></path><path fill="#ff595e" d="M 748.37 405.58 Q 748.37 405.58 747.35 406.58 746.33 407.58 745.26 407.51 744.18 407.44 743.14 407.43 742.09 407.42 740.18 406.83 738.27 406.24 738.27 406.23 738.27 406.23 738.27 406.22 738.27 406.22 740.03 404.90 741.79 403.58 743.05 403.28 744.32 402.99 745.60 403.05 746.89 403.12 747.63 404.34 748.37 405.56 748.37 405.57 Z" data-drauu_index="23"></path><path fill="#ff595e" d="M 739.55 403.66 Q 739.55 403.66 737.95 403.09 736.34 402.52 736.34 402.51 736.34 402.51 736.34 402.50 736.34 402.50 737.95 403.07 739.56 403.64 739.55 403.65 Z" data-drauu_index="24"></path><path fill="#ff595e" d="M 754.11 431.24 Q 754.11 431.24 753.64 429.97 753.18 428.69 753.82 427.72 754.47 426.75 754.91 425.69 755.34 424.63 756.12 423.70 756.91 422.77 758.76 422.41 760.62 422.05 760.62 422.05 760.62 422.06 760.62 422.06 760.63 422.07 759.96 424.62 759.29 427.17 758.90 428.14 758.51 429.11 757.67 430.36 756.83 431.61 755.48 431.43 754.13 431.26 754.12 431.25 Z" data-drauu_index="25"></path><path fill="#ff595e" d="M 756.42 431.26 Q 756.42 431.26 756.09 431.84 755.76 432.42 754.82 431.94 753.88 431.46 754.95 431.72 756.02 431.99 756.02 431.99 756.02 431.98 756.02 431.98 756.02 431.98 756.03 431.98 756.03 431.98 756.03 431.98 756.03 431.98 756.03 431.98 756.03 431.98 756.03 431.98 756.03 431.98 756.03 431.97 756.03 431.97 756.03 431.97 756.04 431.97 756.04 431.98 756.04 431.98 756.04 431.98 756.04 431.98 756.04 431.98 756.04 431.98 756.04 431.98 756.04 431.98 756.04 431.98 756.04 431.98 756.04 431.98 756.03 431.98 756.03 431.99 756.02 431.99 756.02 431.99 756.02 431.98 756.02 431.98 756.02 431.98 756.03 431.98 756.03 431.98 756.03 431.98 756.03 431.98 756.03 431.98 756.03 431.98 756.03 431.98 756.03 431.98 756.03 431.97 756.03 431.97 756.03 431.97 756.04 431.97 756.04 431.98 756.04 431.98 756.04 431.98 756.04 431.98 756.04 431.98 756.04 431.98 756.04 431.98 756.04 431.98 756.04 431.98 756.04 431.98 755.90 431.03 755.76 430.08 756.09 430.66 756.42 431.24 756.42 431.25 Z" data-drauu_index="26"></path><path fill="#ff595e" d="M 752.59 430.48 Q 752.59 430.48 753.92 430.03 755.26 429.58 756.03 430.37 756.80 431.17 757.00 432.74 757.19 434.30 757.18 434.31 757.18 434.31 757.18 434.31 757.17 434.32 754.43 433.73 751.68 433.15 752.13 431.82 752.58 430.49 752.59 430.48 Z" data-drauu_index="27"></path><path fill="#ff595e" d="M 732.26 387.93 Q 732.26 387.93 731.25 387.49 730.23 387.05 729.51 386.19 728.78 385.32 728.67 384.88 728.55 384.44 728.38 384.34 728.22 384.23 728.08 384.10 727.94 383.96 727.84 383.79 727.74 383.62 727.68 383.43 727.62 383.25 727.61 383.05 727.60 382.86 727.63 382.66 727.67 382.47 727.75 382.29 727.83 382.12 727.95 381.96 728.07 381.81 728.23 381.69 728.38 381.57 728.56 381.49 728.74 381.41 728.93 381.37 729.12 381.34 729.32 381.35 729.51 381.36 729.70 381.42 729.89 381.48 730.27 382.52 730.65 383.56 730.97 384.62 731.29 385.68 731.99 386.50 732.69 387.31 733.60 388.19 734.50 389.07 734.50 389.08 734.50 389.08 734.50 389.09 734.50 389.09 733.26 388.49 732.02 387.89 731.43 386.98 730.83 386.07 729.69 385.25 728.55 384.44 728.38 384.34 728.22 384.23 728.08 384.10 727.94 383.96 727.84 383.79 727.74 383.62 727.68 383.44 727.62 383.25 727.61 383.05 727.60 382.86 727.63 382.66 727.67 382.47 727.75 382.29 727.83 382.12 727.95 381.96 728.07 381.81 728.23 381.69 728.38 381.57 728.56 381.49 728.74 381.41 728.93 381.37 729.12 381.34 729.32 381.35 729.51 381.36 729.70 381.42 729.89 381.48 730.42 381.71 730.94 381.94 731.73 382.71 732.51 383.49 733.13 384.29 733.75 385.09 734.03 386.07 734.31 387.05 733.30 387.49 732.28 387.93 732.27 387.93 Z" data-drauu_index="28"></path><path fill="#ff595e" d="M 735.33 389.86 Q 735.33 389.86 734.31 390.22 733.28 390.58 732.75 389.68 732.22 388.77 732.39 387.70 732.56 386.62 733.13 385.68 733.70 384.74 734.63 384.02 735.56 383.30 736.80 382.68 738.04 382.05 738.13 382.04 738.22 382.02 738.47 382.03 738.72 382.04 738.97 382.11 739.21 382.18 739.43 382.30 739.64 382.43 739.83 382.60 740.01 382.78 740.14 382.99 740.28 383.20 740.36 383.44 740.44 383.68 740.46 383.93 740.48 384.18 740.44 384.43 740.40 384.68 740.30 384.91 740.20 385.15 740.05 385.35 739.90 385.55 739.70 385.71 739.51 385.87 739.28 385.98 739.05 386.08 738.80 386.14 738.56 386.19 738.27 387.56 737.99 388.94 737.27 389.94 736.55 390.95 735.89 391.77 735.24 392.58 735.15 391.83 735.07 391.08 735.07 391.08 735.07 391.08 735.07 391.08 735.07 391.08 735.06 391.08 735.06 391.08 735.06 391.08 735.06 391.08 735.06 391.08 735.06 391.08 735.06 391.08 735.06 391.08 735.06 391.08 735.05 391.08 735.05 391.08 735.05 391.08 735.05 391.08 735.05 391.07 735.05 391.07 735.05 391.07 735.05 391.07 735.05 391.07 735.05 391.07 735.05 391.07 735.05 391.07 735.05 391.07 735.06 391.07 735.06 391.07 735.07 391.07 735.07 391.08 735.07 391.08 735.07 391.08 735.07 391.08 735.07 391.08 735.06 391.08 735.06 391.08 735.06 391.08 735.06 391.08 735.06 391.08 735.06 391.08 735.06 391.08 735.06 391.08 735.06 391.08 735.05 391.08 735.05 391.08 735.05 391.08 735.05 391.08 735.05 391.07 735.05 391.07 735.05 391.07 735.05 391.07 735.05 391.07 735.05 391.07 735.05 391.07 735.05 391.07 735.05 391.07 733.16 390.37 731.26 389.66 732.22 388.46 733.17 387.26 733.96 386.40 734.74 385.54 735.58 384.34 736.42 383.13 737.32 382.57 738.22 382.02 738.47 382.03 738.72 382.04 738.96 382.11 739.21 382.18 739.43 382.30 739.64 382.43 739.83 382.60 740.01 382.78 740.14 382.99 740.28 383.20 740.36 383.44 740.44 383.68 740.46 383.93 740.48 384.18 740.44 384.43 740.40 384.68 740.30 384.91 740.20 385.15 740.05 385.35 739.90 385.55 739.70 385.71 739.51 385.87 739.28 385.98 739.05 386.08 738.80 386.14 738.56 386.19 738.25 386.46 737.95 386.74 737.01 387.27 736.07 387.79 735.71 388.82 735.34 389.84 735.34 389.85 Z" data-drauu_index="29"></path><path fill="#ff595e" d="M 747.98 461.52 Q 747.98 461.52 748.48 460.32 748.97 459.12 749.99 458.87 751.00 458.63 752.50 458.33 754.00 458.03 755.24 457.81 756.47 457.60 758.64 458.60 760.82 459.61 760.82 459.61 760.82 459.62 760.82 459.62 760.82 459.63 758.51 461.07 756.20 462.51 755.22 462.70 754.23 462.89 753.17 463.00 752.11 463.10 751.10 463.08 750.09 463.06 749.04 462.30 747.99 461.54 747.99 461.53 Z" data-drauu_index="30"></path><path fill="#ff595e" d="M 747.23 460.76 Q 747.23 460.76 748.74 461.47 750.25 462.18 750.49 463.57 750.73 464.96 750.13 466.81 749.53 468.66 749.53 468.66 749.53 468.66 749.53 468.66 749.53 468.66 749.53 468.66 749.53 468.66 749.53 468.66 749.53 468.67 749.52 468.67 749.52 468.67 749.52 468.67 749.52 468.67 749.52 468.67 749.52 468.67 749.52 468.67 749.52 468.67 749.52 468.67 749.51 468.67 749.51 468.67 749.51 468.67 749.51 468.67 749.51 468.67 749.51 468.67 749.51 468.67 749.51 468.66 749.51 468.66 749.51 468.66 749.52 468.66 749.52 468.66 749.53 468.66 749.53 468.66 749.53 468.66 749.53 468.66 749.53 468.66 749.53 468.66 749.53 468.66 749.53 468.66 749.53 468.67 749.52 468.67 749.52 468.67 749.52 468.67 749.52 468.67 749.52 468.67 749.52 468.67 749.52 468.67 749.52 468.67 749.52 468.67 749.51 468.67 749.51 468.67 749.51 468.67 749.51 468.67 749.51 468.67 749.51 468.67 749.51 468.67 749.51 468.66 749.51 468.66 747.54 467.41 745.57 466.15 745.32 464.74 745.07 463.32 746.14 462.05 747.21 460.77 747.22 460.77 Z" data-drauu_index="31"></path><path fill="#ff595e" d="M 561.30 457.71 Q 561.30 457.71 560.44 458.80 559.58 459.89 558.14 459.67 556.71 459.44 555.03 459.21 553.35 458.98 552.22 458.88 551.09 458.79 549.00 456.80 546.91 454.82 546.91 454.81 546.92 454.81 546.92 454.81 546.92 454.80 548.76 454.43 550.59 454.05 551.85 454.17 553.11 454.28 554.56 454.38 556.01 454.48 557.18 454.68 558.34 454.88 559.36 454.97 560.38 455.06 560.84 456.38 561.31 457.69 561.30 457.70 Z" data-drauu_index="32"></path><path fill="#ff595e" d="M 560.16 458.09 Q 560.16 458.09 559.69 459.37 559.22 460.65 558.19 461.09 557.15 461.52 556.19 461.89 555.22 462.26 552.18 462.39 549.14 462.52 549.14 462.52 549.13 462.51 549.13 462.51 549.12 462.51 550.11 460.85 551.09 459.19 552.25 458.56 553.42 457.93 554.52 457.53 555.62 457.13 556.81 456.76 558.00 456.40 559.08 457.24 560.15 458.07 560.15 458.08 Z" data-drauu_index="33"></path>
</svg>