<svg width="980" height="551" xmlns="http://www.w3.org/2000/svg" xmlns:xlink="http://www.w3.org/1999/xlink">
<ellipse fill="transparent" stroke="#ffffff" stroke-width="4" stroke-linecap="round" cx="211.90" cy="156.78" rx="2.11" ry="2.68" data-drauu_index="5"></ellipse><ellipse fill="transparent" stroke="#ffffff" stroke-width="4" stroke-linecap="round" cx="209.79" cy="301.30" rx="1.92" ry="1.53" data-drauu_index="6"></ellipse><ellipse fill="transparent" stroke="#ffffff" stroke-width="4" stroke-linecap="round" cx="208.45" cy="442.18" rx="1.73" ry="1.73" data-drauu_index="7"></ellipse><ellipse fill="transparent" stroke="#ffffff" stroke-width="4" stroke-linecap="round" cx="690.68" cy="152.38" rx="1.73" ry="2.49" data-drauu_index="10"></ellipse><line fill="transparent" stroke="#ffffff" stroke-width="4" stroke-linecap="round" x1="213.24" y1="157.17" x2="260.00" y2="156.78" data-drauu_index="15"></line><line fill="transparent" stroke="#ffffff" stroke-width="4" stroke-linecap="round" x1="208.64" y1="157.17" x2="164.17" y2="157.55" data-drauu_index="16"></line><line fill="transparent" stroke="#ffffff" stroke-width="4" stroke-linecap="round" x1="212.85" y1="299.77" x2="258.47" y2="300.53" data-drauu_index="17"></line><g data-drauu_index="19"><defs><marker id="eda0ba13-d569-f897-3d93-324502053dbf" viewBox="0 -5 10 10" refX="5" refY="0" markerWidth="4" markerHeight="4" orient="auto"><path fill="#ffffff" d="M0,-5L10,0L0,5"></path></marker></defs><line fill="transparent" stroke="#ffffff" stroke-width="4" stroke-linecap="round" x1="206.72" y1="301.30" x2="129.29" y2="300.92" marker-end="url(#eda0ba13-d569-f897-3d93-324502053dbf)"></line></g><g data-drauu_index="20"><defs><marker id="d0058fbe-fa8c-64a7-d241-cfb7bcbd5c9a" viewBox="0 -5 10 10" refX="5" refY="0" markerWidth="4" markerHeight="4" orient="auto"><path fill="#ffffff" d="M0,-5L10,0L0,5"></path></marker></defs><line fill="transparent" stroke="#ffffff" stroke-width="4" stroke-linecap="round" x1="260.00" y1="299.38" x2="290.29" y2="269.87" marker-end="url(#d0058fbe-fa8c-64a7-d241-cfb7bcbd5c9a)"></line></g><g data-drauu_index="21"><defs><marker id="313cdb60-45e3-2d97-2ddd-4fe7cc7f9d88" viewBox="0 -5 10 10" refX="5" refY="0" markerWidth="4" markerHeight="4" orient="auto"><path fill="#ffffff" d="M0,-5L10,0L0,5"></path></marker></defs><line fill="transparent" stroke="#ffffff" stroke-width="4" stroke-linecap="round" x1="260.39" y1="302.07" x2="292.97" y2="329.67" marker-end="url(#313cdb60-45e3-2d97-2ddd-4fe7cc7f9d88)"></line></g><g data-drauu_index="22"><defs><marker id="a9679832-b9ea-9409-479d-52066e33d8c0" viewBox="0 -5 10 10" refX="5" refY="0" markerWidth="4" markerHeight="4" orient="auto"><path fill="#ffffff" d="M0,-5L10,0L0,5"></path></marker></defs><line fill="transparent" stroke="#ffffff" stroke-width="4" stroke-linecap="round" x1="207.87" y1="442.75" x2="77.54" y2="442.75" marker-end="url(#a9679832-b9ea-9409-479d-52066e33d8c0)"></line></g><line fill="transparent" stroke="#ffffff" stroke-width="4" stroke-linecap="round" x1="210.55" y1="441.22" x2="258.85" y2="440.83" data-drauu_index="23"></line><line fill="transparent" stroke="#ffffff" stroke-width="4" stroke-linecap="round" x1="268.05" y1="427.42" x2="257.70" y2="440.45" data-drauu_index="24"></line><g data-drauu_index="28"><defs><marker id="d0df9316-1928-d38d-2d7b-2b99a7c787c9" viewBox="0 -5 10 10" refX="5" refY="0" markerWidth="4" markerHeight="4" orient="auto"><path fill="#ffffff" d="M0,-5L10,0L0,5"></path></marker></defs><line fill="transparent" stroke="#ffffff" stroke-width="4" stroke-linecap="round" x1="279.17" y1="412.47" x2="267.29" y2="428.18" marker-end="url(#d0df9316-1928-d38d-2d7b-2b99a7c787c9)"></line></g><g data-drauu_index="29"><defs><marker id="1199e619-8c6f-ad4a-93f8-0a0294d3c618" viewBox="0 -5 10 10" refX="5" refY="0" markerWidth="4" markerHeight="4" orient="auto"><path fill="#ffffff" d="M0,-5L10,0L0,5"></path></marker></defs><line fill="transparent" stroke="#ffffff" stroke-width="4" stroke-linecap="round" x1="259.62" y1="441.60" x2="345.87" y2="514.05" marker-end="url(#1199e619-8c6f-ad4a-93f8-0a0294d3c618)"></line></g><line fill="transparent" stroke="#ffffff" stroke-width="4" stroke-linecap="round" x1="642.57" y1="152.57" x2="689.34" y2="152.57" data-drauu_index="30"></line><line fill="transparent" stroke="#ffffff" stroke-width="4" stroke-linecap="round" x1="693.17" y1="151.80" x2="734.19" y2="151.80" data-drauu_index="31"></line><line fill="transparent" stroke="#ffffff" stroke-width="3" stroke-linecap="round" x1="736.49" y1="151.80" x2="743.77" y2="151.03" data-drauu_index="32"></line><line fill="transparent" stroke="#ffffff" stroke-width="3" stroke-linecap="round" x1="734.57" y1="149.12" x2="738.40" y2="142.60" data-drauu_index="33"></line><line fill="transparent" stroke="#ffffff" stroke-width="3" stroke-linecap="round" x1="734.57" y1="149.12" x2="729.59" y2="144.52" data-drauu_index="34"></line><line fill="transparent" stroke="#ffffff" stroke-width="3" stroke-linecap="round" x1="735.34" y1="151.03" x2="730.35" y2="159.47" data-drauu_index="35"></line><line fill="transparent" stroke="#ffffff" stroke-width="3" stroke-linecap="round" x1="736.49" y1="150.65" x2="739.94" y2="158.70" data-drauu_index="36"></line><g data-drauu_index="48"><defs><marker id="ea759d0d-9169-d75f-4fac-1d3d7132fb09" viewBox="0 -5 10 10" refX="5" refY="0" markerWidth="4" markerHeight="4" orient="auto"><path fill="#ffffff" d="M0,-5L10,0L0,5"></path></marker></defs><line fill="transparent" stroke="#ffffff" stroke-width="5" stroke-linecap="round" x1="582.39" y1="294.78" x2="720.77" y2="293.63" marker-end="url(#ea759d0d-9169-d75f-4fac-1d3d7132fb09)"></line></g><g data-drauu_index="49"><defs><marker id="9405dec3-f48f-3cac-489b-eebb9f65c678" viewBox="0 -5 10 10" refX="5" refY="0" markerWidth="4" markerHeight="4" orient="auto"><path fill="#ffffff" d="M0,-5L10,0L0,5"></path></marker></defs><line fill="transparent" stroke="#ffffff" stroke-width="3" stroke-linecap="round" x1="726.52" y1="292.48" x2="708.89" y2="239.20" marker-end="url(#9405dec3-f48f-3cac-489b-eebb9f65c678)"></line></g><g data-drauu_index="50"><defs><marker id="2ba758a8-f74b-7f26-8863-f6bd4144c43a" viewBox="0 -5 10 10" refX="5" refY="0" markerWidth="4" markerHeight="4" orient="auto"><path fill="#ffffff" d="M0,-5L10,0L0,5"></path></marker></defs><line fill="transparent" stroke="#ffffff" stroke-width="3" stroke-linecap="round" x1="711.57" y1="240.73" x2="718.85" y2="264.12" marker-end="url(#2ba758a8-f74b-7f26-8863-f6bd4144c43a)"></line></g><g data-drauu_index="51"><defs><marker id="bc7c6071-f926-ef3b-06ef-ef89320a5929" viewBox="0 -5 10 10" refX="5" refY="0" markerWidth="4" markerHeight="4" orient="auto"><path fill="#ffffff" d="M0,-5L10,0L0,5"></path></marker></defs><line fill="transparent" stroke="#ffffff" stroke-width="3" stroke-linecap="round" x1="728.44" y1="291.33" x2="761.79" y2="242.27" marker-end="url(#bc7c6071-f926-ef3b-06ef-ef89320a5929)"></line></g><g data-drauu_index="52"><defs><marker id="1a3333e7-99c0-7566-004e-7edf5cc85712" viewBox="0 -5 10 10" refX="5" refY="0" markerWidth="4" markerHeight="4" orient="auto"><path fill="#ffffff" d="M0,-5L10,0L0,5"></path></marker></defs><line fill="transparent" stroke="#ffffff" stroke-width="3" stroke-linecap="round" x1="758.72" y1="245.72" x2="744.92" y2="266.42" marker-end="url(#1a3333e7-99c0-7566-004e-7edf5cc85712)"></line></g><g data-drauu_index="53"><defs><marker id="4a218885-3ca1-489d-b4bd-e6279b1275f7" viewBox="0 -5 10 10" refX="5" refY="0" markerWidth="4" markerHeight="4" orient="auto"><path fill="#ffffff" d="M0,-5L10,0L0,5"></path></marker></defs><line fill="transparent" stroke="#ffffff" stroke-width="3" stroke-linecap="round" x1="733.42" y1="293.25" x2="779.42" y2="293.63" marker-end="url(#4a218885-3ca1-489d-b4bd-e6279b1275f7)"></line></g><g data-drauu_index="54"><defs><marker id="5df22782-bea1-460d-82b5-864520bb33e7" viewBox="0 -5 10 10" refX="5" refY="0" markerWidth="4" markerHeight="4" orient="auto"><path fill="#ffffff" d="M0,-5L10,0L0,5"></path></marker></defs><line fill="transparent" stroke="#ffffff" stroke-width="3" stroke-linecap="round" x1="777.89" y1="295.17" x2="758.34" y2="293.63" marker-end="url(#5df22782-bea1-460d-82b5-864520bb33e7)"></line></g><g data-drauu_index="55"><defs><marker id="b0322dd6-3e82-e0d1-b555-350ab54c5ac9" viewBox="0 -5 10 10" refX="5" refY="0" markerWidth="4" markerHeight="4" orient="auto"><path fill="#ffffff" d="M0,-5L10,0L0,5"></path></marker></defs><line fill="transparent" stroke="#ffffff" stroke-width="3" stroke-linecap="round" x1="730.74" y1="293.25" x2="747.22" y2="339.25" marker-end="url(#b0322dd6-3e82-e0d1-b555-350ab54c5ac9)"></line></g><g data-drauu_index="56"><defs><marker id="c7fe4f01-1b26-b958-0050-dc2922bceb70" viewBox="0 -5 10 10" refX="5" refY="0" markerWidth="4" markerHeight="4" orient="auto"><path fill="#ffffff" d="M0,-5L10,0L0,5"></path></marker></defs><line fill="transparent" stroke="#ffffff" stroke-width="3" stroke-linecap="round" x1="747.60" y1="337.72" x2="739.17" y2="317.78" marker-end="url(#c7fe4f01-1b26-b958-0050-dc2922bceb70)"></line></g><g data-drauu_index="57"><defs><marker id="8961973e-2471-5d75-c484-1fea876ad3b3" viewBox="0 -5 10 10" refX="5" refY="0" markerWidth="4" markerHeight="4" orient="auto"><path fill="#ffffff" d="M0,-5L10,0L0,5"></path></marker></defs><line fill="transparent" stroke="#ffffff" stroke-width="3" stroke-linecap="round" x1="728.44" y1="295.55" x2="705.05" y2="335.42" marker-end="url(#8961973e-2471-5d75-c484-1fea876ad3b3)"></line></g><g data-drauu_index="58"><defs><marker id="b7b4bfe9-676b-2afd-40d4-e7cf97b1dc4e" viewBox="0 -5 10 10" refX="5" refY="0" markerWidth="4" markerHeight="4" orient="auto"><path fill="#ffffff" d="M0,-5L10,0L0,5"></path></marker></defs><line fill="transparent" stroke="#ffffff" stroke-width="3" stroke-linecap="round" x1="706.59" y1="332.35" x2="715.79" y2="315.48" marker-end="url(#b7b4bfe9-676b-2afd-40d4-e7cf97b1dc4e)"></line></g><path fill="#ffffff" d="M 580.09 260.29 Q 580.09 260.29 580.14 261.07 580.18 261.85 579.55 262.59 578.92 263.32 578.96 264.09 579.00 264.86 579.14 266.03 579.27 267.20 579.98 268.22 580.69 269.24 581.14 269.94 581.58 270.64 582.11 271.52 582.64 272.40 582.87 273.13 583.09 273.87 582.99 274.77 582.88 275.66 582.46 276.47 582.04 277.27 581.55 278.26 581.05 279.25 580.69 280.32 580.33 281.38 580.36 282.29 580.40 283.20 581.06 283.76 581.72 284.32 582.58 284.96 583.44 285.60 584.05 286.88 584.66 288.17 584.71 289.02 584.76 289.87 584.43 290.87 584.10 291.87 583.53 292.70 582.97 293.54 582.62 294.38 582.27 295.23 582.03 296.30 581.79 297.37 581.75 298.22 581.70 299.08 582.41 299.88 583.12 300.68 583.80 301.30 584.48 301.92 585.06 302.61 585.65 303.31 585.97 304.10 586.29 304.90 586.03 305.87 585.78 306.84 585.22 307.41 584.66 307.98 584.17 308.79 583.68 309.61 583.38 310.63 583.08 311.66 583.02 312.72 582.96 313.78 583.32 314.58 583.67 315.37 584.03 316.38 584.38 317.38 584.44 318.31 584.50 319.24 584.18 320.30 583.87 321.36 583.72 322.27 583.57 323.19 583.21 324.36 582.85 325.54 582.79 326.47 582.72 327.39 582.51 328.45 582.29 329.51 582.81 329.87 583.33 330.24 583.33 330.24 583.33 330.24 583.33 330.24 583.33 330.24 583.33 330.24 583.33 330.25 583.33 330.25 583.33 330.25 583.33 330.25 583.33 330.25 583.33 330.25 583.33 330.25 583.33 330.25 583.32 330.25 583.32 330.25 583.32 330.25 583.32 330.25 583.32 330.25 583.32 330.25 583.32 330.25 583.32 330.25 583.32 330.25 583.32 330.25 583.31 330.25 583.31 330.25 583.31 330.24 583.32 330.24 583.32 330.24 583.33 330.24 583.33 330.24 583.33 330.24 583.33 330.24 583.33 330.24 583.33 330.24 583.33 330.24 583.33 330.25 583.33 330.25 583.33 330.25 583.33 330.25 583.33 330.25 583.33 330.25 583.33 330.25 583.33 330.25 583.32 330.25 583.32 330.25 583.32 330.25 583.32 330.25 583.32 330.25 583.32 330.25 583.32 330.25 583.32 330.25 583.32 330.25 583.32 330.25 583.31 330.25 583.31 330.25 583.31 330.24 581.23 330.34 579.15 330.43 579.01 329.24 578.88 328.05 579.02 326.97 579.16 325.89 579.46 324.61 579.76 323.33 580.05 322.38 580.34 321.42 580.68 320.06 581.02 318.71 580.82 317.83 580.61 316.96 580.24 316.18 579.87 315.40 579.70 314.59 579.53 313.78 579.54 312.97 579.55 312.17 579.69 311.32 579.83 310.47 580.07 309.63 580.32 308.78 580.95 307.62 581.59 306.45 582.00 305.50 582.41 304.54 581.82 303.93 581.23 303.33 580.58 302.57 579.93 301.80 579.37 301.16 578.82 300.51 578.59 299.63 578.36 298.76 578.46 297.42 578.57 296.07 578.92 294.95 579.26 293.84 579.73 292.84 580.19 291.84 580.86 290.86 581.53 289.88 581.45 288.97 581.37 288.07 580.61 287.52 579.85 286.98 579.13 286.31 578.41 285.64 577.88 284.87 577.35 284.10 577.14 283.17 576.93 282.25 577.07 281.23 577.21 280.22 577.48 279.38 577.75 278.55 578.15 277.78 578.56 277.02 578.99 276.26 579.42 275.49 579.69 274.68 579.97 273.87 579.59 273.22 579.21 272.56 578.61 271.74 578.02 270.92 577.46 270.12 576.90 269.32 576.52 268.29 576.14 267.26 575.98 266.26 575.82 265.27 575.87 264.35 575.93 263.43 576.17 262.60 576.41 261.76 576.87 261.11 577.32 260.46 578.00 260.03 578.67 259.59 579.38 259.93 580.08 260.28 580.09 260.28 Z" data-drauu_index="60"></path><path fill="#ff595e" d="M 209.11 116.32 Q 209.11 116.32 210.38 117.17 211.65 118.02 211.83 118.92 212.00 119.82 212.32 121.29 212.65 122.76 212.70 123.63 212.74 124.51 212.90 125.36 213.07 126.22 213.16 127.38 213.24 128.55 213.42 129.54 213.60 130.53 213.85 132.31 214.10 134.09 214.51 135.87 214.92 137.65 215.26 139.07 215.59 140.50 215.90 141.74 216.20 142.99 216.35 144.11 216.50 145.23 216.70 146.60 216.91 147.97 216.99 148.94 217.07 149.90 217.10 150.66 217.13 151.41 217.03 152.39 216.94 153.37 216.41 153.62 215.89 153.86 215.89 153.87 215.89 153.87 215.89 153.87 215.89 153.87 215.89 153.87 215.89 153.87 215.89 153.87 215.88 153.87 215.88 153.87 215.88 153.87 215.88 153.87 215.88 153.87 215.88 153.87 215.88 153.87 215.88 153.87 215.88 153.87 215.87 153.87 215.87 153.87 215.87 153.87 215.87 153.87 215.87 153.87 215.87 153.87 215.87 153.87 215.87 153.87 215.87 153.87 215.87 153.86 215.87 153.86 215.88 153.86 215.88 153.86 215.89 153.86 215.89 153.87 215.89 153.87 215.89 153.87 215.89 153.87 215.89 153.87 215.89 153.87 215.89 153.87 215.88 153.87 215.88 153.87 215.88 153.87 215.88 153.87 215.88 153.87 215.88 153.87 215.88 153.87 215.88 153.87 215.88 153.87 215.87 153.87 215.87 153.87 215.87 153.87 215.87 153.87 215.87 153.87 215.87 153.87 215.87 153.87 215.87 153.87 215.87 153.87 215.87 153.86 214.68 153.65 213.49 153.43 213.31 151.87 213.13 150.30 213.03 149.44 212.93 148.58 212.70 147.17 212.48 145.75 212.37 144.85 212.26 143.95 211.95 142.69 211.64 141.43 211.30 139.99 210.96 138.55 210.52 136.60 210.08 134.65 209.85 132.94 209.61 131.23 209.41 130.03 209.20 128.84 209.14 127.89 209.08 126.93 208.89 125.82 208.70 124.71 208.62 123.41 208.54 122.10 208.19 120.61 207.84 119.11 208.47 117.72 209.09 116.32 209.10 116.32 Z" data-drauu_index="0"></path><path fill="#ff595e" d="M 207.98 115.76 Q 207.98 115.76 207.80 115.16 207.62 114.57 208.03 113.92 208.44 113.28 208.76 112.60 209.07 111.91 208.71 111.37 208.34 110.84 208.48 110.69 208.62 110.55 208.80 110.45 208.97 110.34 209.16 110.28 209.35 110.22 209.56 110.21 209.76 110.20 209.96 110.24 210.15 110.27 210.34 110.36 210.52 110.44 210.68 110.56 210.84 110.69 210.96 110.85 211.09 111.01 211.17 111.19 211.25 111.37 211.29 111.57 211.32 111.77 211.31 111.97 211.30 112.17 211.24 112.37 211.18 112.56 211.07 112.73 210.97 112.90 210.73 114.10 210.50 115.30 209.98 116.19 209.46 117.08 209.23 118.12 208.99 119.17 208.72 119.86 208.44 120.56 208.14 121.69 207.85 122.81 207.76 123.83 207.68 124.84 207.67 125.14 207.67 125.45 207.63 125.67 207.59 125.90 207.50 126.11 207.41 126.32 207.27 126.50 207.13 126.68 206.95 126.82 206.77 126.97 206.56 127.07 206.36 127.16 206.13 127.21 205.91 127.25 205.68 127.24 205.45 127.23 205.23 127.16 205.01 127.10 204.81 126.98 204.62 126.87 204.45 126.71 204.29 126.55 204.17 126.35 204.05 126.16 203.97 125.94 203.90 125.72 203.89 125.49 203.87 125.26 204.07 124.10 204.27 122.94 205.03 121.48 205.78 120.01 206.56 118.55 207.33 117.09 207.64 116.37 207.95 115.65 208.52 114.82 209.09 113.98 209.49 113.18 209.89 112.37 210.31 111.69 210.72 111.01 210.75 110.89 210.78 110.76 210.93 110.58 211.09 110.40 211.29 110.26 211.48 110.12 211.71 110.03 211.93 109.94 212.17 109.91 212.41 109.88 212.65 109.90 212.89 109.93 213.11 110.01 213.34 110.09 213.54 110.22 213.74 110.36 213.90 110.54 214.07 110.71 214.18 110.93 214.30 111.14 214.36 111.37 214.42 111.60 214.42 111.85 214.43 112.09 214.37 112.32 214.32 112.56 214.21 112.77 214.10 112.99 214.49 113.93 214.87 114.87 214.75 116.76 214.62 118.65 214.62 118.65 214.61 118.65 214.61 118.66 214.60 118.66 213.15 117.20 211.70 115.74 211.31 114.73 210.91 113.72 210.68 113.00 210.45 112.28 210.61 111.52 210.78 110.76 210.93 110.58 211.09 110.40 211.29 110.26 211.48 110.12 211.71 110.03 211.93 109.94 212.17 109.91 212.41 109.88 212.65 109.90 212.89 109.93 213.11 110.01 213.34 110.09 213.54 110.22 213.74 110.36 213.90 110.54 214.07 110.71 214.18 110.93 214.30 111.14 214.36 111.37 214.42 111.60 214.42 111.84 214.43 112.09 214.37 112.32 214.32 112.56 214.21 112.77 214.10 112.99 213.90 113.20 213.70 113.41 213.34 114.12 212.99 114.83 212.21 116.01 211.43 117.18 211.02 118.10 210.62 119.01 210.21 119.73 209.79 120.44 209.07 121.70 208.36 122.96 208.01 124.20 207.67 125.45 207.63 125.67 207.59 125.90 207.50 126.11 207.41 126.32 207.27 126.50 207.13 126.68 206.95 126.82 206.77 126.97 206.56 127.07 206.36 127.16 206.13 127.21 205.91 127.25 205.68 127.24 205.45 127.23 205.23 127.16 205.01 127.10 204.81 126.98 204.62 126.87 204.45 126.71 204.29 126.55 204.17 126.35 204.05 126.16 203.97 125.94 203.90 125.72 203.89 125.49 203.87 125.26 203.88 124.96 203.89 124.66 203.95 123.83 204.01 123.00 204.31 121.85 204.61 120.69 204.77 119.93 204.92 119.17 205.34 118.00 205.76 116.83 205.97 116.06 206.18 115.29 206.66 114.56 207.15 113.83 207.55 113.16 207.96 112.50 208.15 111.67 208.34 110.84 208.48 110.69 208.62 110.55 208.80 110.45 208.97 110.34 209.16 110.28 209.35 110.22 209.56 110.21 209.76 110.20 209.95 110.24 210.15 110.27 210.34 110.36 210.52 110.44 210.68 110.56 210.84 110.69 210.96 110.85 211.09 111.01 211.17 111.19 211.25 111.37 211.29 111.57 211.32 111.77 211.31 111.97 211.30 112.17 211.24 112.37 211.18 112.56 211.07 112.73 210.97 112.90 210.95 112.90 210.94 112.90 210.21 113.25 209.48 113.60 209.24 114.32 208.99 115.03 208.50 115.40 208.00 115.77 207.99 115.76 Z" data-drauu_index="1"></path><path fill="#ff595e" d="M 211.90 112.41 Q 211.90 112.41 213.20 113.05 214.50 113.69 215.08 114.93 215.67 116.17 216.23 117.29 216.79 118.42 217.34 119.53 217.90 120.64 218.24 122.61 218.58 124.57 218.58 124.58 218.58 124.58 218.58 124.58 218.58 124.58 218.58 124.58 218.58 124.58 218.58 124.58 218.58 124.58 218.58 124.59 218.58 124.59 218.58 124.59 218.58 124.59 218.57 124.59 218.57 124.59 218.57 124.59 218.57 124.59 218.57 124.59 218.57 124.59 218.57 124.59 218.57 124.59 218.57 124.59 218.56 124.59 218.56 124.59 218.56 124.59 218.56 124.59 218.56 124.59 218.56 124.58 218.57 124.58 218.57 124.58 218.58 124.57 218.58 124.58 218.58 124.58 218.58 124.58 218.58 124.58 218.58 124.58 218.58 124.58 218.58 124.58 218.58 124.58 218.58 124.59 218.58 124.59 218.58 124.59 218.58 124.59 218.57 124.59 218.57 124.59 218.57 124.59 218.57 124.59 218.57 124.59 218.57 124.59 218.57 124.59 218.57 124.59 218.57 124.59 218.56 124.59 218.56 124.59 218.56 124.59 218.56 124.59 218.56 124.59 216.84 124.33 215.13 124.07 214.27 122.78 213.42 121.48 212.86 120.33 212.30 119.18 211.73 117.89 211.15 116.60 210.86 115.80 210.57 115.00 211.23 113.71 211.88 112.42 211.89 112.42 Z" data-drauu_index="2"></path><path fill="#ff595e" d="M 206.32 284.17 Q 206.32 284.17 206.37 284.93 206.42 285.70 205.82 286.23 205.22 286.76 204.37 287.22 203.52 287.68 202.64 288.48 201.76 289.29 200.88 289.62 200.01 289.95 199.17 290.24 198.34 290.52 197.56 290.61 196.79 290.69 196.03 290.97 195.26 291.25 194.14 291.30 193.02 291.36 192.08 291.36 191.13 291.36 190.05 291.41 188.97 291.46 188.09 291.46 187.22 291.47 186.22 291.48 185.22 291.49 184.11 291.51 183.01 291.53 182.05 291.54 181.10 291.56 180.25 291.57 179.41 291.58 178.17 291.58 176.94 291.59 175.98 291.40 175.02 291.21 174.17 291.15 173.32 291.09 172.51 291.09 171.70 291.09 170.66 291.09 169.61 291.09 168.73 291.09 167.84 291.10 167.06 291.10 166.29 291.11 165.46 291.12 164.63 291.13 163.57 291.13 162.51 291.13 161.17 291.14 159.84 291.14 158.91 291.14 157.99 291.14 156.84 291.15 155.69 291.15 154.73 291.16 153.77 291.16 152.62 290.93 151.47 290.69 150.27 290.66 149.08 290.63 147.51 290.39 145.93 290.15 144.75 290.11 143.57 290.07 142.68 290.06 141.80 290.05 140.72 290.05 139.65 290.05 138.77 290.05 137.89 290.05 136.98 290.05 136.07 290.04 135.07 290.04 134.08 290.03 132.90 290.47 131.72 290.90 130.88 291.06 130.04 291.22 129.21 291.50 128.38 291.79 128.38 291.79 128.37 291.79 128.37 291.79 128.36 291.79 128.83 289.27 129.30 286.76 129.99 286.41 130.68 286.05 131.46 285.73 132.23 285.42 133.67 285.20 135.10 284.97 135.97 284.97 136.84 284.97 137.85 284.97 138.87 284.96 139.81 284.96 140.75 284.96 141.79 284.97 142.83 284.97 143.87 284.99 144.92 285.01 146.26 285.17 147.61 285.34 148.40 285.44 149.19 285.54 150.42 285.59 151.64 285.64 152.71 285.86 153.77 286.08 154.73 286.09 155.69 286.10 156.84 286.10 157.99 286.10 158.91 286.10 159.84 286.10 161.17 286.11 162.51 286.11 163.57 286.11 164.63 286.12 165.46 286.12 166.29 286.13 167.44 286.14 168.60 286.15 169.56 286.15 170.52 286.16 171.53 286.18 172.54 286.20 173.57 286.26 174.59 286.32 175.78 286.54 176.97 286.77 178.19 286.78 179.41 286.78 180.25 286.79 181.10 286.80 182.05 286.81 183.01 286.83 184.11 286.85 185.22 286.87 186.22 286.88 187.22 286.89 188.09 286.90 188.97 286.90 190.05 286.95 191.13 286.99 192.06 286.99 193.00 286.99 193.93 286.99 194.86 286.98 196.07 286.78 197.29 286.59 198.12 286.33 198.94 286.06 199.95 285.60 200.96 285.14 201.90 284.78 202.83 284.41 203.88 283.84 204.93 283.26 205.62 283.71 206.31 284.15 206.32 284.16 Z" data-drauu_index="3"></path><path fill="#ff595e" d="M 205.76 281.36 Q 205.76 281.36 206.01 280.54 206.27 279.71 206.95 279.29 207.63 278.87 208.42 278.73 209.20 278.59 209.97 278.52 210.73 278.46 211.76 278.45 212.79 278.44 213.58 278.78 214.37 279.12 215.23 279.63 216.09 280.15 216.89 280.33 217.69 280.52 218.40 281.20 219.11 281.87 219.95 282.40 220.80 282.94 221.56 283.40 222.32 283.86 223.25 284.51 224.17 285.16 225.05 285.57 225.92 285.98 226.80 286.57 227.67 287.15 228.30 287.66 228.92 288.18 230.25 288.41 231.59 288.65 232.43 288.69 233.26 288.73 234.12 288.73 234.99 288.74 236.12 288.74 237.26 288.74 238.42 288.75 239.57 288.75 240.33 288.41 241.09 288.06 241.84 287.92 242.59 287.77 243.41 287.71 244.22 287.65 245.12 287.68 246.01 287.71 246.81 287.22 247.61 286.74 248.48 286.44 249.35 286.14 250.10 285.59 250.86 285.04 251.54 284.44 252.21 283.84 252.98 283.35 253.75 282.87 254.45 282.53 255.16 282.19 255.92 281.93 256.68 281.67 257.89 281.17 259.10 280.67 259.72 280.12 260.34 279.56 261.23 278.89 262.11 278.22 263.11 277.47 264.12 276.71 265.36 275.97 266.60 275.23 267.26 274.85 267.93 274.48 268.67 273.85 269.41 273.22 270.06 272.78 270.72 272.33 271.43 271.87 272.14 271.41 272.85 270.82 273.56 270.24 274.13 269.70 274.69 269.15 275.28 268.59 275.87 268.03 276.55 267.68 277.23 267.32 278.07 266.98 278.92 266.64 280.40 266.50 281.88 266.36 281.88 266.37 281.88 266.37 281.88 266.38 281.88 266.38 281.00 268.05 280.11 269.72 279.40 270.36 278.68 271.01 278.13 271.57 277.59 272.13 276.95 272.75 276.31 273.36 275.38 274.12 274.45 274.88 273.34 275.62 272.23 276.36 271.64 276.88 271.06 277.40 269.95 278.10 268.85 278.80 267.62 279.53 266.39 280.27 265.60 280.87 264.81 281.47 264.12 282.03 263.43 282.59 262.54 283.14 261.66 283.68 260.85 284.12 260.04 284.55 259.04 285.03 258.05 285.51 257.17 285.82 256.29 286.13 255.51 286.67 254.74 287.22 254.05 287.84 253.36 288.45 252.33 289.02 251.30 289.58 250.63 289.94 249.96 290.30 248.96 290.71 247.95 291.12 247.23 291.45 246.51 291.77 245.46 291.82 244.41 291.87 243.55 291.92 242.69 291.97 241.96 292.22 241.22 292.46 240.47 292.71 239.72 292.95 238.89 292.96 238.06 292.96 237.10 292.96 236.13 292.97 234.95 292.96 233.76 292.96 232.82 292.93 231.87 292.91 230.85 292.64 229.82 292.37 228.93 292.07 228.03 291.77 227.12 291.30 226.20 290.84 225.43 290.62 224.67 290.39 223.82 289.67 222.97 288.95 221.82 288.32 220.68 287.69 220.05 287.27 219.43 286.84 218.91 286.22 218.39 285.60 217.66 285.26 216.92 284.91 216.15 284.10 215.39 283.30 214.60 282.99 213.81 282.68 212.99 282.40 212.17 282.11 211.34 282.08 210.52 282.05 209.65 282.01 208.78 281.98 207.97 282.19 207.17 282.39 206.46 281.89 205.76 281.38 205.76 281.37 Z" data-drauu_index="4"></path><path fill="#ff595e" d="M 255.38 290.84 Q 255.38 290.84 255.66 290.19 255.94 289.53 256.85 289.03 257.77 288.53 258.66 288.39 259.56 288.24 260.42 288.20 261.27 288.17 262.05 288.40 262.83 288.62 263.65 288.89 264.47 289.16 265.53 289.67 266.58 290.18 267.24 290.70 267.89 291.21 268.87 291.78 269.85 292.34 270.52 292.87 271.19 293.40 272.01 294.01 272.83 294.63 273.38 295.24 273.93 295.86 274.66 296.63 275.39 297.40 276.15 298.35 276.91 299.30 277.68 300.00 278.46 300.69 279.07 301.21 279.67 301.73 280.25 302.27 280.83 302.81 281.33 303.46 281.83 304.11 282.58 304.90 283.33 305.68 283.98 306.36 284.63 307.04 285.94 308.13 287.24 309.22 288.10 310.04 288.97 310.87 289.42 311.55 289.88 312.22 290.44 312.89 291.00 313.55 291.70 314.24 292.40 314.92 292.82 315.54 293.24 316.17 293.69 316.94 294.13 317.72 294.28 319.33 294.42 320.95 294.42 320.95 294.41 320.95 294.41 320.96 294.41 320.96 292.75 319.92 291.09 318.88 290.49 318.07 289.88 317.26 289.32 316.73 288.76 316.19 288.15 315.63 287.55 315.07 287.04 314.18 286.53 313.29 285.73 312.52 284.92 311.76 284.25 311.13 283.57 310.51 282.87 309.97 282.16 309.42 281.49 308.72 280.81 308.01 279.66 306.62 278.50 305.22 277.51 304.26 276.51 303.30 275.88 302.80 275.25 302.30 274.73 301.69 274.21 301.07 273.64 300.36 273.07 299.64 272.25 298.77 271.44 297.89 270.67 297.22 269.91 296.56 269.10 295.85 268.29 295.15 267.08 294.43 265.87 293.70 264.87 293.00 263.88 292.31 263.07 292.04 262.27 291.77 261.16 291.52 260.05 291.27 259.22 291.13 258.40 290.98 257.58 291.26 256.76 291.53 256.07 291.20 255.39 290.86 255.39 290.85 Z" data-drauu_index="5"></path><path fill="#ff595e" d="M 253.16 444.75 Q 253.16 444.75 253.86 444.81 254.55 444.87 254.93 445.72 255.30 446.57 255.10 447.31 254.90 448.04 253.43 448.13 251.96 448.21 251.75 446.90 251.54 445.59 251.69 444.80 251.84 444.01 252.85 443.17 253.85 442.33 254.75 442.56 255.64 442.79 256.24 443.35 256.84 443.91 257.16 444.59 257.48 445.27 257.54 446.22 257.61 447.17 257.17 448.16 256.73 449.15 256.19 449.67 255.65 450.20 254.85 450.22 254.05 450.25 253.37 449.84 252.69 449.43 252.40 448.66 252.11 447.88 252.30 446.72 252.48 445.55 253.10 444.51 253.71 443.48 254.44 443.04 255.18 442.60 255.23 442.46 255.28 442.31 255.47 442.20 255.66 442.10 255.87 442.04 256.08 441.98 256.29 441.98 256.51 441.97 256.72 442.01 256.93 442.06 257.12 442.15 257.32 442.25 257.48 442.39 257.65 442.52 257.78 442.70 257.90 442.87 257.99 443.07 258.07 443.27 258.10 443.48 258.13 443.70 258.12 443.91 258.10 444.13 258.03 444.33 257.96 444.53 257.84 444.72 257.72 444.90 257.56 445.04 257.41 445.19 257.80 444.29 258.20 443.39 258.32 444.16 258.43 444.93 258.15 445.98 257.88 447.03 257.28 447.76 256.68 448.49 255.86 448.96 255.05 449.43 254.19 449.26 253.34 449.09 252.71 448.60 252.09 448.11 251.91 446.98 251.74 445.85 251.98 445.11 252.23 444.37 253.20 443.39 254.18 442.40 254.60 442.18 255.03 441.95 255.25 441.83 255.47 441.72 255.72 441.65 255.96 441.59 256.22 441.59 256.47 441.59 256.71 441.65 256.96 441.71 257.18 441.83 257.40 441.95 257.59 442.12 257.78 442.28 257.92 442.49 258.07 442.70 258.16 442.93 258.25 443.17 258.28 443.42 258.31 443.67 258.28 443.92 258.25 444.17 258.16 444.41 258.07 444.64 257.92 444.85 257.78 445.06 257.59 445.22 257.40 445.39 256.67 446.61 255.94 447.83 254.63 448.34 253.32 448.85 253.32 448.90 253.31 448.94 253.11 449.10 252.90 449.25 252.67 449.35 252.43 449.45 252.18 449.49 251.93 449.53 251.67 449.51 251.42 449.49 251.18 449.40 250.94 449.32 250.72 449.19 250.51 449.05 250.33 448.87 250.16 448.68 250.03 448.46 249.90 448.24 249.83 447.99 249.76 447.75 249.75 447.49 249.74 447.24 249.79 446.99 249.85 446.74 249.96 446.51 250.07 446.28 250.23 446.08 250.39 445.89 251.48 444.91 252.56 443.93 253.59 443.63 254.62 443.33 255.67 443.85 256.72 444.37 257.10 445.52 257.48 446.67 257.30 447.55 257.12 448.42 256.54 449.55 255.96 450.68 255.42 451.21 254.88 451.75 253.75 452.28 252.63 452.82 251.78 452.92 250.94 453.03 249.91 452.57 248.89 452.11 248.32 451.06 247.75 450.02 248.03 448.72 248.30 447.42 249.00 446.80 249.70 446.19 250.52 445.91 251.35 445.64 252.14 445.31 252.93 444.99 253.89 445.33 254.86 445.68 255.53 446.83 256.20 447.99 256.02 448.83 255.85 449.67 255.16 450.52 254.48 451.37 253.14 451.85 251.81 452.33 251.04 452.35 250.28 452.37 249.36 452.15 248.43 451.94 247.77 451.48 247.11 451.01 246.66 449.87 246.20 448.73 246.38 447.86 246.55 446.98 247.41 445.81 248.27 444.63 249.18 444.07 250.10 443.51 251.43 443.05 252.75 442.59 253.52 442.87 254.28 443.15 254.75 444.08 255.22 445.02 255.24 445.82 255.25 446.62 254.98 447.58 254.71 448.54 253.43 449.49 252.16 450.45 250.71 450.32 249.25 450.19 248.54 449.21 247.83 448.23 248.09 446.78 248.35 445.33 249.01 444.71 249.66 444.10 250.35 443.72 251.05 443.34 252.07 443.27 253.09 443.19 254.40 443.56 255.71 443.93 256.20 444.61 256.69 445.29 256.85 446.23 257.00 447.17 256.59 448.35 256.18 449.53 255.51 450.06 254.83 450.60 253.37 450.88 251.91 451.16 251.18 450.86 250.44 450.55 249.77 449.62 249.10 448.69 248.97 447.83 248.85 446.97 249.10 445.77 249.36 444.56 249.89 443.97 250.42 443.37 251.69 443.06 252.96 442.74 253.87 442.97 254.78 443.20 255.42 443.73 256.07 444.26 256.38 445.10 256.70 445.93 256.75 446.96 256.80 447.98 256.45 448.76 256.09 449.54 253.70 448.88 251.30 448.22 251.30 448.21 251.30 448.21 251.31 448.21 251.31 448.20 251.78 447.71 252.24 447.22 253.00 447.26 253.76 447.29 252.75 447.30 251.74 447.31 251.43 446.48 251.12 445.65 251.58 446.35 252.04 447.06 251.11 447.64 250.19 448.22 251.30 448.28 252.40 448.33 253.04 448.75 253.67 449.16 252.64 448.89 251.61 448.62 252.17 448.09 252.73 447.56 253.20 446.94 253.67 446.31 253.98 447.00 254.29 447.68 253.80 448.31 253.31 448.94 253.11 449.10 252.90 449.25 252.67 449.35 252.43 449.45 252.18 449.49 251.93 449.53 251.68 449.51 251.42 449.49 251.18 449.40 250.94 449.32 250.72 449.19 250.51 449.05 250.33 448.87 250.16 448.68 250.03 448.46 249.90 448.24 249.83 447.99 249.76 447.75 249.75 447.49 249.74 447.24 249.79 446.99 249.85 446.74 249.96 446.51 250.07 446.28 250.23 446.08 250.39 445.89 251.30 445.37 252.20 444.85 253.06 444.47 253.91 444.10 254.47 443.02 255.03 441.95 255.25 441.83 255.47 441.72 255.72 441.65 255.96 441.59 256.22 441.59 256.47 441.59 256.71 441.65 256.96 441.71 257.18 441.83 257.40 441.95 257.59 442.12 257.78 442.28 257.92 442.49 258.07 442.70 258.16 442.93 258.25 443.17 258.28 443.42 258.31 443.67 258.28 443.92 258.25 444.17 258.16 444.40 258.07 444.64 257.92 444.85 257.78 445.06 257.59 445.22 257.40 445.39 257.15 445.43 256.90 445.46 256.21 445.76 255.52 446.06 254.60 445.97 253.67 445.89 254.17 445.26 254.67 444.62 254.98 443.47 255.28 442.31 255.47 442.20 255.66 442.10 255.87 442.04 256.08 441.98 256.29 441.98 256.51 441.97 256.72 442.01 256.93 442.06 257.12 442.15 257.32 442.25 257.48 442.39 257.65 442.52 257.78 442.70 257.90 442.87 257.99 443.07 258.07 443.27 258.10 443.48 258.13 443.70 258.12 443.91 258.10 444.13 258.03 444.33 257.96 444.53 257.84 444.72 257.72 444.90 257.56 445.04 257.41 445.19 257.29 445.26 257.18 445.32 256.52 445.73 255.86 446.14 255.08 446.42 254.29 446.70 254.53 445.90 254.77 445.09 254.80 445.85 254.82 446.62 253.61 446.27 252.40 445.92 252.77 445.34 253.15 444.76 253.16 444.75 Z" data-drauu_index="6"></path><path fill="#ff595e" d="M 260.41 454.22 Q 260.41 454.22 261.05 453.74 261.69 453.26 262.38 453.59 263.07 453.92 263.86 454.37 264.65 454.81 265.36 455.65 266.06 456.49 266.67 457.15 267.28 457.82 267.71 458.45 268.14 459.08 269.00 459.79 269.85 460.49 270.41 461.03 270.96 461.57 272.03 462.40 273.10 463.23 274.21 464.07 275.31 464.91 275.91 465.46 276.50 466.01 277.07 466.57 277.64 467.12 278.52 468.00 279.40 468.88 280.01 469.33 280.61 469.78 281.28 470.37 281.95 470.96 282.55 471.53 283.15 472.11 284.07 472.79 284.98 473.47 285.82 474.06 286.67 474.64 287.30 475.40 287.92 476.15 288.89 476.96 289.86 477.77 290.43 478.31 291.00 478.86 291.64 479.67 292.28 480.47 293.11 481.35 293.93 482.23 294.53 482.70 295.13 483.17 295.78 483.77 296.44 484.36 297.43 484.97 298.42 485.58 299.54 486.36 300.66 487.14 301.78 487.87 302.89 488.61 303.75 489.18 304.61 489.76 305.13 490.21 305.64 490.66 305.80 490.83 305.95 491.00 306.06 491.20 306.16 491.41 306.22 491.63 306.27 491.85 306.27 492.08 306.27 492.31 306.22 492.54 306.16 492.76 306.06 492.96 305.95 493.17 305.80 493.34 305.64 493.51 305.45 493.64 305.27 493.77 305.05 493.85 304.84 493.93 304.61 493.96 304.38 493.99 304.15 493.96 303.92 493.93 303.71 493.85 303.49 493.77 303.31 493.64 303.12 493.51 301.89 493.26 300.66 493.01 299.42 492.51 298.18 492.00 296.82 491.45 295.45 490.90 294.46 490.52 293.47 490.14 293.51 489.17 293.55 488.20 294.37 488.75 295.20 489.30 295.80 489.76 296.40 490.22 297.59 490.75 298.78 491.29 299.54 491.38 300.30 491.47 299.91 490.80 299.53 490.13 299.28 489.32 299.04 488.51 298.48 487.81 297.92 487.11 297.42 486.43 296.93 485.74 296.37 485.07 295.81 484.41 295.26 483.86 294.71 483.32 294.44 483.07 294.16 482.82 294.04 482.63 293.92 482.44 293.84 482.23 293.77 482.02 293.75 481.79 293.73 481.57 293.76 481.35 293.79 481.13 293.88 480.92 293.96 480.71 294.10 480.53 294.23 480.35 294.40 480.20 294.58 480.06 294.78 479.96 294.98 479.86 295.20 479.81 295.42 479.77 295.64 479.77 295.87 479.78 296.08 479.84 296.30 479.90 296.50 480.01 296.69 480.12 296.86 480.27 297.02 480.43 297.74 481.14 298.47 481.85 299.42 483.02 300.37 484.19 301.03 485.02 301.70 485.85 302.16 486.68 302.62 487.51 303.07 489.04 303.53 490.57 303.52 490.57 303.52 490.58 303.51 490.58 303.51 490.58 301.93 489.88 300.36 489.17 299.82 488.63 299.28 488.08 298.34 487.17 297.40 486.27 296.62 485.38 295.83 484.49 295.00 483.65 294.16 482.82 294.04 482.63 293.92 482.44 293.84 482.23 293.77 482.02 293.75 481.79 293.73 481.57 293.76 481.35 293.79 481.13 293.88 480.92 293.96 480.71 294.10 480.53 294.23 480.35 294.40 480.20 294.58 480.06 294.78 479.96 294.98 479.86 295.20 479.81 295.42 479.77 295.64 479.77 295.87 479.78 296.08 479.84 296.30 479.90 296.50 480.01 296.69 480.12 296.86 480.27 297.02 480.43 297.24 480.92 297.45 481.41 298.28 482.05 299.11 482.70 299.88 483.70 300.64 484.70 301.28 485.51 301.93 486.31 302.32 487.32 302.71 488.34 303.19 489.27 303.67 490.21 303.84 491.27 304.02 492.34 303.57 493.58 303.12 494.82 302.38 495.11 301.65 495.41 300.06 495.15 298.46 494.88 297.54 494.57 296.62 494.27 295.84 493.99 295.07 493.72 294.17 493.07 293.28 492.42 292.65 491.78 292.03 491.14 291.44 490.26 290.84 489.37 291.25 488.17 291.66 486.97 293.04 486.83 294.41 486.70 295.56 487.11 296.70 487.52 298.07 488.07 299.44 488.61 300.69 489.11 301.93 489.61 302.89 489.95 303.85 490.28 304.75 490.47 305.64 490.66 305.80 490.83 305.95 491.00 306.06 491.20 306.16 491.41 306.22 491.63 306.27 491.85 306.27 492.08 306.27 492.31 306.22 492.54 306.16 492.76 306.06 492.96 305.95 493.17 305.80 493.34 305.64 493.51 305.45 493.64 305.27 493.77 305.05 493.85 304.84 493.93 304.61 493.96 304.38 493.99 304.15 493.96 303.92 493.93 303.71 493.85 303.49 493.77 303.31 493.64 303.12 493.51 302.67 493.08 302.22 492.64 301.31 492.04 300.39 491.44 299.45 490.85 298.52 490.26 297.84 489.78 297.16 489.30 296.23 488.70 295.29 488.09 294.61 487.61 293.92 487.13 293.35 486.61 292.77 486.09 291.98 485.44 291.20 484.79 290.27 483.78 289.34 482.78 288.87 482.17 288.40 481.56 287.37 480.59 286.34 479.62 285.67 479.05 285.00 478.49 284.40 477.81 283.79 477.13 282.85 476.48 281.90 475.84 281.22 475.35 280.54 474.87 279.98 474.34 279.42 473.81 278.86 473.30 278.29 472.80 277.51 472.19 276.73 471.58 275.85 470.71 274.98 469.85 274.43 469.32 273.89 468.79 272.90 467.89 271.92 466.99 270.79 466.13 269.65 465.26 268.99 464.78 268.32 464.30 267.32 463.35 266.32 462.39 265.41 461.40 264.51 460.41 263.68 459.46 262.86 458.51 262.30 457.67 261.74 456.84 261.07 456.34 260.40 455.84 260.40 455.04 260.40 454.24 260.40 454.23 Z" data-drauu_index="7"></path><path fill="#ff595e" d="M 214.69 346.05 Q 214.69 346.05 215.88 346.26 217.06 346.47 217.45 347.71 217.83 348.96 218.27 350.40 218.72 351.84 218.85 352.89 218.97 353.93 219.03 354.70 219.08 355.46 219.10 356.29 219.12 357.11 219.27 358.31 219.42 359.52 219.55 360.51 219.67 361.50 219.70 362.29 219.73 363.08 218.98 364.06 218.24 365.04 217.81 363.33 217.39 361.62 218.83 361.76 220.27 361.90 221.04 361.93 221.82 361.96 222.75 362.16 223.68 362.37 224.81 362.44 225.95 362.51 226.71 362.52 227.47 362.53 229.18 362.31 230.90 362.09 231.84 362.06 232.78 362.03 233.64 361.88 234.50 361.72 235.70 361.63 236.90 361.55 238.21 361.51 239.52 361.48 240.73 361.32 241.94 361.15 243.40 361.07 244.86 360.99 246.29 360.96 247.71 360.93 248.79 360.77 249.88 360.61 251.14 360.53 252.39 360.45 253.40 360.27 254.42 360.10 255.65 360.00 256.89 359.91 258.88 359.87 260.87 359.84 262.62 359.99 264.36 360.14 265.64 360.20 266.92 360.26 268.25 360.46 269.59 360.66 270.79 360.73 271.99 360.80 273.00 360.84 274.00 360.87 275.06 360.88 276.12 360.90 277.04 360.76 277.96 360.62 278.99 360.40 280.02 360.19 280.96 359.83 281.89 359.46 282.87 359.12 283.85 358.77 284.94 358.58 286.03 358.38 286.82 358.31 287.60 358.24 288.71 358.20 289.83 358.17 290.71 358.20 291.60 358.24 292.37 358.56 293.14 358.88 293.95 359.00 294.76 359.12 295.62 359.19 296.49 359.26 297.77 359.97 299.05 360.68 299.87 360.26 300.70 359.83 299.75 360.90 298.80 361.96 298.75 360.79 298.70 359.61 298.72 358.38 298.73 357.14 298.75 356.36 298.77 355.57 298.73 354.19 298.68 352.80 298.88 351.60 299.08 350.39 299.08 350.39 299.08 350.38 299.08 350.38 299.08 350.37 300.99 351.22 302.89 352.06 303.17 353.82 303.45 355.57 303.48 357.06 303.50 358.55 303.51 359.59 303.52 360.62 303.44 361.56 303.36 362.49 301.47 363.55 299.58 364.62 298.71 364.61 297.85 364.59 296.81 364.30 295.76 364.01 294.60 363.86 293.43 363.71 292.60 363.51 291.76 363.32 290.86 363.15 289.95 362.97 288.99 363.01 288.02 363.04 286.73 363.19 285.44 363.33 284.51 363.66 283.58 363.99 282.29 364.46 281.00 364.93 279.81 365.17 278.63 365.41 277.34 365.57 276.06 365.74 274.95 365.73 273.84 365.71 272.77 365.68 271.70 365.64 270.27 365.56 268.84 365.47 267.77 365.30 266.69 365.13 265.31 365.06 263.93 365.00 262.44 364.86 260.95 364.72 259.10 364.75 257.25 364.78 256.24 364.85 255.23 364.92 253.97 365.13 252.71 365.34 251.64 365.40 250.57 365.47 249.19 365.66 247.82 365.85 246.48 365.88 245.13 365.91 243.85 365.97 242.57 366.04 241.11 366.23 239.65 366.41 238.44 366.44 237.23 366.47 236.28 366.53 235.32 366.59 234.13 366.77 232.94 366.96 232.08 366.99 231.22 367.01 230.38 367.06 229.54 367.11 228.47 367.28 227.41 367.46 226.58 367.44 225.74 367.43 224.90 367.39 224.07 367.35 223.30 367.25 222.53 367.15 221.40 366.97 220.27 366.78 219.37 366.54 218.46 366.31 217.46 366.14 216.47 365.97 215.94 364.13 215.42 362.28 216.06 361.86 216.70 361.43 215.95 361.92 215.20 362.41 215.11 361.43 215.03 360.46 214.84 358.84 214.64 357.22 214.60 355.82 214.55 354.42 214.47 353.63 214.40 352.84 214.21 351.92 214.02 350.99 213.80 349.60 213.58 348.20 214.12 347.13 214.67 346.06 214.68 346.06 Z" data-drauu_index="8"></path><path fill="#ff595e" d="M 731.03 291.98 Q 731.03 291.98 730.83 292.71 730.63 293.45 729.94 293.90 729.26 294.35 728.49 294.55 727.73 294.75 727.99 294.78 728.25 294.81 728.14 294.99 728.03 295.18 727.88 295.34 727.73 295.49 727.55 295.60 727.37 295.72 727.16 295.78 726.96 295.85 726.74 295.87 726.53 295.88 726.31 295.85 726.10 295.81 725.90 295.72 725.70 295.64 725.53 295.51 725.36 295.38 725.23 295.21 725.09 295.04 725.00 294.85 724.91 294.65 724.87 294.44 724.83 294.23 724.84 294.01 724.85 293.80 724.91 293.59 724.97 293.38 725.04 292.55 725.11 291.72 725.65 291.04 726.19 290.36 727.27 290.00 728.35 289.64 729.46 290.42 730.56 291.19 730.39 292.19 730.21 293.19 729.89 293.98 729.56 294.77 728.94 295.51 728.32 296.25 727.22 296.61 726.11 296.96 725.28 296.61 724.46 296.27 724.07 295.46 723.68 294.65 723.73 293.90 723.79 293.15 724.29 292.34 724.79 291.54 725.84 291.11 726.90 290.68 728.24 290.78 729.58 290.88 730.22 291.34 730.87 291.80 730.89 291.82 730.91 291.85 731.03 292.06 731.14 292.27 731.21 292.50 731.28 292.73 731.29 292.96 731.29 293.20 731.25 293.44 731.20 293.67 731.10 293.89 730.99 294.10 730.84 294.29 730.69 294.47 730.50 294.61 730.31 294.76 730.09 294.85 729.87 294.94 729.63 294.98 729.40 295.02 729.16 295.00 728.92 294.98 728.70 294.90 728.47 294.83 728.27 294.70 728.07 294.57 727.90 294.40 727.74 294.23 728.46 294.62 729.18 295.01 728.58 293.18 727.99 291.35 727.99 291.35 727.99 291.35 727.99 291.35 727.99 291.35 727.98 291.35 727.98 291.35 727.98 291.35 727.98 291.35 727.98 291.35 727.98 291.35 727.98 291.35 727.98 291.34 727.98 291.34 727.98 291.34 727.98 291.34 727.98 291.34 727.98 291.34 727.98 291.34 727.98 291.34 727.98 291.34 727.98 291.34 727.98 291.33 727.98 291.33 727.99 291.33 727.99 291.33 727.99 291.33 727.99 291.34 727.99 291.34 727.99 291.35 727.99 291.35 727.99 291.35 727.99 291.35 727.99 291.35 727.99 291.35 727.98 291.35 727.98 291.35 727.98 291.35 727.98 291.35 727.98 291.35 727.98 291.35 727.98 291.35 727.98 291.34 727.98 291.34 727.98 291.34 727.98 291.34 727.98 291.34 727.98 291.34 727.98 291.34 727.98 291.34 727.98 291.34 727.98 291.34 727.98 291.33 727.98 291.33 727.99 291.33 727.99 291.33 727.99 291.33 728.43 291.23 728.86 291.12 729.89 291.49 730.91 291.85 731.03 292.06 731.14 292.27 731.21 292.50 731.28 292.73 731.29 292.96 731.29 293.20 731.25 293.44 731.20 293.67 731.10 293.89 730.99 294.10 730.84 294.29 730.69 294.47 730.50 294.61 730.31 294.76 730.09 294.85 729.87 294.94 729.63 294.98 729.40 295.02 729.16 295.00 728.92 294.98 728.70 294.90 728.47 294.83 728.27 294.70 728.07 294.57 727.90 294.40 727.74 294.23 727.61 293.99 727.49 293.76 726.75 293.43 726.01 293.10 726.47 292.37 726.92 291.64 727.64 292.25 728.35 292.87 728.30 293.84 728.25 294.81 728.14 294.99 728.03 295.18 727.88 295.33 727.73 295.49 727.55 295.60 727.37 295.72 727.16 295.78 726.96 295.85 726.74 295.87 726.53 295.88 726.31 295.85 726.10 295.81 725.90 295.72 725.70 295.64 725.53 295.51 725.36 295.38 725.23 295.21 725.09 295.04 725.00 294.85 724.91 294.65 724.87 294.44 724.83 294.23 724.84 294.01 724.85 293.80 724.91 293.59 724.97 293.38 725.00 293.31 725.04 293.25 725.70 292.76 726.36 292.26 727.19 291.91 728.02 291.56 728.76 291.66 729.50 291.77 730.26 291.86 731.02 291.96 731.03 291.97 Z" data-drauu_index="10"></path><path fill="#ff595e" d="M 703.16 229.52 Q 703.16 229.52 703.78 230.32 704.41 231.12 704.23 231.85 704.06 232.59 704.75 232.62 705.45 232.66 705.67 232.70 705.89 232.74 706.10 232.83 706.31 232.92 706.49 233.06 706.67 233.20 706.81 233.37 706.95 233.55 707.04 233.76 707.13 233.96 707.18 234.18 707.22 234.41 707.21 234.63 707.19 234.86 707.13 235.07 707.06 235.29 706.95 235.49 706.83 235.68 706.67 235.84 706.51 236.00 706.32 236.12 706.13 236.24 705.91 236.31 705.70 236.38 705.47 236.39 705.24 236.41 704.42 236.13 703.60 235.84 702.67 234.53 701.75 233.22 701.74 232.25 701.74 231.28 702.14 230.31 702.54 229.33 703.86 229.07 705.17 228.81 706.05 229.44 706.93 230.07 707.41 231.13 707.89 232.19 707.76 233.16 707.63 234.12 707.63 234.12 707.63 234.13 707.63 234.13 707.63 234.14 705.96 233.82 704.28 233.51 704.03 232.59 703.78 231.66 704.61 232.16 705.45 232.66 705.67 232.70 705.89 232.74 706.10 232.83 706.31 232.92 706.49 233.06 706.66 233.20 706.81 233.37 706.95 233.55 707.04 233.76 707.13 233.96 707.18 234.18 707.22 234.41 707.21 234.63 707.19 234.86 707.13 235.07 707.06 235.29 706.95 235.49 706.83 235.68 706.67 235.84 706.51 236.00 706.32 236.12 706.13 236.24 705.91 236.31 705.70 236.38 705.47 236.39 705.24 236.41 704.72 236.29 704.20 236.18 703.17 235.84 702.14 235.51 701.49 234.84 700.84 234.16 700.47 232.88 700.11 231.60 700.68 230.72 701.24 229.83 702.19 229.67 703.14 229.51 703.15 229.51 Z" data-drauu_index="11"></path><path fill="#ff595e" d="M 763.37 234.52 Q 763.37 234.52 764.37 234.48 765.37 234.44 765.19 235.47 765.01 236.51 763.56 236.19 762.12 235.87 762.12 235.88 762.12 235.88 762.12 235.88 762.12 235.88 762.11 235.87 762.11 235.87 762.11 235.87 762.11 235.87 762.11 235.87 762.11 235.87 762.11 235.87 762.11 235.87 762.11 235.87 762.11 235.87 762.11 235.87 762.11 235.86 762.11 235.86 762.11 235.86 762.11 235.86 762.11 235.86 762.11 235.86 762.11 235.86 762.11 235.86 762.11 235.86 762.11 235.86 762.11 235.86 762.12 235.86 762.12 235.87 762.12 235.87 762.12 235.87 762.12 235.88 762.12 235.88 762.12 235.88 762.12 235.88 762.11 235.87 762.11 235.87 762.11 235.87 762.11 235.87 762.11 235.87 762.11 235.87 762.11 235.87 762.11 235.87 762.11 235.87 762.11 235.87 762.11 235.87 762.11 235.86 762.11 235.86 762.11 235.86 762.11 235.86 762.11 235.86 762.11 235.86 762.11 235.86 762.11 235.86 762.11 235.86 762.11 235.86 762.11 235.86 762.42 234.70 762.73 233.54 762.69 234.40 762.65 235.27 763.01 234.91 763.36 234.54 763.37 234.53 Z" data-drauu_index="12"></path><path fill="#ff595e" d="M 790.13 301.46 Q 790.13 301.46 789.33 302.24 788.53 303.02 787.31 302.88 786.08 302.74 785.21 302.18 784.33 301.62 783.53 301.14 782.73 300.66 782.29 299.83 781.84 299.00 781.23 298.00 780.61 297.01 780.49 296.08 780.37 295.15 780.66 293.82 780.94 292.49 781.76 291.78 782.59 291.06 784.00 290.90 785.41 290.74 786.01 291.57 786.62 292.40 786.67 293.72 786.72 295.04 786.50 295.82 786.27 296.61 785.72 297.54 785.17 298.48 784.31 299.23 783.45 299.99 783.32 300.03 783.19 300.07 782.94 300.14 782.69 300.21 782.43 300.21 782.17 300.22 781.92 300.16 781.66 300.10 781.43 299.99 781.20 299.87 781.00 299.71 780.81 299.54 780.65 299.33 780.50 299.12 780.40 298.88 780.31 298.64 780.27 298.38 780.23 298.13 780.26 297.87 780.28 297.61 780.37 297.37 780.46 297.12 780.60 296.91 780.74 296.69 780.93 296.51 781.12 296.34 781.35 296.21 781.58 296.09 780.90 297.04 780.22 297.99 781.97 296.37 783.73 294.75 783.73 294.75 783.73 294.75 783.73 294.75 783.73 294.74 783.73 294.74 783.73 294.74 783.73 294.74 783.73 294.74 783.73 294.74 783.73 294.74 783.73 294.74 783.74 294.74 783.74 294.74 783.74 294.74 783.74 294.74 783.74 294.74 783.74 294.74 783.74 294.74 783.74 294.74 783.74 294.74 783.75 294.74 783.75 294.74 783.75 294.75 783.75 294.75 783.75 294.75 783.75 294.75 783.74 294.75 783.74 294.75 783.73 294.75 783.73 294.75 783.73 294.75 783.73 294.75 783.73 294.75 783.73 294.74 783.73 294.74 783.73 294.74 783.73 294.74 783.73 294.74 783.73 294.74 783.73 294.74 783.73 294.74 783.74 294.74 783.74 294.74 783.74 294.74 783.74 294.74 783.74 294.74 783.74 294.74 783.74 294.74 783.74 294.74 783.74 294.74 783.75 294.74 783.75 294.74 783.75 294.75 783.75 294.75 783.75 294.75 783.75 294.75 784.11 296.15 784.48 297.55 783.83 298.81 783.19 300.07 782.94 300.14 782.69 300.21 782.43 300.21 782.17 300.22 781.92 300.16 781.67 300.10 781.43 299.99 781.20 299.87 781.00 299.71 780.81 299.54 780.65 299.33 780.50 299.12 780.40 298.88 780.31 298.64 780.27 298.38 780.23 298.13 780.26 297.87 780.28 297.61 780.37 297.37 780.46 297.12 780.60 296.91 780.74 296.69 780.93 296.51 781.12 296.34 781.35 296.21 781.58 296.09 781.47 296.22 781.36 296.36 781.87 295.65 782.38 294.95 782.74 294.21 783.10 293.46 784.26 293.45 785.42 293.43 784.85 294.53 784.28 295.63 784.87 296.69 785.46 297.75 786.12 298.22 786.77 298.69 787.65 299.28 788.53 299.87 789.33 300.65 790.13 301.44 790.13 301.45 Z" data-drauu_index="13"></path><path fill="#ff595e" d="M 749.43 342.72 Q 749.43 342.72 749.38 343.68 749.32 344.63 748.14 344.76 746.95 344.89 746.82 344.92 746.69 344.94 746.51 344.83 746.32 344.73 746.17 344.59 746.02 344.44 745.91 344.27 745.79 344.09 745.72 343.89 745.66 343.70 745.64 343.49 745.62 343.28 745.65 343.07 745.68 342.87 745.76 342.67 745.84 342.48 745.96 342.31 746.09 342.14 746.25 342.01 746.41 341.87 746.60 341.78 746.79 341.69 746.99 341.65 747.20 341.60 747.41 341.61 747.61 341.61 747.82 341.67 748.02 341.73 748.47 342.96 748.93 344.19 748.34 344.99 747.76 345.80 746.78 346.72 745.81 347.63 744.13 346.52 742.46 345.41 742.46 345.41 742.46 345.42 742.46 345.42 742.46 345.42 742.46 345.42 742.46 345.42 742.46 345.42 742.46 345.42 742.45 345.42 742.45 345.42 742.45 345.42 742.45 345.41 742.45 345.41 742.45 345.41 742.45 345.41 742.45 345.41 742.45 345.41 742.45 345.41 742.45 345.41 742.45 345.41 742.45 345.41 742.45 345.40 742.45 345.40 742.45 345.40 742.45 345.40 742.45 345.40 742.45 345.40 742.46 345.41 742.46 345.41 742.46 345.41 742.46 345.41 742.46 345.42 742.46 345.42 742.46 345.42 742.46 345.42 742.46 345.42 742.46 345.42 742.46 345.42 742.45 345.42 742.45 345.42 742.45 345.42 742.45 345.41 742.45 345.41 742.45 345.41 742.45 345.41 742.45 345.41 742.45 345.41 742.45 345.41 742.45 345.41 742.45 345.41 742.45 345.41 742.45 345.40 742.45 345.40 742.45 345.40 742.45 345.40 742.45 345.40 743.37 344.77 744.30 344.15 744.95 343.60 745.60 343.04 746.14 343.99 746.69 344.94 746.51 344.83 746.32 344.73 746.17 344.59 746.02 344.44 745.91 344.27 745.79 344.09 745.72 343.89 745.66 343.70 745.64 343.49 745.62 343.28 745.65 343.07 745.68 342.87 745.76 342.67 745.84 342.48 745.96 342.31 746.09 342.14 746.25 342.01 746.41 341.87 746.60 341.78 746.79 341.69 746.99 341.65 747.20 341.60 747.41 341.61 747.61 341.61 747.82 341.67 748.02 341.73 747.81 341.90 747.61 342.07 748.52 342.38 749.42 342.70 749.43 342.71 Z" data-drauu_index="14"></path><path fill="#ff595e" d="M 705.93 338.24 Q 705.93 338.24 706.58 337.46 707.22 336.69 707.61 336.58 707.99 336.48 708.21 336.51 708.42 336.53 708.62 336.61 708.81 336.69 708.99 336.81 709.16 336.93 709.31 337.09 709.45 337.25 709.55 337.43 709.64 337.62 709.70 337.83 709.75 338.04 709.75 338.25 709.75 338.46 709.70 338.67 709.64 338.87 709.55 339.06 709.45 339.25 709.31 339.41 709.16 339.57 708.99 339.69 708.81 339.81 708.62 339.89 708.42 339.96 708.20 339.99 707.99 340.01 708.00 338.32 708.00 336.63 708.01 336.63 708.01 336.64 708.01 336.64 708.02 336.64 708.01 336.56 707.99 336.48 708.20 336.51 708.42 336.53 708.62 336.61 708.81 336.69 708.99 336.81 709.16 336.93 709.31 337.09 709.45 337.25 709.55 337.43 709.64 337.62 709.70 337.83 709.75 338.04 709.75 338.25 709.75 338.46 709.70 338.67 709.64 338.87 709.55 339.06 709.45 339.25 709.31 339.41 709.16 339.57 708.99 339.69 708.81 339.81 708.62 339.89 708.42 339.96 708.21 339.99 707.99 340.01 707.61 339.91 707.22 339.81 706.58 339.03 705.93 338.26 705.93 338.25 Z" data-drauu_index="15"></path><path fill="#ff595e" d="M 715.98 260.19 Q 715.98 260.19 715.93 260.80 715.88 261.41 716.36 260.76 716.83 260.12 716.83 260.12 716.83 260.12 716.83 260.12 716.83 260.12 716.83 260.12 716.83 260.12 716.82 260.12 716.82 260.12 716.82 260.12 716.82 260.11 716.82 260.11 716.82 260.11 716.82 260.11 716.82 260.11 716.82 260.11 716.82 260.11 716.82 260.11 716.82 260.11 716.82 260.10 716.82 260.10 716.82 260.10 716.82 260.10 716.82 260.10 716.82 260.10 716.82 260.10 716.82 260.10 716.83 260.10 716.83 260.11 716.83 260.11 716.83 260.12 716.83 260.12 716.83 260.12 716.83 260.12 716.83 260.12 716.83 260.12 716.83 260.12 716.82 260.12 716.82 260.12 716.82 260.12 716.82 260.11 716.82 260.11 716.82 260.11 716.82 260.11 716.82 260.11 716.82 260.11 716.82 260.11 716.82 260.11 716.82 260.11 716.82 260.10 716.82 260.10 716.82 260.10 716.82 260.10 716.82 260.10 716.82 260.10 716.82 260.10 716.82 260.10 715.80 259.85 714.78 259.60 715.37 259.89 715.97 260.17 715.97 260.18 Z" data-drauu_index="16"></path><path fill="#ff595e" d="M 714.87 252.93 Q 714.87 252.93 715.74 253.58 716.61 254.22 716.95 255.31 717.30 256.41 717.66 257.21 718.02 258.01 718.35 259.20 718.67 260.39 718.94 261.27 719.21 262.15 719.75 263.58 720.30 265.02 720.83 265.92 721.37 266.82 721.50 267.04 721.62 267.26 721.69 267.50 721.76 267.74 721.77 267.99 721.79 268.24 721.74 268.49 721.68 268.74 721.58 268.97 721.47 269.19 721.31 269.39 721.15 269.59 720.95 269.74 720.75 269.89 720.52 269.99 720.28 270.09 720.04 270.13 719.79 270.17 719.53 270.15 719.28 270.13 719.04 270.05 718.80 269.97 718.59 269.83 718.38 269.70 718.20 269.52 718.03 269.34 718.44 267.75 718.86 266.16 718.31 266.88 717.77 267.60 717.43 266.78 717.09 265.96 716.13 265.25 715.18 264.53 714.47 264.23 713.77 263.93 713.05 263.67 712.33 263.41 711.37 262.97 710.42 262.54 710.67 262.68 710.91 262.81 710.67 262.77 710.42 262.72 710.20 262.61 709.97 262.51 709.78 262.35 709.58 262.20 709.43 262.00 709.28 261.80 709.18 261.57 709.08 261.34 709.04 261.10 708.99 260.85 709.01 260.60 709.03 260.35 709.11 260.12 709.18 259.88 709.32 259.67 709.45 259.45 709.63 259.28 709.80 259.10 710.02 258.98 710.23 258.85 710.47 258.78 710.71 258.71 710.96 258.70 711.21 258.68 712.11 259.05 713.01 259.43 714.12 259.55 715.22 259.68 716.30 260.12 717.37 260.56 718.32 260.95 719.27 261.34 719.49 259.97 719.70 258.61 719.96 257.51 720.22 256.42 720.36 255.23 720.51 254.04 720.53 253.57 720.55 253.10 720.60 252.85 720.66 252.61 720.77 252.38 720.88 252.15 721.05 251.96 721.21 251.76 721.42 251.61 721.62 251.46 721.86 251.37 722.10 251.27 722.35 251.23 722.60 251.20 722.85 251.22 723.11 251.25 723.35 251.33 723.59 251.41 723.80 251.55 724.01 251.69 724.18 251.88 724.36 252.07 724.48 252.29 724.60 252.51 724.67 252.76 724.74 253.00 724.74 253.26 724.75 253.51 724.35 254.79 723.95 256.07 723.68 256.90 723.42 257.73 721.94 259.72 720.45 261.71 720.45 261.71 720.44 261.71 720.44 261.71 720.43 261.71 719.84 259.96 719.25 258.22 719.35 257.35 719.44 256.49 719.99 254.80 720.55 253.10 720.60 252.85 720.66 252.61 720.77 252.38 720.88 252.15 721.05 251.96 721.21 251.76 721.42 251.61 721.62 251.46 721.86 251.37 722.10 251.27 722.35 251.23 722.60 251.20 722.85 251.22 723.11 251.25 723.35 251.33 723.59 251.41 723.80 251.55 724.01 251.69 724.18 251.88 724.36 252.07 724.48 252.29 724.60 252.51 724.67 252.76 724.74 253.00 724.74 253.26 724.75 253.51 724.74 253.76 724.72 254.01 724.64 254.78 724.57 255.55 724.43 256.46 724.30 257.37 724.01 258.61 723.73 259.84 723.47 260.68 723.21 261.51 722.77 262.78 722.32 264.06 721.65 264.57 720.99 265.09 720.01 265.30 719.03 265.50 717.97 265.23 716.90 264.95 715.79 264.37 714.68 263.79 713.76 263.66 712.84 263.52 711.88 263.17 710.91 262.81 710.67 262.77 710.42 262.72 710.20 262.61 709.97 262.51 709.78 262.35 709.58 262.20 709.43 262.00 709.28 261.80 709.18 261.57 709.08 261.34 709.04 261.10 708.99 260.85 709.01 260.60 709.03 260.35 709.11 260.12 709.18 259.88 709.32 259.67 709.45 259.45 709.63 259.28 709.80 259.10 710.02 258.98 710.23 258.85 710.47 258.78 710.71 258.71 710.96 258.70 711.21 258.68 711.29 258.69 711.36 258.70 712.51 259.05 713.65 259.40 714.35 259.74 715.04 260.08 715.77 260.31 716.50 260.53 717.27 261.05 718.05 261.56 718.86 262.36 719.68 263.15 720.20 263.72 720.72 264.29 721.14 265.14 721.56 265.99 721.76 266.87 721.96 267.75 721.35 268.83 720.74 269.90 721.06 268.36 721.37 266.82 721.50 267.04 721.62 267.26 721.69 267.50 721.76 267.74 721.77 267.99 721.79 268.24 721.74 268.49 721.68 268.74 721.58 268.97 721.47 269.19 721.31 269.39 721.15 269.59 720.95 269.74 720.75 269.89 720.52 269.99 720.28 270.09 720.04 270.13 719.79 270.17 719.53 270.15 719.28 270.13 719.04 270.05 718.81 269.97 718.59 269.83 718.38 269.70 718.20 269.52 718.03 269.34 717.90 269.01 717.78 268.68 717.09 267.55 716.40 266.41 716.14 265.65 715.88 264.89 715.58 264.10 715.28 263.31 715.00 262.35 714.72 261.39 714.26 259.91 713.80 258.43 713.58 257.51 713.37 256.59 713.24 255.40 713.11 254.22 713.98 253.58 714.85 252.93 714.86 252.93 Z" data-drauu_index="17"></path><path fill="#ff595e" d="M 744.96 259.06 Q 744.96 259.06 745.09 258.33 745.23 257.60 745.68 256.45 746.14 255.29 746.66 254.54 747.18 253.78 747.49 253.09 747.80 252.40 748.52 251.58 749.25 250.76 749.92 250.19 750.59 249.63 750.62 249.52 750.65 249.42 750.88 249.39 751.10 249.37 751.33 249.40 751.56 249.43 751.77 249.52 751.98 249.60 752.17 249.73 752.36 249.86 752.51 250.04 752.65 250.21 752.76 250.42 752.86 250.62 752.91 250.84 752.96 251.07 752.96 251.29 752.96 251.52 752.90 251.74 752.84 251.97 752.73 252.17 752.62 252.37 752.47 252.54 752.32 252.71 752.13 252.83 751.94 252.96 751.72 253.04 751.50 253.12 751.56 254.37 751.62 255.62 751.36 256.81 751.11 257.99 750.72 259.43 750.33 260.87 749.80 262.10 749.26 263.34 748.92 264.23 748.59 265.13 748.28 265.99 747.98 266.84 747.67 267.60 747.35 268.35 746.65 269.39 745.95 270.44 745.53 271.19 745.11 271.95 744.54 272.46 743.97 272.97 742.84 272.79 741.72 272.60 741.11 271.85 740.50 271.10 740.34 270.34 740.17 269.57 740.11 268.60 740.06 267.63 740.05 266.38 740.05 265.13 740.05 264.23 740.05 263.33 739.74 262.75 739.43 262.16 739.30 261.93 739.18 261.70 739.11 261.45 739.05 261.20 739.04 260.94 739.04 260.68 739.10 260.43 739.16 260.17 739.27 259.94 739.39 259.71 739.56 259.51 739.73 259.31 739.94 259.16 740.15 259.01 740.40 258.92 740.64 258.82 740.89 258.79 741.15 258.75 741.41 258.78 741.67 258.81 741.91 258.90 742.16 258.98 742.37 259.13 742.59 259.27 742.76 259.47 742.94 259.66 743.06 260.70 743.18 261.75 743.20 262.67 743.23 263.59 743.22 264.41 743.22 265.23 743.22 266.00 743.22 266.76 742.80 266.08 742.38 265.40 743.55 264.46 744.72 263.51 745.45 262.99 746.19 262.47 746.86 261.91 747.54 261.34 748.00 260.88 748.46 260.42 748.66 260.27 748.86 260.12 749.10 260.02 749.33 259.92 749.58 259.88 749.83 259.84 750.08 259.86 750.33 259.88 750.57 259.96 750.81 260.05 751.02 260.18 751.23 260.32 751.41 260.50 751.58 260.68 751.71 260.90 751.83 261.12 751.90 261.36 751.97 261.60 751.98 261.86 751.99 262.11 751.94 262.36 751.89 262.60 751.78 262.83 751.67 263.06 751.51 263.25 751.35 263.45 750.36 264.44 749.37 265.43 748.46 266.20 747.55 266.97 746.87 267.68 746.18 268.38 745.45 269.01 744.73 269.64 743.27 270.66 741.81 271.68 741.81 271.68 741.80 271.68 741.80 271.68 741.79 271.67 742.17 269.68 742.54 267.68 743.04 266.96 743.53 266.24 744.20 265.26 744.87 264.29 746.09 262.90 747.32 261.52 747.89 260.97 748.46 260.42 748.66 260.27 748.86 260.12 749.09 260.02 749.33 259.92 749.58 259.88 749.83 259.84 750.08 259.86 750.33 259.88 750.57 259.96 750.81 260.04 751.02 260.18 751.23 260.32 751.41 260.50 751.58 260.68 751.71 260.90 751.83 261.12 751.90 261.36 751.97 261.60 751.98 261.86 751.99 262.11 751.94 262.36 751.89 262.60 751.78 262.83 751.67 263.06 751.51 263.25 751.35 263.45 751.15 263.61 750.96 263.78 750.26 264.43 749.56 265.09 748.59 265.84 747.62 266.60 746.88 267.32 746.13 268.03 744.97 268.80 743.80 269.57 742.96 269.73 742.11 269.89 741.30 269.63 740.50 269.37 740.02 268.78 739.55 268.20 739.23 267.48 738.91 266.76 738.90 265.64 738.90 264.51 738.91 263.70 738.91 262.89 738.98 261.70 739.05 260.52 739.24 261.34 739.43 262.16 739.30 261.93 739.18 261.70 739.11 261.45 739.05 261.20 739.04 260.94 739.04 260.68 739.10 260.43 739.16 260.17 739.27 259.94 739.39 259.71 739.56 259.51 739.73 259.31 739.94 259.16 740.15 259.01 740.40 258.92 740.64 258.82 740.89 258.79 741.15 258.75 741.41 258.78 741.67 258.81 741.91 258.90 742.16 258.98 742.37 259.13 742.59 259.27 742.76 259.47 742.94 259.66 743.26 260.29 743.58 260.91 743.90 261.61 744.22 262.31 744.27 263.26 744.31 264.20 744.32 265.36 744.33 266.51 744.34 267.42 744.36 268.34 744.30 269.18 744.24 270.03 743.44 269.81 742.64 269.60 741.94 270.16 741.24 270.72 741.64 269.86 742.04 269.00 742.54 268.15 743.03 267.30 743.52 266.36 744.01 265.41 744.34 264.51 744.67 263.60 745.08 262.61 745.48 261.62 745.93 260.68 746.38 259.74 747.00 257.69 747.61 255.64 748.00 254.39 748.39 253.13 748.72 252.11 749.04 251.09 749.85 250.25 750.65 249.42 750.88 249.39 751.10 249.37 751.33 249.40 751.56 249.43 751.77 249.52 751.98 249.60 752.17 249.73 752.36 249.86 752.50 250.04 752.65 250.21 752.76 250.42 752.86 250.62 752.91 250.84 752.96 251.07 752.96 251.29 752.96 251.52 752.90 251.74 752.84 251.97 752.73 252.17 752.62 252.37 752.47 252.54 752.32 252.71 752.13 252.83 751.94 252.96 751.72 253.04 751.51 253.12 751.00 253.08 750.49 253.04 749.81 253.69 749.12 254.33 748.27 255.11 747.41 255.89 746.70 256.93 745.99 257.98 745.48 258.52 744.98 259.07 744.97 259.07 Z" data-drauu_index="18"></path><path fill="#ff595e" d="M 768.95 288.07 Q 768.95 288.07 769.28 289.03 769.60 290.00 768.97 290.78 768.34 291.57 767.51 291.75 766.68 291.93 765.62 292.60 764.57 293.26 763.20 293.92 761.83 294.58 761.02 294.75 760.22 294.93 759.32 295.02 758.43 295.11 757.61 295.36 756.79 295.61 756.95 295.60 757.11 295.59 756.91 295.75 756.71 295.90 756.48 295.99 756.24 296.09 756.00 296.13 755.75 296.17 755.50 296.15 755.25 296.13 755.01 296.05 754.78 295.97 754.56 295.84 754.35 295.70 754.18 295.52 754.01 295.34 753.88 295.12 753.76 294.91 753.69 294.67 753.62 294.43 753.61 294.18 753.60 293.93 753.65 293.68 753.70 293.44 753.81 293.21 753.91 292.98 754.07 292.79 754.23 292.60 755.31 292.36 756.39 292.12 757.21 292.44 758.03 292.77 759.08 292.48 760.14 292.20 761.27 291.95 762.40 291.69 762.53 291.84 762.67 291.99 762.87 292.00 763.07 292.01 763.26 292.07 763.45 292.13 763.62 292.23 763.79 292.33 763.94 292.47 764.08 292.61 764.18 292.78 764.29 292.95 764.35 293.14 764.41 293.33 764.42 293.52 764.44 293.72 764.40 293.92 764.37 294.12 764.29 294.30 764.21 294.48 764.09 294.64 763.97 294.80 763.81 294.92 763.66 295.04 763.48 295.13 763.30 295.21 763.10 295.25 762.91 295.29 762.01 293.02 761.11 290.76 761.11 290.76 761.11 290.75 761.12 290.75 761.12 290.75 761.90 291.37 762.67 291.99 762.87 292.00 763.07 292.01 763.26 292.07 763.45 292.13 763.62 292.23 763.79 292.33 763.94 292.47 764.08 292.61 764.18 292.78 764.29 292.95 764.35 293.14 764.41 293.33 764.42 293.52 764.44 293.72 764.40 293.92 764.37 294.12 764.29 294.30 764.21 294.48 764.09 294.64 763.97 294.80 763.81 294.92 763.66 295.04 763.48 295.13 763.30 295.21 763.10 295.25 762.91 295.29 762.84 295.51 762.78 295.73 761.45 296.07 760.11 296.40 759.33 296.60 758.55 296.80 757.01 296.50 755.47 296.19 756.29 295.89 757.11 295.59 756.91 295.74 756.71 295.90 756.48 295.99 756.24 296.09 756.00 296.13 755.75 296.17 755.50 296.15 755.25 296.13 755.01 296.05 754.78 295.97 754.56 295.84 754.35 295.70 754.18 295.52 754.01 295.34 753.88 295.12 753.76 294.91 753.69 294.67 753.62 294.43 753.61 294.18 753.60 293.93 753.65 293.68 753.70 293.44 753.81 293.21 753.91 292.98 754.07 292.79 754.23 292.60 754.30 292.53 754.38 292.46 755.24 292.02 756.11 291.59 756.81 291.31 757.51 291.03 758.48 290.96 759.44 290.88 760.51 290.60 761.57 290.31 762.60 289.81 763.63 289.31 765.32 289.00 767.00 288.70 767.97 288.38 768.94 288.06 768.94 288.06 Z" data-drauu_index="19"></path><path fill="#ff595e" d="M 755.01 288.06 Q 755.01 288.06 755.78 288.38 756.55 288.71 756.52 288.89 756.50 289.07 756.44 289.25 756.37 289.42 756.26 289.57 756.16 289.73 756.02 289.85 755.88 289.97 755.72 290.06 755.55 290.15 755.37 290.19 755.19 290.24 755.00 290.24 754.82 290.24 754.64 290.19 754.46 290.15 754.29 290.06 754.13 289.97 753.99 289.85 753.85 289.73 753.74 289.57 753.64 289.42 753.57 289.25 753.51 289.07 753.48 288.89 753.46 288.70 753.77 287.95 754.09 287.20 754.74 286.15 755.40 285.10 756.12 284.63 756.83 284.16 757.79 283.65 758.76 283.14 759.40 282.68 760.04 282.22 760.17 282.06 760.30 281.89 760.47 281.75 760.63 281.61 760.83 281.51 761.02 281.41 761.24 281.37 761.45 281.32 761.67 281.32 761.88 281.33 762.09 281.38 762.30 281.44 762.50 281.54 762.69 281.65 762.85 281.79 763.01 281.94 763.13 282.12 763.25 282.30 763.32 282.51 763.39 282.71 763.42 282.93 763.44 283.15 763.41 283.36 763.38 283.58 763.30 283.78 763.22 283.98 763.09 284.16 762.96 284.34 762.31 284.98 761.65 285.61 760.53 286.50 759.41 287.40 758.43 288.41 757.44 289.43 756.97 290.22 756.49 291.01 756.22 291.80 755.94 292.58 756.31 293.33 756.68 294.09 758.70 294.83 760.72 295.58 760.72 295.59 760.73 295.59 760.73 295.60 760.73 295.60 758.90 296.99 757.07 298.39 756.17 298.07 755.27 297.76 754.48 297.29 753.68 296.83 753.09 296.05 752.50 295.26 752.25 294.53 752.01 293.80 752.10 292.94 752.18 292.08 752.54 291.15 752.90 290.22 753.51 289.06 754.11 287.90 755.02 287.01 755.92 286.11 756.47 285.43 757.02 284.74 758.08 283.91 759.14 283.07 759.72 282.48 760.30 281.89 760.47 281.75 760.63 281.61 760.83 281.51 761.02 281.41 761.24 281.37 761.45 281.32 761.67 281.32 761.88 281.33 762.09 281.38 762.30 281.44 762.49 281.54 762.69 281.65 762.85 281.79 763.01 281.94 763.13 282.12 763.25 282.30 763.32 282.51 763.39 282.71 763.42 282.93 763.44 283.15 763.41 283.36 763.38 283.58 763.30 283.78 763.22 283.98 763.09 284.16 762.96 284.34 762.62 284.69 762.28 285.04 761.44 285.64 760.61 286.25 759.22 286.99 757.83 287.73 757.19 288.22 756.55 288.70 756.52 288.89 756.50 289.07 756.44 289.25 756.37 289.42 756.26 289.57 756.16 289.73 756.02 289.85 755.88 289.97 755.72 290.06 755.55 290.15 755.37 290.19 755.19 290.24 755.00 290.24 754.82 290.24 754.64 290.19 754.46 290.15 754.29 290.06 754.13 289.97 753.99 289.85 753.85 289.73 753.74 289.57 753.64 289.42 753.57 289.25 753.51 289.07 753.48 288.89 753.46 288.71 754.23 288.38 754.99 288.06 755.00 288.06 Z" data-drauu_index="20"></path><path fill="#ff595e" d="M 738.27 324.22 Q 738.27 324.22 738.27 324.22 738.28 324.22 738.28 324.22 738.29 324.22 738.28 324.22 Z" data-drauu_index="21"></path><path fill="#ff595e" d="M 738.27 322.08 Q 738.27 322.08 737.86 321.44 737.46 320.80 737.40 319.79 737.34 318.78 737.23 317.95 737.13 317.12 737.42 316.44 737.72 315.76 737.90 315.65 738.07 315.54 738.27 315.48 738.46 315.42 738.67 315.40 738.87 315.39 739.08 315.42 739.28 315.46 739.47 315.54 739.66 315.62 739.82 315.75 739.98 315.87 740.11 316.03 740.24 316.19 740.33 316.38 740.42 316.57 740.46 316.77 740.49 316.97 740.48 317.18 740.47 317.38 740.42 317.58 740.36 317.78 740.25 317.95 740.15 318.13 740.00 318.28 739.86 318.43 740.22 317.63 740.59 316.83 740.88 317.76 741.16 318.69 741.24 319.52 741.32 320.35 741.50 321.34 741.68 322.34 742.14 323.58 742.60 324.82 742.89 325.61 743.18 326.41 743.33 327.20 743.49 327.99 743.93 328.66 744.37 329.32 744.33 329.47 744.29 329.62 744.43 329.77 744.57 329.91 744.68 330.09 744.78 330.27 744.84 330.46 744.90 330.66 744.91 330.86 744.92 331.07 744.88 331.27 744.84 331.47 744.75 331.65 744.66 331.84 744.54 332.00 744.41 332.16 744.24 332.28 744.08 332.41 743.89 332.49 743.71 332.57 743.50 332.60 743.30 332.64 743.10 332.62 742.90 332.61 742.70 332.54 742.51 332.48 742.33 332.37 742.16 332.26 742.06 330.08 741.97 327.89 741.97 327.88 741.98 327.88 741.98 327.88 741.98 327.88 743.14 328.75 744.29 329.62 744.43 329.77 744.57 329.91 744.68 330.09 744.78 330.27 744.84 330.46 744.90 330.66 744.91 330.86 744.92 331.07 744.88 331.27 744.84 331.47 744.75 331.65 744.66 331.84 744.54 332.00 744.41 332.16 744.24 332.28 744.08 332.41 743.89 332.49 743.71 332.57 743.51 332.60 743.30 332.64 743.10 332.62 742.90 332.61 742.70 332.54 742.51 332.48 742.33 332.37 742.16 332.26 741.89 332.27 741.63 332.27 740.81 331.21 740.00 330.15 739.63 328.98 739.27 327.80 739.02 327.09 738.77 326.38 738.49 325.66 738.21 324.95 737.98 324.17 737.75 323.39 737.56 322.54 737.38 321.69 737.46 320.51 737.53 319.33 737.34 318.50 737.15 317.67 737.43 316.71 737.72 315.76 737.90 315.65 738.07 315.54 738.27 315.48 738.46 315.42 738.67 315.40 738.87 315.39 739.08 315.42 739.28 315.46 739.47 315.54 739.66 315.62 739.82 315.75 739.98 315.87 740.11 316.03 740.24 316.19 740.33 316.38 740.42 316.57 740.46 316.77 740.49 316.97 740.48 317.18 740.47 317.38 740.42 317.58 740.36 317.78 740.25 317.95 740.15 318.13 740.00 318.28 739.86 318.43 739.54 318.61 739.21 318.78 739.15 319.79 739.09 320.80 738.69 321.44 738.29 322.08 738.28 322.08 Z" data-drauu_index="22"></path><path fill="#ff595e" d="M 737.73 317.07 Q 737.73 317.07 737.95 318.23 738.17 319.40 737.82 320.38 737.46 321.37 737.41 322.14 737.36 322.91 737.32 323.13 737.28 323.36 737.19 323.56 737.10 323.77 736.96 323.94 736.82 324.12 736.65 324.26 736.47 324.40 736.27 324.50 736.06 324.59 735.84 324.63 735.62 324.68 735.40 324.66 735.17 324.65 734.96 324.59 734.74 324.52 734.55 324.41 734.36 324.29 734.20 324.13 734.04 323.98 733.92 323.78 733.80 323.59 733.73 323.38 733.66 323.16 733.65 322.94 733.63 322.72 733.95 321.77 734.26 320.83 734.65 319.94 735.04 319.04 735.14 317.90 735.23 316.76 735.49 315.47 735.74 314.18 736.07 313.40 736.40 312.63 737.30 311.53 738.19 310.43 738.97 310.25 739.76 310.07 740.55 310.25 741.35 310.44 742.18 310.65 743.02 310.85 743.76 311.20 744.51 311.54 745.45 311.92 746.39 312.31 747.04 314.26 747.69 316.20 747.68 316.20 747.68 316.20 747.67 316.20 747.67 316.20 745.49 315.90 743.31 315.59 742.54 315.25 741.76 314.91 740.86 314.24 739.96 313.57 739.48 314.69 738.99 315.81 738.92 317.13 738.85 318.45 738.68 319.41 738.52 320.37 737.94 321.64 737.36 322.91 737.32 323.13 737.28 323.36 737.19 323.56 737.10 323.77 736.96 323.94 736.82 324.12 736.65 324.26 736.47 324.40 736.27 324.50 736.06 324.59 735.84 324.63 735.62 324.68 735.40 324.66 735.17 324.65 734.96 324.59 734.74 324.52 734.55 324.41 734.36 324.29 734.20 324.13 734.04 323.98 733.92 323.78 733.80 323.59 733.73 323.38 733.66 323.16 733.65 322.94 733.63 322.72 733.71 321.96 733.78 321.21 734.08 320.13 734.38 319.06 734.86 318.17 735.34 317.29 736.52 317.17 737.71 317.05 737.72 317.06 Z" data-drauu_index="23"></path><path fill="#ff595e" d="M 702.03 319.28 Q 702.03 319.28 702.40 318.79 702.77 318.30 705.29 318.51 707.81 318.73 707.81 318.73 707.81 318.74 707.81 318.74 707.81 318.75 705.51 319.19 703.21 319.64 702.62 319.47 702.03 319.30 702.03 319.29 Z" data-drauu_index="24"></path><path fill="#ff595e" d="M 712.63 316.51 Q 712.63 316.51 712.43 317.72 712.23 318.92 711.51 319.25 710.80 319.58 709.81 319.81 708.83 320.03 707.85 320.23 706.88 320.42 706.14 320.80 705.39 321.18 704.95 321.55 704.50 321.92 704.30 322.05 704.09 322.19 703.87 322.28 703.64 322.36 703.39 322.39 703.15 322.42 702.91 322.39 702.67 322.36 702.44 322.27 702.21 322.19 702.01 322.05 701.81 321.91 701.65 321.72 701.49 321.54 701.37 321.32 701.26 321.11 701.20 320.87 701.15 320.63 701.15 320.39 701.15 320.14 701.21 319.91 701.27 319.67 701.38 319.46 701.49 319.24 701.66 319.06 701.82 318.87 702.66 318.62 703.51 318.37 704.48 318.06 705.46 317.75 706.76 317.21 708.07 316.67 708.86 316.51 709.66 316.35 710.62 316.06 711.59 315.77 712.44 315.49 713.30 315.20 714.69 315.62 716.08 316.03 716.49 316.82 716.89 317.62 716.91 318.64 716.94 319.66 716.76 320.71 716.59 321.77 716.29 322.51 716.00 323.25 715.58 324.07 715.17 324.88 715.42 323.94 715.68 323.00 715.68 323.00 715.67 323.00 715.67 323.00 715.67 323.00 715.67 323.00 715.67 323.00 715.67 323.00 715.67 323.00 715.67 323.00 715.67 323.00 715.66 323.00 715.66 323.00 715.66 323.00 715.66 323.00 715.66 323.00 715.66 323.00 715.66 323.00 715.66 322.99 715.66 322.99 715.66 322.99 715.66 322.99 715.66 322.99 715.66 322.99 715.66 322.99 715.66 322.99 715.66 322.99 715.66 322.99 715.67 322.99 715.67 322.99 715.68 323.00 715.68 323.00 715.67 323.00 715.67 323.00 715.67 323.00 715.67 323.00 715.67 323.00 715.67 323.00 715.67 323.00 715.67 323.00 715.67 323.00 715.66 323.00 715.66 323.00 715.66 323.00 715.66 323.00 715.66 323.00 715.66 323.00 715.66 323.00 715.66 322.99 715.66 322.99 715.66 322.99 715.66 322.99 715.66 322.99 715.66 322.99 715.66 322.99 715.66 322.99 715.66 322.99 713.70 323.05 711.73 323.12 711.95 322.36 712.16 321.59 712.46 320.63 712.76 319.68 712.76 318.87 712.75 318.06 713.25 318.65 713.76 319.24 712.82 319.54 711.88 319.83 710.68 320.15 709.48 320.47 708.23 320.99 706.97 321.51 705.73 321.71 704.50 321.92 704.30 322.05 704.09 322.19 703.87 322.28 703.64 322.36 703.39 322.39 703.15 322.42 702.91 322.39 702.67 322.36 702.44 322.27 702.21 322.19 702.01 322.05 701.81 321.91 701.65 321.72 701.49 321.54 701.37 321.32 701.26 321.11 701.20 320.87 701.15 320.63 701.15 320.39 701.15 320.14 701.21 319.91 701.27 319.67 701.38 319.46 701.49 319.24 701.66 319.06 701.82 318.88 702.35 318.42 702.88 317.96 703.65 317.51 704.41 317.06 705.12 316.79 705.83 316.52 707.31 316.32 708.78 316.13 709.62 315.75 710.46 315.37 711.54 315.93 712.62 316.49 712.63 316.50 Z" data-drauu_index="25"></path><path fill="#ff595e" d="M 713.75 317.07 Q 713.75 317.07 714.11 318.00 714.46 318.93 714.03 320.20 713.60 321.47 712.87 322.87 712.14 324.26 710.50 324.13 708.87 324.00 708.87 324.00 708.87 324.00 708.87 324.00 708.86 324.00 708.86 324.00 708.86 324.00 708.86 324.00 708.86 324.00 708.86 324.00 708.86 324.00 708.86 324.00 708.85 324.00 708.85 324.00 708.85 324.00 708.85 324.00 708.85 324.00 708.85 324.00 708.85 324.00 708.85 324.00 708.85 323.99 708.85 323.99 708.85 323.99 708.85 323.99 708.85 323.99 708.85 323.99 708.85 323.99 708.86 323.99 708.86 323.99 708.86 324.00 708.87 324.00 708.87 324.00 708.87 324.00 708.87 324.00 708.86 324.00 708.86 324.00 708.86 324.00 708.86 324.00 708.86 324.00 708.86 324.00 708.86 324.00 708.86 324.00 708.85 324.00 708.85 324.00 708.85 324.00 708.85 324.00 708.85 324.00 708.85 324.00 708.85 324.00 708.85 324.00 708.85 323.99 708.85 323.99 708.85 323.99 708.85 323.99 708.85 323.99 708.85 323.99 708.85 323.99 708.56 323.53 708.27 323.06 708.92 322.04 709.57 321.02 710.01 320.12 710.45 319.22 711.09 318.17 711.74 317.11 712.73 317.08 713.73 317.05 713.74 317.06 Z" data-drauu_index="26"></path><path fill="#ff595e" d="M 727.69 292.53 Q 727.69 292.53 728.03 293.52 728.38 294.51 728.24 294.75 728.10 295.00 727.90 295.15 727.71 295.30 727.48 295.40 727.26 295.51 727.02 295.55 726.78 295.59 726.53 295.58 726.28 295.56 726.05 295.49 725.81 295.42 725.60 295.29 725.39 295.16 725.22 294.99 725.04 294.81 724.92 294.60 724.79 294.39 724.71 294.16 724.64 293.92 724.63 293.68 724.61 293.43 724.66 293.19 724.70 292.95 724.80 292.72 724.90 292.50 725.05 292.30 725.21 292.11 724.87 292.88 724.54 293.65 724.47 292.74 724.40 291.82 724.80 290.85 725.21 289.87 725.60 289.45 725.99 289.03 726.18 288.86 726.37 288.70 726.60 288.58 726.83 288.47 727.07 288.41 727.32 288.36 727.57 288.36 727.83 288.37 728.07 288.43 728.32 288.50 728.54 288.62 728.76 288.74 728.95 288.91 729.14 289.08 729.28 289.29 729.42 289.50 729.50 289.74 729.59 289.98 729.62 290.23 729.64 290.49 729.61 290.74 729.57 290.99 729.48 291.23 729.39 291.46 729.24 291.67 729.09 291.87 729.04 290.64 729.00 289.41 729.71 290.77 730.42 292.12 729.96 293.14 729.51 294.16 728.32 294.57 727.14 294.99 726.82 295.23 726.50 295.47 726.24 295.47 725.99 295.46 725.74 295.40 725.50 295.33 725.27 295.21 725.05 295.09 724.86 294.92 724.67 294.75 724.53 294.53 724.39 294.32 724.31 294.08 724.22 293.84 724.19 293.59 724.17 293.34 724.20 293.09 724.24 292.84 724.33 292.60 724.43 292.36 724.57 292.16 724.72 291.95 724.92 291.78 725.11 291.62 725.34 291.50 725.56 291.39 725.81 291.33 726.06 291.28 725.33 292.94 724.60 294.61 724.28 293.58 723.96 292.55 724.00 291.63 724.04 290.70 724.51 289.92 724.98 289.13 725.82 288.76 726.67 288.40 728.05 288.82 729.43 289.24 729.82 290.31 730.21 291.37 729.73 292.30 729.24 293.23 728.64 294.11 728.04 294.99 726.77 295.55 725.49 296.11 724.58 295.84 723.67 295.56 723.16 294.96 722.66 294.36 722.49 293.59 722.33 292.83 722.58 291.36 722.83 289.89 723.61 289.43 724.39 288.96 725.75 289.08 727.10 289.20 727.84 289.63 728.58 290.05 729.24 290.48 729.90 290.90 730.07 291.09 730.24 291.28 730.35 291.51 730.47 291.73 730.53 291.98 730.59 292.23 730.59 292.48 730.59 292.73 730.53 292.98 730.46 293.23 730.34 293.45 730.23 293.67 730.06 293.86 729.89 294.05 729.68 294.20 729.47 294.34 729.23 294.43 728.99 294.52 728.74 294.55 728.49 294.58 728.24 294.54 727.99 294.51 727.75 294.42 727.51 294.33 727.31 294.18 727.10 294.04 727.94 294.30 728.79 294.57 727.66 295.05 726.54 295.53 725.40 295.50 724.27 295.46 723.43 294.89 722.58 294.31 722.25 293.38 721.92 292.45 722.04 291.59 722.16 290.73 723.18 289.58 724.19 288.44 724.93 288.19 725.67 287.93 726.53 288.04 727.39 288.14 728.03 290.25 728.67 292.35 727.90 291.88 727.13 291.42 727.13 291.42 727.13 291.42 727.13 291.42 727.13 291.42 727.13 291.42 727.12 291.42 727.12 291.42 727.12 291.42 727.12 291.42 727.12 291.42 727.12 291.42 727.12 291.42 727.12 291.42 727.12 291.42 727.11 291.41 727.11 291.41 727.11 291.41 727.11 291.41 727.11 291.41 727.11 291.41 727.11 291.41 727.11 291.41 727.11 291.41 727.11 291.40 727.11 291.40 727.12 291.40 727.12 291.41 727.12 291.41 727.13 291.41 727.13 291.42 727.13 291.42 727.13 291.42 727.13 291.42 727.13 291.42 727.13 291.42 727.12 291.42 727.12 291.42 727.12 291.42 727.12 291.42 727.12 291.42 727.12 291.42 727.12 291.42 727.12 291.42 727.12 291.42 727.11 291.41 727.11 291.41 727.11 291.41 727.11 291.41 727.11 291.41 727.11 291.41 727.11 291.41 727.11 291.41 727.11 291.41 727.11 291.40 727.11 291.40 727.12 291.40 726.13 290.99 725.14 290.57 725.78 289.71 726.43 288.85 726.10 290.13 725.78 291.40 726.85 290.92 727.91 290.44 728.91 290.67 729.90 290.90 730.07 291.09 730.24 291.28 730.35 291.51 730.47 291.73 730.53 291.98 730.59 292.23 730.59 292.48 730.59 292.73 730.53 292.98 730.46 293.23 730.35 293.45 730.23 293.67 730.06 293.86 729.89 294.05 729.68 294.20 729.47 294.34 729.23 294.43 728.99 294.52 728.74 294.55 728.49 294.58 728.24 294.54 727.99 294.51 727.75 294.42 727.51 294.33 727.31 294.18 727.10 294.04 726.97 294.04 726.85 294.04 726.61 293.24 726.37 292.45 725.59 292.38 724.82 292.32 725.50 291.85 726.19 291.38 726.92 291.59 727.65 291.81 727.07 293.64 726.50 295.47 726.24 295.47 725.99 295.46 725.74 295.40 725.50 295.33 725.27 295.21 725.05 295.09 724.86 294.92 724.67 294.75 724.53 294.54 724.39 294.32 724.31 294.08 724.22 293.85 724.19 293.59 724.17 293.34 724.20 293.09 724.24 292.84 724.33 292.60 724.43 292.36 724.57 292.16 724.72 291.95 724.92 291.78 725.11 291.62 725.34 291.50 725.56 291.39 725.81 291.33 726.06 291.28 726.15 291.61 726.24 291.95 726.11 290.49 725.99 289.03 726.18 288.86 726.37 288.70 726.60 288.58 726.82 288.47 727.07 288.41 727.32 288.36 727.57 288.36 727.83 288.37 728.07 288.43 728.32 288.50 728.54 288.62 728.76 288.74 728.95 288.91 729.14 289.08 729.28 289.29 729.42 289.50 729.50 289.74 729.59 289.98 729.62 290.23 729.64 290.49 729.61 290.74 729.57 290.99 729.48 291.23 729.39 291.46 729.24 291.67 729.09 291.87 728.88 292.39 728.67 292.91 728.38 293.96 728.10 295.00 727.90 295.15 727.71 295.30 727.48 295.40 727.26 295.51 727.02 295.55 726.78 295.59 726.53 295.58 726.28 295.56 726.05 295.49 725.81 295.42 725.60 295.29 725.39 295.16 725.22 294.99 725.04 294.81 724.92 294.60 724.79 294.39 724.71 294.16 724.64 293.92 724.63 293.68 724.61 293.43 724.66 293.19 724.70 292.95 724.80 292.72 724.90 292.50 725.05 292.30 725.21 292.11 725.45 291.97 725.70 291.83 726.69 292.17 727.67 292.52 727.68 292.52 Z" data-drauu_index="27"></path><path fill="#ff595e" d="M 726.57 291.40 Q 726.57 291.40 727.44 291.26 728.31 291.12 729.12 291.01 729.93 290.90 729.97 290.91 730.01 290.91 730.20 290.95 730.39 291.00 730.57 291.09 730.74 291.17 730.89 291.30 731.04 291.43 731.15 291.58 731.26 291.74 731.34 291.92 731.41 292.10 731.44 292.30 731.46 292.49 731.44 292.68 731.42 292.88 731.36 293.06 731.29 293.24 731.18 293.41 731.08 293.57 730.93 293.70 730.79 293.83 730.62 293.92 730.45 294.02 730.26 294.07 730.07 294.12 729.88 294.12 729.68 294.12 728.99 294.57 728.30 295.01 727.15 294.57 725.99 294.13 725.44 293.45 724.90 292.77 725.19 291.14 725.48 289.51 726.92 289.26 728.37 289.01 729.33 289.69 730.29 290.38 730.10 291.76 729.91 293.15 728.97 293.82 728.03 294.49 726.97 294.72 725.91 294.95 724.82 294.14 723.73 293.33 725.53 292.81 727.34 292.30 727.33 292.29 727.33 292.29 727.33 292.29 727.32 292.28 727.31 292.55 727.29 292.82 726.37 292.02 725.46 291.21 726.23 291.17 727.00 291.13 727.61 291.57 728.23 292.01 727.41 292.24 726.59 292.48 727.38 292.01 728.17 291.54 729.09 291.22 730.01 290.91 730.20 290.95 730.39 291.00 730.57 291.09 730.74 291.17 730.89 291.30 731.04 291.43 731.15 291.58 731.26 291.74 731.34 291.92 731.41 292.10 731.44 292.30 731.46 292.49 731.44 292.68 731.42 292.88 731.36 293.06 731.29 293.24 731.18 293.41 731.08 293.57 730.93 293.70 730.79 293.83 730.62 293.92 730.45 294.02 730.26 294.07 730.07 294.12 729.88 294.12 729.68 294.12 729.55 294.04 729.41 293.95 728.40 293.47 727.38 292.98 726.97 292.20 726.56 291.42 726.57 291.41 Z" data-drauu_index="28"></path><path fill="#ff595e" d="M 254.27 296.99 Q 254.27 296.99 254.75 297.40 255.23 297.80 256.35 298.06 257.47 298.31 257.40 299.80 257.33 301.30 257.77 300.63 258.21 299.96 258.21 299.96 258.20 299.97 258.20 299.97 258.20 299.97 256.25 299.49 254.31 299.00 255.05 299.72 255.79 300.44 254.97 300.44 254.14 300.44 253.45 300.13 252.75 299.82 252.39 298.32 252.03 296.81 253.15 296.90 254.27 296.98 254.27 296.99 Z" data-drauu_index="29"></path><path fill="#ff595e" d="M 291.08 265.21 Q 291.08 265.21 291.78 266.41 292.47 267.62 292.47 268.38 292.48 269.14 292.45 270.13 292.43 271.12 292.42 272.06 292.41 272.99 292.04 272.34 291.67 271.68 291.53 271.66 291.40 271.65 291.64 271.80 291.89 271.95 292.10 272.15 292.30 272.36 292.45 272.60 292.60 272.85 292.69 273.13 292.78 273.40 292.80 273.69 292.81 273.98 292.76 274.27 292.71 274.55 292.59 274.82 292.47 275.08 292.30 275.31 292.12 275.54 291.89 275.72 291.66 275.90 291.40 276.02 291.13 276.14 290.85 276.19 290.56 276.24 290.27 276.22 289.99 276.21 289.71 276.12 289.43 276.04 288.85 274.46 288.26 272.88 289.50 272.19 290.74 271.50 290.74 271.50 290.74 271.50 290.74 271.50 290.74 271.50 290.74 271.50 290.74 271.50 290.75 271.50 290.75 271.49 290.75 271.49 290.75 271.49 290.75 271.49 290.75 271.49 290.75 271.49 290.75 271.49 290.75 271.49 290.76 271.49 290.76 271.49 290.76 271.49 290.76 271.50 290.76 271.50 290.76 271.50 290.76 271.50 290.76 271.50 290.76 271.50 290.76 271.50 290.76 271.50 290.76 271.50 290.75 271.50 290.75 271.50 290.74 271.50 290.74 271.50 290.74 271.50 290.74 271.50 290.74 271.50 290.74 271.50 290.74 271.50 290.75 271.50 290.75 271.49 290.75 271.49 290.75 271.49 290.75 271.49 290.75 271.49 290.75 271.49 290.75 271.49 290.75 271.49 290.76 271.49 290.76 271.49 290.76 271.49 290.76 271.50 290.76 271.50 290.76 271.50 290.76 271.50 290.76 271.50 290.76 271.50 290.76 271.50 290.76 271.50 291.80 272.24 292.84 272.98 292.76 273.74 292.68 274.49 292.04 273.07 291.40 271.65 291.64 271.80 291.89 271.95 292.10 272.15 292.30 272.36 292.45 272.60 292.60 272.85 292.69 273.13 292.78 273.40 292.80 273.69 292.81 273.98 292.76 274.27 292.71 274.55 292.59 274.82 292.47 275.08 292.30 275.31 292.12 275.54 291.89 275.72 291.66 275.90 291.40 276.02 291.13 276.14 290.85 276.19 290.56 276.24 290.28 276.22 289.99 276.21 289.71 276.12 289.43 276.04 288.91 275.34 288.38 274.64 287.95 273.80 287.51 272.97 287.52 272.00 287.52 271.03 287.57 269.82 287.61 268.61 288.00 267.30 288.39 265.99 289.73 265.59 291.06 265.20 291.07 265.20 Z" data-drauu_index="30"></path><path fill="#ff595e" d="M 294.41 328.77 Q 294.41 328.77 293.31 328.60 292.21 328.43 291.98 327.66 291.75 326.88 291.57 326.06 291.38 325.24 291.35 325.00 291.32 324.75 291.35 324.51 291.38 324.27 291.47 324.04 291.55 323.81 291.69 323.61 291.83 323.40 292.01 323.24 292.20 323.08 292.41 322.96 292.63 322.85 292.87 322.79 293.10 322.73 293.35 322.73 293.59 322.73 293.83 322.79 294.07 322.85 294.29 322.96 294.50 323.07 294.69 323.24 294.87 323.40 295.01 323.60 295.15 323.80 295.24 324.03 295.33 324.26 295.61 325.49 295.90 326.73 295.87 327.04 295.85 327.36 295.86 327.61 295.88 327.85 295.84 328.10 295.80 328.35 295.70 328.57 295.60 328.80 295.45 329.00 295.30 329.20 295.11 329.36 294.92 329.51 294.69 329.62 294.46 329.73 294.22 329.77 293.98 329.82 293.73 329.81 293.48 329.80 293.24 329.73 293.00 329.66 292.78 329.53 292.57 329.41 292.39 329.24 292.21 329.06 292.08 328.85 291.95 328.64 291.87 328.40 291.79 328.17 293.26 326.63 294.74 325.09 294.74 325.09 294.73 325.09 294.73 325.09 294.73 325.09 294.73 325.09 294.73 325.09 294.73 325.09 294.73 325.09 294.73 325.09 294.73 325.08 294.73 325.08 294.73 325.08 294.73 325.08 294.73 325.08 294.73 325.08 294.73 325.08 294.73 325.08 294.73 325.08 294.73 325.07 294.73 325.07 294.73 325.07 294.74 325.07 294.74 325.07 294.74 325.07 294.74 325.07 294.74 325.07 294.74 325.08 294.74 325.08 294.74 325.09 294.74 325.09 294.74 325.09 294.73 325.09 294.73 325.09 294.73 325.09 294.73 325.09 294.73 325.09 294.73 325.09 294.73 325.09 294.73 325.09 294.73 325.08 294.73 325.08 294.73 325.08 294.73 325.08 294.73 325.08 294.73 325.08 294.73 325.08 294.73 325.08 294.73 325.08 294.73 325.07 294.73 325.07 294.73 325.07 294.74 325.07 294.74 325.07 294.74 325.07 294.74 325.07 294.74 325.07 294.66 325.74 294.57 326.42 295.21 326.89 295.85 327.36 295.86 327.61 295.88 327.85 295.84 328.10 295.80 328.35 295.70 328.57 295.60 328.80 295.45 329.00 295.30 329.20 295.11 329.36 294.92 329.51 294.69 329.62 294.46 329.73 294.22 329.77 293.98 329.82 293.73 329.81 293.48 329.80 293.24 329.73 293.00 329.66 292.78 329.53 292.57 329.41 292.39 329.24 292.21 329.06 292.08 328.85 291.95 328.64 291.87 328.40 291.79 328.17 291.68 327.71 291.58 327.25 291.48 326.24 291.38 325.24 291.35 325.00 291.32 324.75 291.35 324.51 291.38 324.27 291.47 324.04 291.55 323.81 291.69 323.61 291.83 323.40 292.01 323.24 292.20 323.08 292.41 322.96 292.63 322.85 292.87 322.79 293.10 322.73 293.35 322.73 293.59 322.73 293.83 322.79 294.07 322.85 294.29 322.96 294.50 323.07 294.69 323.24 294.87 323.40 295.01 323.60 295.15 323.80 295.24 324.03 295.33 324.26 295.37 324.68 295.42 325.10 295.70 326.14 295.98 327.19 295.21 327.98 294.43 328.77 294.42 328.77 Z" data-drauu_index="31"></path>
</svg>