<svg width="980" height="551" xmlns="http://www.w3.org/2000/svg" xmlns:xlink="http://www.w3.org/1999/xlink">
<g data-drauu_index="5"><defs><marker id="1d868728-7d80-2a9c-3394-22fe0ae590fb" viewBox="0 -5 10 10" refX="5" refY="0" markerWidth="4" markerHeight="4" orient="auto"><path fill="#8ac926" d="M0,-5L10,0L0,5"></path></marker></defs><line fill="transparent" stroke="#8ac926" stroke-width="3" stroke-linecap="round" x1="227.42" y1="153.72" x2="74.85" y2="151.42" marker-end="url(#1d868728-7d80-2a9c-3394-22fe0ae590fb)"></line></g><line fill="transparent" stroke="#ffca3a" stroke-width="3" stroke-linecap="round" x1="231.25" y1="151.80" x2="289.52" y2="98.52" data-drauu_index="7"></line><g data-drauu_index="9"><defs><marker id="f730ae80-7266-7eaf-5f83-684ca93c1c89" viewBox="0 -5 10 10" refX="5" refY="0" markerWidth="4" markerHeight="4" orient="auto"><path fill="#ffca3a" d="M0,-5L10,0L0,5"></path></marker></defs><line fill="transparent" stroke="#ffca3a" stroke-width="3" stroke-linecap="round" x1="288.37" y1="100.05" x2="259.62" y2="127.27" marker-end="url(#f730ae80-7266-7eaf-5f83-684ca93c1c89)"></line></g><g data-drauu_index="10"><defs><marker id="4260108b-d815-4336-7d39-b2e10f57b015" viewBox="0 -5 10 10" refX="5" refY="0" markerWidth="4" markerHeight="4" orient="auto"><path fill="#1982c4" d="M0,-5L10,0L0,5"></path></marker></defs><line fill="transparent" stroke="#1982c4" stroke-width="3" stroke-linecap="round" x1="231.64" y1="152.95" x2="365.80" y2="200.48" marker-end="url(#4260108b-d815-4336-7d39-b2e10f57b015)"></line></g><path fill="#6a4c93" d="M 451.10 459.80 Q 451.10 459.80 451.10 459.80 451.10 459.81 451.09 459.81 451.09 459.82 451.10 459.81 Z" data-drauu_index="13"></path><path fill="#6a4c93" d="M 451.10 459.80 Q 451.10 459.80 451.10 459.80 451.10 459.81 451.09 459.81 451.09 459.82 451.10 459.81 Z" data-drauu_index="14"></path><path fill="#6a4c93" d="M 574.54 324.48 Q 574.54 324.48 574.53 324.49 574.53 324.49 574.53 324.50 574.52 324.50 574.53 324.49 Z" data-drauu_index="26"></path><path fill="#6a4c93" d="M 574.54 324.48 Q 574.54 324.48 574.53 324.49 574.53 324.49 574.53 324.50 574.52 324.50 574.53 324.49 Z" data-drauu_index="27"></path><path fill="#ff595e" d="M 192.74 153.87 Q 192.74 153.87 192.75 153.88 192.75 153.88 192.75 153.88 192.76 153.89 192.75 153.88 Z" data-drauu_index="0"></path><path fill="#6a4c93" d="M 188.30 154.48 Q 188.30 154.48 188.03 153.58 187.75 152.68 187.86 152.29 187.97 151.91 188.12 151.75 188.27 151.59 188.46 151.47 188.64 151.35 188.85 151.28 189.06 151.21 189.28 151.20 189.50 151.18 189.71 151.21 189.93 151.25 190.13 151.34 190.33 151.42 190.51 151.55 190.69 151.68 190.83 151.85 190.96 152.02 191.06 152.22 191.15 152.42 191.20 152.64 191.24 152.85 191.23 153.07 191.22 153.29 191.16 153.50 191.10 153.71 190.99 153.90 190.88 154.09 190.97 152.76 191.06 151.43 192.38 151.53 193.69 151.63 194.42 151.86 195.14 152.09 195.92 152.06 196.70 152.03 197.53 152.20 198.36 152.37 199.17 152.38 199.98 152.38 200.88 152.38 201.78 152.38 202.71 152.38 203.64 152.38 204.55 152.38 205.46 152.38 206.40 152.37 207.33 152.37 208.33 152.37 209.32 152.37 210.15 152.39 210.97 152.40 211.76 152.38 212.55 152.36 213.42 152.35 214.29 152.35 215.04 152.23 215.80 152.10 216.80 152.03 217.81 151.96 216.82 152.60 215.84 153.24 216.92 152.44 218.00 151.64 218.93 151.60 219.85 151.57 220.65 151.39 221.44 151.22 222.26 151.08 223.08 150.94 224.17 150.70 225.25 150.46 226.18 150.44 227.11 150.42 227.94 150.42 228.76 150.42 229.52 150.43 230.28 150.43 231.12 150.46 231.96 150.49 232.69 150.75 233.43 151.02 233.56 151.10 233.69 151.18 233.93 151.37 234.17 151.56 234.35 151.79 234.54 152.03 234.66 152.31 234.79 152.59 234.84 152.88 234.89 153.18 234.88 153.48 234.86 153.79 234.77 154.08 234.67 154.36 234.52 154.62 234.36 154.88 234.15 155.10 233.93 155.31 233.67 155.46 233.41 155.62 233.12 155.71 232.83 155.80 232.53 155.82 232.23 155.83 231.93 155.78 231.63 155.72 231.36 155.60 231.08 155.47 230.13 155.83 229.17 156.19 228.39 156.20 227.60 156.22 226.63 156.21 225.66 156.20 224.93 156.39 224.20 156.58 223.05 156.59 221.90 156.61 220.99 156.62 220.08 156.62 219.20 156.62 218.31 156.62 217.49 156.63 216.68 156.63 215.32 156.45 213.96 156.26 213.20 156.27 212.43 156.27 211.64 156.26 210.86 156.26 210.04 156.26 209.22 156.26 208.44 156.26 207.67 156.26 206.78 156.26 205.90 156.26 205.03 156.26 204.17 156.26 203.21 156.26 202.26 156.26 201.46 156.26 200.66 156.26 199.78 156.26 198.90 156.26 198.03 156.26 197.17 156.26 196.34 156.25 195.50 156.25 194.73 156.25 193.96 156.24 193.12 156.24 192.28 156.23 190.77 155.25 189.26 154.26 189.26 154.26 189.26 154.26 189.26 154.26 189.26 154.26 189.26 154.26 189.26 154.26 189.26 154.26 189.25 154.26 189.25 154.26 189.25 154.25 189.25 154.25 189.25 154.25 189.25 154.25 189.25 154.25 189.25 154.25 189.25 154.25 189.25 154.25 189.25 154.25 189.26 154.24 189.26 154.24 189.26 154.24 189.26 154.24 189.26 154.24 189.26 154.24 189.26 154.24 189.26 154.24 189.26 154.25 189.26 154.25 189.26 154.26 189.26 154.26 189.26 154.26 189.26 154.26 189.26 154.26 189.26 154.26 189.26 154.26 189.26 154.26 189.26 154.26 189.25 154.26 189.25 154.26 189.25 154.25 189.25 154.25 189.25 154.25 189.25 154.25 189.25 154.25 189.25 154.25 189.25 154.25 189.25 154.25 189.25 154.25 189.26 154.24 189.26 154.24 189.26 154.24 189.26 154.24 189.26 154.24 189.26 154.24 189.26 154.24 189.26 154.24 190.77 152.72 192.28 151.20 193.12 151.20 193.96 151.19 194.73 151.19 195.50 151.18 196.34 151.18 197.17 151.18 198.03 151.17 198.90 151.17 199.78 151.17 200.66 151.17 201.46 151.17 202.26 151.17 203.21 151.17 204.17 151.17 205.03 151.17 205.90 151.17 206.78 151.17 207.67 151.17 208.44 151.18 209.22 151.18 210.05 151.18 210.88 151.18 211.73 151.18 212.58 151.19 213.37 151.23 214.16 151.26 215.42 151.41 216.68 151.57 217.49 151.57 218.31 151.58 219.20 151.58 220.08 151.58 220.99 151.58 221.89 151.58 222.88 151.58 223.88 151.57 224.68 151.40 225.47 151.23 226.25 151.22 227.03 151.21 227.90 151.29 228.77 151.37 229.49 151.12 230.21 150.87 231.17 150.85 232.14 150.82 232.91 151.00 233.69 151.18 233.93 151.37 234.17 151.56 234.35 151.79 234.54 152.03 234.66 152.31 234.79 152.59 234.84 152.88 234.89 153.18 234.88 153.48 234.86 153.79 234.77 154.08 234.68 154.36 234.52 154.62 234.36 154.88 234.15 155.10 233.93 155.31 233.67 155.46 233.41 155.62 233.12 155.71 232.83 155.80 232.53 155.82 232.23 155.83 231.93 155.78 231.63 155.72 231.36 155.60 231.08 155.47 230.87 155.47 230.66 155.46 229.87 155.47 229.09 155.47 228.30 155.48 227.51 155.48 226.76 155.49 226.01 155.49 225.26 155.60 224.52 155.71 223.34 155.82 222.15 155.92 220.78 156.02 219.41 156.12 218.31 156.49 217.22 156.85 215.75 157.12 214.29 157.38 213.45 157.38 212.61 157.38 211.76 157.40 210.91 157.43 210.04 157.39 209.17 157.36 208.25 157.36 207.33 157.36 206.40 157.36 205.46 157.36 204.55 157.36 203.64 157.35 202.71 157.35 201.77 157.35 200.86 157.35 199.94 157.34 198.99 157.32 198.04 157.30 197.27 157.12 196.50 156.93 195.41 156.87 194.32 156.82 193.04 156.48 191.76 156.13 190.91 155.91 190.05 155.68 189.16 155.32 188.27 154.96 188.12 153.43 187.97 151.91 188.12 151.75 188.27 151.59 188.46 151.47 188.64 151.35 188.85 151.28 189.06 151.21 189.28 151.20 189.50 151.18 189.71 151.21 189.93 151.25 190.13 151.34 190.33 151.42 190.51 151.55 190.69 151.68 190.83 151.85 190.96 152.02 191.06 152.22 191.15 152.42 191.20 152.64 191.24 152.85 191.23 153.07 191.22 153.29 191.16 153.50 191.10 153.71 190.99 153.90 190.88 154.09 190.54 154.31 190.20 154.52 189.26 154.50 188.32 154.49 188.31 154.48 Z" data-drauu_index="1"></path><path fill="#6a4c93" d="M 188.30 154.49 Q 188.30 154.49 187.42 154.41 186.53 154.34 186.36 153.56 186.19 152.78 186.53 151.98 186.87 151.17 187.59 150.54 188.32 149.91 189.17 149.58 190.02 149.25 191.20 149.44 192.39 149.64 193.11 150.40 193.83 151.16 194.06 151.97 194.28 152.78 193.97 153.96 193.65 155.13 193.00 155.94 192.35 156.75 191.40 157.31 190.45 157.88 189.04 157.76 187.63 157.64 186.83 157.00 186.03 156.35 185.54 155.56 185.05 154.77 184.87 154.01 184.69 153.26 184.89 152.52 185.08 151.78 186.04 150.87 187.00 149.97 188.04 149.68 189.08 149.38 189.83 149.49 190.58 149.60 191.46 150.09 192.33 150.58 192.79 151.19 193.24 151.80 193.14 153.20 193.04 154.59 192.63 155.23 192.23 155.86 191.00 156.56 189.78 157.25 188.96 157.52 188.14 157.79 186.92 157.39 185.71 156.99 185.25 156.27 184.79 155.55 184.52 154.52 184.24 153.48 184.73 152.14 185.22 150.80 186.05 150.22 186.89 149.65 187.90 149.45 188.91 149.26 189.65 149.42 190.39 149.58 191.43 150.45 192.46 151.32 192.62 152.20 192.77 153.08 192.25 154.19 191.74 155.29 190.76 155.78 189.78 156.26 188.41 156.33 187.05 156.41 186.25 156.07 185.46 155.74 184.85 154.71 184.23 153.69 184.67 152.26 185.11 150.83 185.87 150.44 186.64 150.06 187.71 149.96 188.79 149.87 189.78 150.42 190.78 150.97 191.10 152.32 191.42 153.66 191.14 154.36 190.86 155.07 189.73 155.84 188.60 156.62 187.36 156.48 186.12 156.34 185.45 155.81 184.78 155.29 184.39 154.27 184.00 153.26 184.18 152.53 184.37 151.80 184.98 151.15 185.59 150.50 186.60 150.37 187.61 150.23 188.77 151.03 189.93 151.83 189.12 154.36 188.32 156.89 188.31 156.89 188.31 156.89 188.30 156.88 188.30 156.88 188.22 155.36 188.14 153.84 187.51 153.16 186.88 152.48 187.51 153.22 188.13 153.96 188.28 153.16 188.42 152.36 188.71 153.28 189.01 154.20 188.31 153.84 187.60 153.49 188.63 153.40 189.65 153.30 188.99 153.89 188.32 154.48 188.31 154.48 Z" data-drauu_index="2"></path><path fill="#6a4c93" d="M 189.47 220.80 Q 189.47 220.80 190.31 221.62 191.15 222.44 191.16 223.46 191.16 224.48 191.34 225.27 191.53 226.07 191.74 227.00 191.95 227.93 192.17 229.02 192.39 230.12 192.31 231.05 192.23 231.97 192.22 232.82 192.21 233.67 192.07 234.56 191.93 235.44 191.88 236.53 191.82 237.63 191.82 238.40 191.82 239.18 191.82 239.48 191.82 239.79 191.79 240.07 191.75 240.36 191.65 240.62 191.55 240.89 191.39 241.12 191.23 241.36 191.01 241.55 190.80 241.73 190.55 241.87 190.30 242.00 190.02 242.07 189.74 242.13 189.46 242.13 189.18 242.13 188.90 242.06 188.62 242.00 188.37 241.86 188.12 241.73 187.91 241.54 187.69 241.35 187.53 241.12 187.37 240.88 187.27 240.62 187.17 240.35 187.14 240.07 187.10 239.79 188.06 238.63 189.02 237.46 190.13 237.48 191.24 237.49 192.12 237.87 193.00 238.26 194.23 238.62 195.47 238.97 196.26 239.15 197.05 239.32 197.91 239.53 198.77 239.74 200.30 240.05 201.82 240.37 202.58 240.43 203.34 240.48 204.96 240.65 206.58 240.81 207.38 240.85 208.19 240.89 208.94 240.80 209.70 240.72 210.83 240.67 211.96 240.63 212.97 240.51 213.99 240.39 215.09 240.23 216.19 240.07 217.43 239.99 218.67 239.91 219.87 239.78 221.07 239.64 223.18 239.47 225.29 239.30 226.88 239.23 228.47 239.15 229.91 239.23 231.36 239.31 232.54 239.35 233.73 239.38 234.89 239.39 236.05 239.41 237.22 239.53 238.39 239.66 239.32 239.70 240.24 239.75 241.18 239.77 242.12 239.79 243.21 239.91 244.30 240.04 245.28 240.09 246.26 240.13 247.86 240.26 249.47 240.39 250.63 240.45 251.80 240.50 252.84 240.52 253.87 240.55 254.86 240.56 255.85 240.57 256.82 240.57 257.79 240.57 258.76 240.58 259.72 240.58 260.57 240.58 261.42 240.58 262.33 240.58 263.25 240.58 264.41 240.47 265.57 240.36 266.60 240.31 267.63 240.26 268.49 240.14 269.35 240.02 270.41 239.95 271.46 239.89 272.33 239.76 273.19 239.64 274.11 239.48 275.02 239.32 276.22 239.24 277.42 239.15 278.47 239.12 279.52 239.09 280.96 239.08 282.41 239.07 283.46 239.06 284.51 239.06 285.39 239.06 286.28 239.05 287.21 239.05 288.14 239.05 289.09 239.05 290.03 239.05 290.98 239.05 291.94 239.05 292.89 239.05 293.85 239.06 295.36 239.06 296.87 239.06 298.06 239.06 299.25 239.06 300.20 239.06 301.15 239.06 302.10 239.06 303.05 239.06 303.90 239.06 304.74 239.06 306.35 239.18 307.96 239.30 309.17 239.36 310.38 239.41 311.43 239.42 312.48 239.43 313.26 239.43 314.04 239.43 315.32 239.44 316.59 239.44 317.51 239.44 318.43 239.44 319.59 239.35 320.74 239.25 322.21 239.17 323.68 239.09 325.15 239.08 326.63 239.07 327.75 239.08 328.87 239.08 329.79 239.09 330.71 239.09 332.17 239.09 333.64 239.09 334.62 239.10 335.60 239.10 336.99 239.10 338.39 239.10 339.43 239.10 340.46 239.10 342.03 239.10 343.60 239.10 344.47 239.10 345.34 239.10 346.78 239.10 348.22 239.10 349.66 238.95 351.11 238.79 352.65 238.76 354.20 238.73 355.40 238.73 356.60 238.73 357.58 238.74 358.56 238.74 359.70 238.56 360.85 238.38 361.89 238.37 362.92 238.36 363.66 238.06 364.39 237.76 363.67 238.51 362.94 239.27 362.93 238.43 362.92 237.60 362.69 236.26 362.45 234.92 362.23 233.60 362.02 232.28 361.84 230.06 361.67 227.83 361.67 227.83 361.68 227.82 361.68 227.82 361.68 227.82 363.99 229.09 366.29 230.35 366.58 231.42 366.88 232.48 367.09 233.32 367.30 234.16 367.46 235.10 367.62 236.04 367.76 237.31 367.90 238.58 367.85 239.41 367.81 240.25 367.27 240.90 366.73 241.54 365.93 242.01 365.13 242.47 364.46 242.79 363.78 243.11 363.00 243.12 362.23 243.13 361.30 243.15 360.38 243.17 359.52 243.33 358.66 243.49 357.64 243.50 356.61 243.50 355.43 243.51 354.24 243.52 353.44 243.53 352.63 243.54 351.36 243.60 350.08 243.65 349.15 243.77 348.22 243.90 346.78 243.90 345.34 243.90 344.47 243.90 343.60 243.90 342.03 243.90 340.46 243.90 339.43 243.90 338.39 243.90 336.99 243.90 335.60 243.90 334.62 243.91 333.64 243.91 332.18 243.91 330.71 243.91 329.79 243.92 328.88 243.92 327.76 243.93 326.65 243.94 325.23 243.95 323.82 243.97 322.69 244.02 321.57 244.07 320.00 244.20 318.43 244.33 317.51 244.33 316.59 244.33 315.30 244.32 314.02 244.32 313.23 244.32 312.44 244.32 311.34 244.31 310.24 244.30 308.74 244.22 307.23 244.14 305.99 244.04 304.74 243.94 303.90 243.94 303.05 243.94 302.10 243.94 301.15 243.94 300.20 243.94 299.25 243.94 298.06 243.94 296.87 243.94 295.36 243.94 293.85 243.94 292.89 243.95 291.94 243.95 290.99 243.95 290.03 243.95 289.09 243.95 288.14 243.95 287.22 243.95 286.29 243.95 285.41 243.96 284.53 243.96 283.49 243.96 282.45 243.97 281.06 243.98 279.67 244.00 278.71 244.03 277.75 244.06 276.81 244.11 275.87 244.17 274.87 244.35 273.87 244.52 272.81 244.66 271.75 244.81 270.88 244.85 270.01 244.90 268.94 245.04 267.86 245.18 266.93 245.22 266.00 245.26 264.62 245.38 263.25 245.49 262.33 245.49 261.42 245.49 260.57 245.49 259.71 245.48 258.74 245.48 257.77 245.48 256.79 245.48 255.80 245.47 254.78 245.46 253.76 245.45 252.67 245.43 251.57 245.40 250.31 245.34 249.05 245.28 247.54 245.15 246.03 245.02 244.87 244.96 243.70 244.91 242.86 244.79 242.02 244.68 241.01 244.66 240.00 244.64 238.93 244.59 237.85 244.53 236.92 244.42 235.99 244.31 234.79 244.30 233.59 244.29 232.33 244.25 231.07 244.22 229.88 244.14 228.69 244.06 227.19 244.13 225.69 244.20 223.65 244.37 221.61 244.54 220.29 244.68 218.97 244.83 217.93 244.89 216.89 244.95 215.72 245.11 214.55 245.28 213.34 245.42 212.13 245.55 211.14 245.58 210.15 245.61 209.03 245.70 207.91 245.79 206.89 245.73 205.87 245.66 204.40 245.52 202.93 245.37 201.96 245.28 201.00 245.20 199.49 244.89 197.99 244.58 196.86 244.30 195.73 244.03 194.71 243.78 193.68 243.52 192.97 243.27 192.26 243.02 191.08 242.40 189.90 241.78 190.86 240.78 191.82 239.79 191.79 240.07 191.75 240.36 191.65 240.62 191.55 240.89 191.39 241.12 191.23 241.36 191.02 241.55 190.80 241.73 190.55 241.87 190.30 242.00 190.02 242.07 189.74 242.13 189.46 242.13 189.18 242.13 188.90 242.06 188.62 242.00 188.37 241.86 188.12 241.73 187.91 241.54 187.69 241.35 187.53 241.12 187.37 240.88 187.27 240.62 187.17 240.35 187.14 240.07 187.10 239.79 187.13 239.00 187.15 238.21 187.19 237.18 187.23 236.14 187.41 234.82 187.59 233.49 187.65 232.44 187.71 231.40 187.79 230.59 187.88 229.79 187.71 228.82 187.55 227.85 187.39 226.87 187.23 225.88 187.15 224.73 187.06 223.57 187.20 222.69 187.33 221.80 188.39 221.30 189.45 220.80 189.46 220.80 Z" data-drauu_index="3"></path><path fill="#6a4c93" d="M 362.73 223.09 Q 362.73 223.09 363.52 222.43 364.30 221.76 364.90 222.34 365.50 222.92 365.80 223.71 366.10 224.50 366.27 225.55 366.44 226.61 366.46 227.38 366.49 228.15 365.65 230.10 364.81 232.06 364.81 232.06 364.80 232.06 364.80 232.06 364.80 232.06 364.80 232.06 364.80 232.06 364.80 232.06 364.80 232.06 364.80 232.07 364.80 232.07 364.80 232.07 364.80 232.07 364.80 232.07 364.79 232.07 364.79 232.07 364.79 232.07 364.79 232.07 364.79 232.06 364.79 232.06 364.79 232.06 364.79 232.06 364.79 232.06 364.79 232.06 364.79 232.06 364.79 232.06 364.79 232.06 364.79 232.06 364.80 232.06 364.80 232.06 364.81 232.06 364.81 232.06 364.80 232.06 364.80 232.06 364.80 232.06 364.80 232.06 364.80 232.06 364.80 232.06 364.80 232.06 364.80 232.07 364.80 232.07 364.80 232.07 364.80 232.07 364.80 232.07 364.79 232.07 364.79 232.07 364.79 232.07 364.79 232.07 364.79 232.06 364.79 232.06 364.79 232.06 364.79 232.06 364.79 232.06 364.79 232.06 364.79 232.06 364.79 232.06 364.79 232.06 363.40 230.13 362.01 228.21 362.01 227.27 362.01 226.33 362.24 225.60 362.48 224.88 362.60 223.99 362.73 223.11 362.73 223.10 Z" data-drauu_index="4"></path><path fill="#6a4c93" d="M 443.04 535.32 Q 443.04 535.32 443.04 535.32 443.04 535.33 443.03 535.33 443.03 535.33 443.04 535.33 Z" data-drauu_index="5"></path><path fill="#ff595e" d="M 145.37 299.01 Q 145.37 299.01 143.82 299.24 142.27 299.47 141.42 298.85 140.57 298.24 139.73 298.87 138.88 299.51 138.84 300.37 138.79 301.24 139.77 301.89 140.76 302.54 141.70 303.21 142.64 303.87 143.54 304.45 144.44 305.03 145.27 305.69 146.10 306.34 146.80 306.98 147.50 307.62 148.11 308.57 148.72 309.53 149.08 310.46 149.44 311.40 149.40 313.05 149.36 314.70 149.04 315.80 148.71 316.90 148.04 317.84 147.37 318.78 146.47 319.32 145.56 319.86 144.75 320.05 143.93 320.24 142.52 320.18 141.12 320.13 140.31 319.72 139.50 319.32 138.71 318.29 137.93 317.26 137.84 316.23 137.75 315.21 138.32 313.87 138.89 312.53 139.56 311.66 140.24 310.79 140.92 310.10 141.61 309.41 144.27 308.83 146.93 308.25 146.94 308.26 146.94 308.26 146.94 308.27 146.94 308.27 145.70 309.90 144.45 311.53 143.66 312.96 142.86 314.40 142.63 315.13 142.40 315.85 143.17 315.85 143.93 315.85 144.35 315.06 144.77 314.27 144.94 313.54 145.11 312.80 144.77 311.85 144.43 310.90 143.85 310.37 143.27 309.85 142.64 309.33 142.00 308.81 141.02 308.17 140.04 307.54 139.15 306.90 138.25 306.26 136.84 305.21 135.43 304.15 134.98 303.39 134.53 302.64 134.28 301.61 134.03 300.58 134.21 299.50 134.38 298.41 134.96 297.39 135.54 296.37 136.23 295.71 136.91 295.05 137.69 294.63 138.48 294.21 139.62 293.98 140.77 293.75 141.89 294.10 143.01 294.45 143.99 295.17 144.96 295.89 145.17 297.44 145.39 298.99 145.38 299.00 Z" data-drauu_index="6"></path><path fill="#ff595e" d="M 152.67 294.40 Q 152.67 294.40 153.72 294.42 154.77 294.45 155.36 295.00 155.94 295.56 156.29 296.43 156.64 297.29 156.85 298.37 157.06 299.45 157.15 300.41 157.24 301.38 157.16 302.39 157.08 303.41 157.05 304.23 157.02 305.06 156.77 306.58 156.51 308.11 156.43 309.05 156.34 309.98 156.28 311.30 156.22 312.61 158.40 314.04 160.58 315.47 160.58 315.48 160.58 315.48 160.58 315.49 160.58 315.49 158.11 316.55 155.64 317.61 154.35 316.86 153.06 316.11 152.55 315.38 152.03 314.65 151.76 312.90 151.49 311.15 151.54 310.34 151.58 309.52 151.69 308.41 151.80 307.30 152.02 306.09 152.24 304.87 152.36 303.31 152.48 301.75 152.43 301.00 152.37 300.24 152.34 299.23 152.31 298.21 151.87 297.16 151.43 296.12 152.04 295.26 152.65 294.40 152.66 294.40 Z" data-drauu_index="7"></path><path fill="#ff595e" d="M 179.12 304.36 Q 179.12 304.36 180.38 304.16 181.65 303.96 183.31 305.40 184.97 306.84 184.97 306.84 184.96 306.85 184.96 306.85 184.96 306.85 182.97 307.29 180.98 307.72 180.10 307.35 179.22 306.98 179.16 305.68 179.11 304.37 179.11 304.37 Z" data-drauu_index="8"></path><path fill="#ff595e" d="M 179.11 309.72 Q 179.11 309.72 179.99 308.96 180.87 308.20 181.74 308.34 182.60 308.49 184.38 308.62 186.16 308.75 186.16 308.75 186.16 308.76 186.16 308.76 186.16 308.77 184.51 309.65 182.85 310.54 181.86 310.90 180.88 311.27 179.99 310.50 179.11 309.74 179.11 309.73 Z" data-drauu_index="9"></path><path fill="#ff595e" d="M 200.97 293.25 Q 200.97 293.25 202.15 294.12 203.32 294.99 203.86 296.62 204.40 298.25 204.55 299.22 204.70 300.19 204.85 301.03 205.01 301.87 205.10 303.04 205.19 304.21 205.22 305.24 205.26 306.28 205.16 308.02 205.06 309.76 205.02 310.87 204.98 311.98 204.85 313.02 204.71 314.07 204.64 315.27 204.56 316.47 205.09 315.89 205.62 315.31 207.09 315.22 208.57 315.13 209.58 315.09 210.59 315.05 212.79 316.22 214.99 317.39 214.99 317.39 214.99 317.39 214.99 317.39 215.00 317.39 215.00 317.39 215.00 317.39 215.00 317.40 215.00 317.40 215.00 317.40 215.00 317.40 215.00 317.40 215.00 317.40 215.00 317.40 215.00 317.40 215.00 317.40 215.00 317.41 215.00 317.41 215.00 317.41 215.00 317.41 215.00 317.41 215.00 317.41 215.00 317.41 214.99 317.41 214.99 317.41 214.99 317.41 214.99 317.41 214.99 317.41 214.99 317.40 214.99 317.40 214.99 317.39 214.99 317.39 214.99 317.39 214.99 317.39 215.00 317.39 215.00 317.39 215.00 317.39 215.00 317.40 215.00 317.40 215.00 317.40 215.00 317.40 215.00 317.40 215.00 317.40 215.00 317.40 215.00 317.40 215.00 317.40 215.00 317.41 215.00 317.41 215.00 317.41 215.00 317.41 215.00 317.41 215.00 317.41 215.00 317.41 214.99 317.41 214.99 317.41 214.99 317.41 214.99 317.41 212.91 318.65 210.83 319.89 209.99 319.94 209.15 319.99 208.12 320.10 207.08 320.22 206.27 320.21 205.46 320.20 204.17 320.09 202.87 319.99 202.12 319.66 201.37 319.34 200.76 318.66 200.16 317.97 199.96 316.48 199.77 315.00 199.83 314.20 199.90 313.40 200.01 312.60 200.13 311.80 200.18 310.63 200.22 309.47 200.32 307.94 200.42 306.41 200.40 305.46 200.38 304.50 200.34 303.58 200.30 302.65 200.12 301.00 199.93 299.34 199.75 298.48 199.57 297.62 199.30 296.55 199.04 295.48 200.00 294.37 200.95 293.25 200.96 293.25 Z" data-drauu_index="10"></path><path fill="#ff595e" d="M 218.99 308.97 Q 218.99 308.97 219.81 309.97 220.64 310.96 220.69 311.72 220.74 312.47 220.94 313.47 221.14 314.48 221.43 315.43 221.72 316.38 221.98 317.29 222.24 318.20 222.38 319.04 222.52 319.87 222.75 321.00 222.98 322.14 222.99 322.81 222.99 323.49 222.98 323.74 222.98 323.99 222.91 324.24 222.84 324.48 222.71 324.71 222.58 324.93 222.41 325.11 222.23 325.30 222.02 325.43 221.81 325.57 221.56 325.65 221.32 325.74 221.07 325.76 220.82 325.78 220.57 325.74 220.31 325.70 220.08 325.60 219.84 325.50 219.64 325.35 219.44 325.20 219.27 325.01 219.11 324.81 219.00 324.58 218.89 324.35 218.84 324.10 218.78 323.85 219.62 322.74 220.45 321.63 221.19 321.55 221.94 321.47 222.98 321.31 224.02 321.15 224.78 321.12 225.54 321.10 226.30 321.09 227.07 321.08 228.29 321.32 229.50 321.56 230.37 321.95 231.23 322.34 231.88 322.88 232.52 323.42 232.89 324.25 233.27 325.09 233.17 325.84 233.07 326.59 232.23 327.86 231.39 329.13 230.29 329.85 229.19 330.58 228.35 330.98 227.51 331.38 226.77 331.61 226.03 331.85 225.22 331.90 224.40 331.95 223.60 329.75 222.79 327.56 222.79 327.56 222.79 327.56 222.79 327.56 222.79 327.56 222.79 327.56 222.78 327.56 222.78 327.56 222.78 327.56 222.78 327.55 222.78 327.55 222.78 327.55 222.78 327.55 222.78 327.55 222.78 327.55 222.78 327.55 222.78 327.55 222.78 327.55 222.78 327.54 222.78 327.54 222.78 327.54 222.78 327.54 222.79 327.54 222.79 327.54 222.79 327.54 222.79 327.54 222.79 327.54 222.79 327.54 222.79 327.55 222.79 327.55 222.79 327.56 222.79 327.56 222.79 327.56 222.79 327.56 222.79 327.56 222.79 327.56 222.78 327.56 222.78 327.56 222.78 327.56 222.78 327.55 222.78 327.55 222.78 327.55 222.78 327.55 222.78 327.55 222.78 327.55 222.78 327.55 222.78 327.55 222.78 327.55 222.78 327.54 222.78 327.54 222.78 327.54 222.78 327.54 222.79 327.54 222.79 327.54 222.79 327.54 222.79 327.54 222.79 327.54 222.99 328.27 223.19 329.01 223.87 328.62 224.55 328.23 225.72 327.60 226.88 326.98 227.72 326.30 228.57 325.63 227.11 325.45 225.66 325.26 224.53 325.30 223.41 325.33 222.59 325.44 221.78 325.55 222.39 324.52 222.99 323.49 222.98 323.74 222.98 323.99 222.91 324.24 222.84 324.48 222.71 324.71 222.59 324.93 222.41 325.11 222.23 325.30 222.02 325.43 221.81 325.57 221.57 325.65 221.32 325.74 221.07 325.76 220.82 325.78 220.57 325.74 220.31 325.70 220.08 325.60 219.84 325.50 219.64 325.35 219.44 325.20 219.27 325.01 219.11 324.81 219.00 324.58 218.89 324.35 218.84 324.10 218.78 323.85 218.76 323.69 218.73 323.52 218.63 322.74 218.53 321.96 218.30 320.64 218.07 319.31 217.85 318.43 217.63 317.55 217.31 316.35 216.99 315.16 216.79 313.71 216.59 312.25 216.74 311.37 216.88 310.50 217.93 309.73 218.97 308.97 218.98 308.97 Z" data-drauu_index="11"></path><path fill="#ff595e" d="M 232.41 312.41 Q 232.41 312.41 233.83 313.67 235.26 314.94 235.58 316.04 235.90 317.15 236.15 318.20 236.40 319.25 236.61 320.12 236.82 320.98 236.91 321.93 236.99 322.87 236.96 323.73 236.92 324.58 235.89 326.89 234.86 329.21 234.86 329.20 234.85 329.20 234.85 329.20 234.84 329.20 233.98 326.98 233.12 324.76 232.92 323.37 232.72 321.97 232.51 321.09 232.29 320.21 232.07 319.23 231.84 318.25 231.57 317.16 231.29 316.07 231.84 314.24 232.39 312.42 232.40 312.42 Z" data-drauu_index="12"></path><path fill="#ff595e" d="M 242.75 324.31 Q 242.75 324.31 243.03 325.25 243.31 326.19 243.98 327.22 244.64 328.26 245.29 327.85 245.94 327.45 247.27 326.01 248.60 324.57 248.60 324.56 248.61 324.56 248.61 324.56 248.61 324.55 249.45 327.07 250.29 329.59 249.92 330.31 249.54 331.03 249.07 331.62 248.60 332.21 247.87 332.74 247.13 333.26 246.37 333.46 245.62 333.65 244.70 333.57 243.78 333.49 242.46 332.56 241.13 331.62 240.70 330.93 240.27 330.23 240.05 329.36 239.83 328.49 239.51 327.46 239.19 326.43 239.47 325.67 239.75 324.91 240.30 324.32 240.86 323.73 241.80 324.01 242.74 324.29 242.75 324.30 Z" data-drauu_index="13"></path><path fill="#ff595e" d="M 253.48 325.06 Q 253.48 325.06 254.37 324.34 255.25 323.63 255.68 322.51 256.10 321.38 256.50 320.51 256.89 319.63 257.71 320.41 258.53 321.19 258.47 322.32 258.41 323.45 258.31 324.74 258.21 326.02 258.20 326.83 258.18 327.63 258.63 328.24 259.08 328.84 259.97 328.48 260.87 328.11 262.22 327.72 263.57 327.33 265.02 326.05 266.47 324.77 266.47 324.77 266.48 324.77 266.48 324.78 266.49 324.78 265.85 327.41 265.22 330.05 264.58 330.61 263.94 331.18 263.11 331.71 262.29 332.24 261.02 332.73 259.74 333.22 258.75 333.21 257.76 333.20 256.81 332.76 255.85 332.31 254.93 330.94 254.00 329.56 253.74 328.56 253.48 327.56 253.54 326.61 253.59 325.65 253.78 324.39 253.96 323.12 254.44 321.97 254.92 320.83 255.65 319.70 256.37 318.56 257.57 318.08 258.78 317.59 259.55 318.01 260.32 318.43 260.38 319.64 260.43 320.86 259.98 321.94 259.53 323.02 258.66 324.67 257.78 326.31 256.60 326.93 255.43 327.56 254.67 327.47 253.91 327.38 253.69 326.23 253.48 325.08 253.48 325.07 Z" data-drauu_index="14"></path><path fill="#ff595e" d="M 271.50 308.96 Q 271.50 308.96 273.00 308.35 274.51 307.74 275.91 307.82 277.31 307.89 278.84 308.44 280.37 308.99 280.37 308.99 280.37 309.00 280.37 309.00 280.37 309.01 279.02 310.41 277.66 311.80 276.62 312.03 275.57 312.25 274.23 312.11 272.89 311.96 272.19 310.47 271.49 308.98 271.50 308.97 Z" data-drauu_index="15"></path><path fill="#ff595e" d="M 300.64 296.31 Q 300.64 296.31 301.88 296.79 303.13 297.27 303.65 299.04 304.17 300.82 304.37 302.33 304.56 303.85 304.64 305.08 304.72 306.32 304.76 307.29 304.79 308.27 304.81 309.24 304.82 310.22 304.71 311.22 304.59 312.22 304.44 313.36 304.28 314.51 304.19 315.61 304.11 316.71 304.96 316.52 305.81 316.33 306.77 316.51 307.73 316.70 308.55 316.76 309.38 316.82 310.28 316.95 311.17 317.09 312.63 317.97 314.08 318.86 314.08 318.86 314.08 318.87 314.08 318.87 314.08 318.88 312.55 320.16 311.02 321.44 310.00 321.51 308.99 321.58 307.90 321.48 306.82 321.39 305.87 321.20 304.93 321.02 303.20 320.51 301.46 320.00 300.64 318.98 299.82 317.97 299.71 316.68 299.59 315.38 299.66 314.63 299.73 313.88 299.98 312.08 300.24 310.27 300.22 309.34 300.21 308.41 300.18 307.51 300.16 306.60 300.10 305.48 300.03 304.36 299.85 302.29 299.66 300.21 299.34 299.33 299.01 298.45 299.82 297.38 300.62 296.32 300.63 296.32 Z" data-drauu_index="16"></path><path fill="#ff595e" d="M 327.46 316.64 Q 327.46 316.64 326.72 317.78 325.98 318.92 325.46 319.94 324.93 320.96 324.41 322.19 323.88 323.43 323.71 324.29 323.54 325.15 324.36 324.57 325.19 323.98 326.51 323.80 327.83 323.61 328.63 323.77 329.43 323.92 330.18 324.52 330.93 325.11 331.28 326.03 331.63 326.95 331.60 328.49 331.56 330.03 331.40 330.77 331.24 331.51 330.90 332.42 330.56 333.32 329.82 334.67 329.07 336.02 328.54 336.89 328.02 337.76 327.43 338.61 326.85 339.47 326.21 340.23 325.56 341.00 324.61 341.68 323.66 342.36 322.69 342.61 321.72 342.85 320.72 342.62 319.72 342.38 319.08 341.78 318.44 341.18 318.20 340.32 317.96 339.45 318.05 338.57 318.13 337.69 318.40 336.94 318.66 336.18 319.23 335.43 319.79 334.68 320.94 333.52 322.09 332.35 322.09 332.36 322.10 332.36 322.10 332.36 322.11 332.36 321.72 334.52 321.33 336.67 321.17 337.57 321.01 338.48 321.90 337.58 322.79 336.68 323.29 335.94 323.80 335.20 324.29 334.40 324.78 333.60 325.60 332.01 326.43 330.43 327.06 329.31 327.70 328.20 326.42 328.31 325.14 328.43 324.13 328.41 323.12 328.39 322.26 328.28 321.40 328.18 320.56 327.55 319.72 326.92 319.41 325.69 319.11 324.46 319.32 323.10 319.52 321.74 319.80 321.03 320.07 320.33 320.44 319.51 320.81 318.69 321.54 317.46 322.28 316.23 323.09 315.58 323.89 314.92 324.88 314.63 325.86 314.35 326.66 315.49 327.46 316.62 327.46 316.63 Z" data-drauu_index="17"></path><path fill="#ff595e" d="M 334.35 328.51 Q 334.35 328.51 333.83 327.43 333.32 326.34 333.84 325.11 334.36 323.88 334.80 322.68 335.24 321.47 335.63 320.32 336.03 319.17 336.25 318.09 336.48 317.01 337.54 316.54 338.61 316.06 339.35 316.20 340.08 316.34 341.62 316.78 343.15 317.21 343.93 317.62 344.71 318.03 345.34 318.63 345.96 319.23 346.37 320.29 346.78 321.36 346.76 322.30 346.74 323.24 346.57 324.40 346.39 325.56 345.50 325.42 344.61 325.28 346.38 324.85 348.16 324.42 348.16 324.42 348.17 324.43 348.17 324.43 348.17 324.44 347.02 325.98 345.86 327.52 344.81 327.88 343.75 328.23 342.89 327.40 342.03 326.57 341.94 325.56 341.85 324.54 341.96 323.70 342.06 322.86 341.84 322.10 341.63 321.34 340.93 321.02 340.24 320.69 339.33 320.44 338.42 320.20 337.09 320.08 335.76 319.96 334.63 319.47 333.50 318.99 333.19 318.08 332.88 317.17 333.40 315.96 333.91 314.75 334.67 314.27 335.42 313.80 336.19 313.44 336.97 313.08 337.89 313.24 338.81 313.39 339.62 314.83 340.43 316.26 340.22 317.59 340.02 318.92 339.90 319.67 339.78 320.42 339.38 321.61 338.98 322.80 338.49 324.12 338.00 325.44 337.37 326.75 336.73 328.05 335.55 328.28 334.37 328.52 334.36 328.52 Z" data-drauu_index="18"></path><path fill="#ff595e" d="M 353.16 320.47 Q 353.16 320.47 353.77 321.36 354.38 322.24 353.61 321.71 352.83 321.19 353.55 320.32 354.27 319.46 354.40 318.67 354.53 317.89 354.69 318.86 354.86 319.82 354.94 321.00 355.01 322.18 355.80 323.06 356.59 323.94 357.28 324.30 357.97 324.66 359.91 324.11 361.85 323.56 361.86 323.56 361.86 323.57 361.86 323.57 361.87 323.57 360.85 325.25 359.84 326.93 359.20 327.46 358.56 327.98 357.12 328.16 355.69 328.33 354.74 328.00 353.79 327.68 352.81 326.91 351.83 326.14 351.37 325.43 350.91 324.73 350.57 323.81 350.23 322.90 350.13 321.99 350.03 321.09 350.10 320.22 350.16 319.35 350.39 318.17 350.61 316.99 350.96 316.31 351.31 315.64 352.24 314.85 353.16 314.07 354.10 313.90 355.04 313.74 355.94 314.08 356.84 314.42 357.56 315.65 358.29 316.89 358.29 318.23 358.30 319.58 358.07 320.43 357.83 321.28 357.34 322.24 356.86 323.20 356.33 323.76 355.80 324.33 354.97 324.85 354.14 325.37 352.62 325.13 351.10 324.90 350.70 324.22 350.31 323.54 350.67 322.22 351.03 320.90 352.08 320.68 353.14 320.46 353.15 320.47 Z" data-drauu_index="19"></path><path fill="#ff595e" d="M 363.51 319.32 Q 363.51 319.32 364.19 320.26 364.88 321.19 364.12 320.28 363.36 319.36 364.14 318.89 364.92 318.43 365.65 317.90 366.37 317.38 366.01 318.80 365.64 320.23 365.41 321.05 365.18 321.87 365.19 322.78 365.20 323.70 365.96 323.98 366.72 324.26 367.51 324.48 368.29 324.71 369.66 324.01 371.04 323.32 371.04 323.32 371.04 323.32 371.05 323.32 371.05 323.32 370.67 325.42 370.29 327.52 369.18 327.96 368.07 328.40 366.80 328.44 365.53 328.48 364.64 328.20 363.75 327.92 362.96 327.32 362.17 326.71 361.51 325.59 360.84 324.47 360.76 323.46 360.68 322.45 360.88 321.48 361.07 320.51 361.38 319.72 361.68 318.92 362.22 317.61 362.76 316.31 363.31 315.58 363.86 314.85 364.99 314.32 366.12 313.79 367.46 314.61 368.80 315.44 369.29 316.43 369.77 317.41 369.78 318.24 369.80 319.06 369.17 319.97 368.53 320.87 367.67 321.48 366.80 322.08 365.86 322.56 364.92 323.04 363.86 323.04 362.81 323.04 362.02 321.56 361.23 320.08 362.36 319.70 363.49 319.31 363.50 319.32 Z" data-drauu_index="20"></path><path fill="#ff595e" d="M 374.24 315.48 Q 374.24 315.48 375.63 315.44 377.02 315.40 377.93 317.04 378.84 318.68 379.12 319.42 379.40 320.16 379.68 321.14 379.96 322.12 379.89 322.18 379.82 322.23 379.99 322.43 380.16 322.63 380.28 322.86 380.40 323.10 380.46 323.35 380.52 323.61 380.51 323.87 380.51 324.13 380.44 324.38 380.38 324.64 380.25 324.87 380.13 325.10 379.95 325.29 379.78 325.48 379.56 325.63 379.34 325.77 379.09 325.86 378.85 325.95 378.59 325.98 378.33 326.01 378.07 325.97 377.81 325.94 377.57 325.84 377.32 325.75 377.11 325.59 376.90 325.44 376.64 324.22 376.38 323.01 376.75 322.30 377.13 321.58 377.47 320.71 377.81 319.84 378.46 318.96 379.11 318.09 380.09 317.08 381.06 316.08 382.82 315.71 384.58 315.33 385.66 316.16 386.73 316.98 387.21 317.93 387.68 318.88 387.91 319.76 388.15 320.63 388.19 321.72 388.24 322.80 387.69 325.16 387.14 327.53 387.13 327.53 387.13 327.53 387.12 327.53 387.12 327.53 385.62 324.76 384.12 321.98 383.97 320.82 383.82 319.65 383.10 320.24 382.38 320.83 381.84 321.53 381.30 322.24 380.87 323.28 380.44 324.32 380.13 323.27 379.82 322.23 379.99 322.43 380.16 322.63 380.28 322.86 380.40 323.10 380.46 323.35 380.52 323.61 380.51 323.87 380.51 324.13 380.44 324.38 380.38 324.64 380.25 324.87 380.13 325.10 379.95 325.29 379.78 325.48 379.56 325.63 379.34 325.77 379.09 325.86 378.85 325.95 378.59 325.98 378.33 326.01 378.07 325.97 377.81 325.94 377.57 325.84 377.32 325.75 377.11 325.59 376.90 325.44 376.40 324.81 375.90 324.18 375.60 323.33 375.30 322.48 374.99 321.46 374.67 320.43 374.16 319.32 373.64 318.21 373.93 316.85 374.22 315.49 374.23 315.48 Z" data-drauu_index="21"></path><path fill="#ff595e" d="M 440.36 388.88 Q 440.36 388.88 440.36 388.89 440.35 388.89 440.35 388.90 440.35 388.90 440.35 388.89 Z" data-drauu_index="22"></path><path fill="#ff595e" d="M 191.37 149.88 Q 191.37 149.88 190.17 149.22 188.96 148.56 188.96 147.93 188.96 147.30 189.00 147.02 189.03 146.73 189.14 146.45 189.24 146.18 189.40 145.94 189.57 145.70 189.79 145.51 190.01 145.32 190.26 145.18 190.52 145.04 190.81 144.97 191.09 144.91 191.38 144.91 191.67 144.91 191.95 144.97 192.24 145.04 192.49 145.18 192.75 145.32 192.97 145.51 193.19 145.70 193.35 145.94 193.52 146.18 193.62 146.45 193.73 146.73 193.76 147.02 193.80 147.30 194.17 148.37 194.55 149.44 194.57 150.22 194.58 150.99 194.32 151.84 194.06 152.70 193.29 153.47 192.52 154.25 191.81 154.52 191.11 154.78 189.91 154.94 188.72 155.10 187.34 154.55 185.96 154.00 185.16 153.40 184.37 152.80 183.96 152.06 183.55 151.32 183.54 150.36 183.52 149.40 184.13 148.41 184.74 147.41 185.75 146.88 186.75 146.34 187.66 146.29 188.57 146.24 189.71 146.45 190.84 146.65 191.57 147.19 192.30 147.72 192.99 148.97 193.69 150.23 193.76 151.03 193.83 151.83 193.40 152.78 192.97 153.74 192.18 154.24 191.40 154.75 190.54 153.13 189.68 151.51 189.68 151.51 189.68 151.51 189.68 151.51 189.68 151.51 189.68 151.51 189.68 151.51 189.67 151.51 189.67 151.51 189.67 151.51 189.67 151.50 189.67 151.50 189.67 151.50 189.67 151.50 189.67 151.50 189.67 151.50 189.67 151.50 189.67 151.50 189.67 151.50 189.67 151.49 189.67 151.49 189.67 151.49 189.67 151.49 189.68 151.49 189.68 151.49 189.68 151.49 189.68 151.49 189.68 151.49 189.68 151.50 189.68 151.50 189.68 151.51 189.68 151.51 189.68 151.51 189.68 151.51 189.68 151.51 189.68 151.51 189.68 151.51 189.67 151.51 189.67 151.51 189.67 151.51 189.67 151.50 189.67 151.50 189.67 151.50 189.67 151.50 189.67 151.50 189.67 151.50 189.67 151.50 189.67 151.50 189.67 151.50 189.67 151.49 189.67 151.49 189.67 151.49 189.67 151.49 189.68 151.49 189.68 151.49 189.68 151.49 189.68 151.49 189.76 150.80 189.84 150.12 189.07 150.64 188.29 151.15 188.31 150.40 188.33 149.65 189.01 150.32 189.69 151.00 189.68 150.11 189.67 149.23 189.32 148.27 188.96 147.30 189.00 147.02 189.03 146.73 189.14 146.45 189.24 146.18 189.40 145.94 189.57 145.70 189.79 145.51 190.01 145.32 190.26 145.18 190.52 145.04 190.80 144.97 191.09 144.91 191.38 144.91 191.67 144.91 191.95 144.97 192.24 145.04 192.49 145.18 192.75 145.32 192.97 145.51 193.19 145.70 193.35 145.94 193.52 146.18 193.62 146.45 193.73 146.73 193.76 147.02 193.80 147.30 193.80 147.93 193.80 148.56 192.59 149.22 191.39 149.88 191.38 149.88 Z" data-drauu_index="23"></path><path fill="#ff595e" d="M 187.92 199.32 Q 187.92 199.32 187.97 198.30 188.01 197.28 189.46 197.34 190.92 197.40 191.09 198.85 191.27 200.29 190.72 200.87 190.17 201.45 189.36 201.79 188.55 202.13 186.93 201.94 185.31 201.75 184.47 201.11 183.63 200.47 183.19 199.35 182.76 198.23 183.01 197.38 183.27 196.53 184.14 195.90 185.01 195.26 185.79 195.10 186.58 194.95 187.51 195.02 188.43 195.09 189.12 195.47 189.82 195.85 190.19 196.64 190.56 197.44 190.57 198.33 190.58 199.22 189.97 200.24 189.37 201.27 188.62 201.67 187.88 202.08 186.64 202.04 185.39 202.01 184.42 201.46 183.45 200.91 182.92 199.93 182.40 198.94 182.68 197.67 182.96 196.39 183.62 195.82 184.28 195.25 185.25 194.92 186.21 194.60 187.59 194.74 188.97 194.89 189.85 196.06 190.73 197.23 190.69 198.13 190.65 199.04 189.85 200.38 189.05 201.73 188.16 202.10 187.27 202.48 186.05 202.62 184.83 202.76 184.01 202.55 183.18 202.34 182.46 201.79 181.73 201.25 181.16 200.15 180.60 199.06 180.80 197.92 181.00 196.79 181.49 196.08 181.98 195.37 183.22 194.66 184.45 193.94 185.88 194.12 187.30 194.29 187.92 194.94 188.55 195.58 186.39 197.37 184.24 199.17 184.24 199.17 184.24 199.17 184.24 199.17 184.24 199.17 184.24 199.17 184.24 199.17 184.24 199.18 184.24 199.18 184.23 199.18 184.23 199.18 184.23 199.18 184.23 199.18 184.23 199.18 184.23 199.18 184.23 199.18 184.23 199.18 184.23 199.18 184.22 199.18 184.22 199.18 184.22 199.18 184.22 199.18 184.22 199.18 184.22 199.18 184.22 199.17 184.22 199.17 184.22 199.17 184.22 199.17 184.23 199.17 184.23 199.17 184.24 199.17 184.24 199.17 184.24 199.17 184.24 199.17 184.24 199.17 184.24 199.17 184.24 199.17 184.24 199.18 184.24 199.18 184.23 199.18 184.23 199.18 184.23 199.18 184.23 199.18 184.23 199.18 184.23 199.18 184.23 199.18 184.23 199.18 184.23 199.18 184.22 199.18 184.22 199.18 184.22 199.18 184.22 199.18 184.22 199.18 184.22 199.18 184.22 199.17 184.22 199.17 184.22 199.17 184.69 198.85 185.15 198.53 185.85 198.19 186.54 197.85 186.51 198.67 186.47 199.50 186.69 198.51 186.90 197.53 187.65 197.77 188.39 198.00 188.16 198.94 187.92 199.88 188.77 200.19 189.61 200.51 188.77 199.93 187.93 199.34 187.93 199.33 Z" data-drauu_index="24"></path><path fill="#ff595e" d="M 182.56 196.28 Q 182.56 196.28 181.81 197.19 181.05 198.10 179.85 198.06 178.66 198.02 177.72 197.98 176.78 197.93 175.78 198.09 174.77 198.24 173.58 198.28 172.38 198.31 171.56 198.33 170.75 198.34 169.96 198.35 169.17 198.37 168.39 198.37 167.61 198.38 166.28 198.49 164.94 198.60 163.85 198.75 162.76 198.90 161.76 199.08 160.76 199.25 159.65 199.34 158.54 199.43 157.65 199.57 156.77 199.71 155.21 199.90 153.66 200.08 152.64 200.26 151.63 200.45 150.38 200.56 149.13 200.67 147.84 200.72 146.55 200.77 145.81 200.62 145.08 200.46 144.31 200.46 143.53 200.46 144.00 199.77 144.46 199.08 144.46 199.08 144.46 199.08 144.46 199.08 144.46 199.08 144.46 199.08 144.46 199.08 144.46 199.08 144.46 199.08 144.46 199.08 144.45 199.08 144.45 199.08 144.45 199.08 144.45 199.08 144.45 199.08 144.45 199.08 144.45 199.08 144.45 199.08 144.45 199.08 144.45 199.07 144.45 199.07 144.45 199.07 144.45 199.07 144.45 199.07 144.45 199.07 144.45 199.07 144.45 199.07 144.45 199.07 144.46 199.07 144.46 199.07 144.46 199.08 144.46 199.08 144.46 199.08 144.46 199.08 144.46 199.08 144.46 199.08 144.46 199.08 144.46 199.08 144.46 199.08 144.46 199.08 144.45 199.08 144.45 199.08 144.45 199.08 144.45 199.08 144.45 199.08 144.45 199.08 144.45 199.08 144.45 199.08 144.45 199.08 144.45 199.07 144.45 199.07 144.45 199.07 144.45 199.07 144.45 199.07 144.45 199.07 144.45 199.07 144.45 199.07 142.36 197.85 140.28 196.64 140.92 196.20 141.56 195.75 142.42 195.45 143.27 195.15 144.07 195.18 144.86 195.20 145.68 195.38 146.50 195.55 147.64 195.51 148.78 195.47 149.77 195.42 150.77 195.38 151.93 195.20 153.08 195.01 154.56 194.86 156.04 194.70 157.10 194.56 158.16 194.41 159.04 194.35 159.92 194.29 161.00 194.11 162.09 193.93 163.32 193.77 164.55 193.61 166.08 193.49 167.60 193.38 168.37 193.39 169.15 193.39 169.92 193.40 170.70 193.40 171.50 193.40 172.30 193.40 173.81 193.37 175.32 193.35 176.14 193.24 176.96 193.14 178.21 193.25 179.47 193.37 180.67 193.68 181.87 193.99 182.22 195.12 182.56 196.26 182.56 196.27 Z" data-drauu_index="25"></path><path fill="#ff595e" d="M 191.77 195.11 Q 191.77 195.11 192.64 194.68 193.51 194.25 194.61 194.54 195.71 194.83 196.46 194.91 197.22 194.98 198.13 195.00 199.05 195.02 200.98 195.02 202.91 195.01 203.89 195.01 204.88 195.01 205.85 195.01 206.81 195.01 207.67 195.01 208.52 195.01 209.32 195.01 210.13 195.01 211.24 195.00 212.35 195.00 213.15 194.99 213.96 194.99 215.36 194.99 216.76 194.99 218.11 194.99 219.46 194.99 221.35 194.83 223.25 194.68 224.11 194.66 224.96 194.64 225.78 194.63 226.59 194.62 227.60 194.62 228.61 194.61 229.37 194.61 230.12 194.61 231.41 194.75 232.69 194.89 234.34 195.93 236.00 196.97 236.00 196.97 236.00 196.97 236.00 196.97 236.00 196.97 236.00 196.97 236.00 196.97 236.00 196.97 236.01 196.97 236.01 196.97 236.01 196.97 236.01 196.97 236.01 196.98 236.01 196.98 236.01 196.98 236.01 196.98 236.01 196.98 236.01 196.98 236.00 196.98 236.00 196.98 236.00 196.98 236.00 196.98 236.00 196.98 236.00 196.99 236.00 196.99 236.00 196.99 236.00 196.99 236.00 196.98 236.00 196.98 236.00 196.97 236.00 196.97 236.00 196.97 236.00 196.97 236.00 196.97 236.00 196.97 236.00 196.97 236.00 196.97 236.00 196.97 236.01 196.97 236.01 196.97 236.01 196.97 236.01 196.97 236.01 196.98 236.01 196.98 236.01 196.98 236.01 196.98 236.01 196.98 236.01 196.98 236.00 196.98 236.00 196.98 236.00 196.98 236.00 196.98 236.00 196.98 236.00 196.99 236.00 196.99 236.00 196.99 236.00 196.99 234.17 198.36 232.35 199.74 231.24 199.60 230.13 199.46 229.38 199.46 228.63 199.46 227.63 199.47 226.64 199.47 225.86 199.48 225.08 199.49 224.26 199.51 223.44 199.53 222.37 199.56 221.30 199.60 220.38 199.72 219.46 199.84 218.11 199.84 216.76 199.84 215.36 199.84 213.96 199.84 213.15 199.84 212.35 199.84 211.24 199.83 210.12 199.83 209.32 199.83 208.52 199.82 207.67 199.82 206.81 199.82 205.84 199.82 204.87 199.82 203.89 199.82 202.90 199.82 201.62 199.81 200.34 199.80 199.07 199.77 197.80 199.75 196.60 199.62 195.41 199.49 194.48 199.15 193.56 198.81 192.66 198.48 191.77 198.15 191.33 197.51 190.89 196.87 191.32 196.00 191.76 195.12 191.76 195.12 Z" data-drauu_index="26"></path><path fill="#ff595e" d="M 187.17 166.37 Q 187.17 166.37 187.96 167.25 188.74 168.13 188.81 169.42 188.88 170.71 188.99 171.77 189.09 172.84 189.03 173.86 188.96 174.88 188.95 175.74 188.95 176.60 188.83 177.54 188.71 178.49 188.67 179.30 188.63 180.11 188.49 181.13 188.35 182.15 188.31 183.33 188.26 184.50 188.24 185.47 188.22 186.43 188.30 187.63 188.38 188.82 188.61 189.94 188.83 191.05 189.04 192.34 189.24 193.63 189.28 194.61 189.32 195.60 189.19 196.35 189.06 197.10 188.84 197.38 188.62 197.65 188.54 197.87 188.47 198.08 188.35 198.26 188.23 198.45 188.07 198.61 187.91 198.76 187.72 198.87 187.53 198.98 187.31 199.04 187.10 199.10 186.88 199.11 186.65 199.12 186.44 199.08 186.22 199.03 186.02 198.93 185.82 198.84 185.64 198.70 185.47 198.56 185.34 198.38 185.21 198.20 185.12 197.99 185.03 197.79 185.00 197.57 184.96 197.35 184.98 197.13 185.00 196.91 185.99 195.19 186.99 193.47 187.00 193.47 187.00 193.47 187.00 193.47 187.01 193.47 187.81 195.56 188.62 197.65 188.54 197.87 188.47 198.08 188.35 198.26 188.23 198.45 188.07 198.61 187.91 198.76 187.72 198.87 187.53 198.98 187.31 199.04 187.10 199.10 186.88 199.11 186.65 199.12 186.44 199.08 186.22 199.03 186.02 198.93 185.82 198.84 185.64 198.70 185.47 198.56 185.34 198.38 185.21 198.20 185.12 197.99 185.03 197.79 185.00 197.57 184.96 197.35 184.98 197.13 185.00 196.91 184.99 196.29 184.97 195.68 184.94 194.87 184.91 194.05 184.72 192.85 184.53 191.64 184.31 190.58 184.10 189.52 183.98 188.69 183.86 187.85 183.87 187.09 183.88 186.32 183.91 185.32 183.93 184.31 184.00 182.93 184.07 181.54 184.20 180.69 184.33 179.84 184.54 178.11 184.75 176.38 184.84 175.38 184.93 174.38 185.08 173.61 185.23 172.84 185.34 171.77 185.45 170.71 185.52 169.42 185.58 168.13 186.37 167.25 187.15 166.37 187.16 166.37 Z" data-drauu_index="27"></path><path fill="#ff595e" d="M 184.87 164.46 Q 184.87 164.46 185.27 165.44 185.67 166.43 185.29 167.51 184.91 168.59 184.42 169.68 183.93 170.77 183.51 171.49 183.09 172.21 182.66 172.94 182.22 173.67 181.93 174.18 181.64 174.70 181.47 174.88 181.31 175.06 181.10 175.20 180.90 175.34 180.67 175.42 180.44 175.51 180.19 175.53 179.95 175.56 179.70 175.53 179.46 175.50 179.23 175.41 179.00 175.32 178.80 175.17 178.60 175.03 178.44 174.85 178.28 174.66 178.17 174.44 178.05 174.22 178.00 173.98 177.94 173.74 177.95 173.50 177.95 173.25 178.01 173.01 178.07 172.78 178.19 172.56 178.30 172.34 178.86 171.45 179.42 170.56 179.73 169.86 180.04 169.16 180.51 167.95 180.98 166.75 181.43 165.66 181.87 164.56 182.30 163.61 182.73 162.65 183.20 161.94 183.67 161.22 185.18 160.63 186.69 160.05 187.61 160.78 188.53 161.51 189.13 162.50 189.73 163.49 190.52 164.62 191.32 165.76 191.88 166.47 192.44 167.19 193.15 168.18 193.85 169.17 193.55 171.66 193.25 174.14 193.24 174.14 193.24 174.14 193.23 174.14 193.23 174.14 191.67 173.17 190.11 172.19 189.34 171.19 188.57 170.19 187.95 169.39 187.34 168.58 186.60 167.56 185.87 166.53 185.50 165.80 185.12 165.08 184.88 164.35 184.64 163.63 185.53 164.02 186.42 164.41 186.05 165.20 185.69 166.00 185.23 167.13 184.77 168.25 184.47 169.02 184.17 169.78 183.73 170.79 183.28 171.79 182.92 172.47 182.56 173.15 182.10 173.92 181.64 174.70 181.47 174.88 181.31 175.06 181.10 175.20 180.90 175.34 180.67 175.42 180.44 175.51 180.19 175.53 179.95 175.56 179.70 175.53 179.46 175.50 179.23 175.41 179.00 175.32 178.80 175.18 178.60 175.03 178.44 174.85 178.28 174.66 178.17 174.44 178.06 174.22 178.00 173.98 177.94 173.74 177.95 173.50 177.95 173.25 178.01 173.01 178.07 172.78 178.19 172.56 178.30 172.34 178.72 171.67 179.13 171.00 179.60 170.18 180.06 169.37 180.49 168.70 180.91 168.03 181.45 167.15 182.00 166.27 182.37 165.47 182.73 164.68 183.79 164.56 184.85 164.44 184.86 164.45 Z" data-drauu_index="28"></path><path fill="#ff595e" d="M 155.72 150.43 Q 155.72 150.43 155.72 150.43 155.73 150.43 155.73 150.43 155.74 150.43 155.73 150.43 Z" data-drauu_index="29"></path><path fill="#ff595e" d="M 149.97 150.27 Q 149.97 150.27 149.25 149.94 148.52 149.61 148.79 148.48 149.05 147.36 149.85 147.02 150.65 146.68 151.51 147.17 152.36 147.66 152.64 148.42 152.91 149.18 152.69 150.04 152.46 150.89 151.32 151.73 150.18 152.57 149.40 152.42 148.62 152.27 148.03 151.51 147.44 150.75 148.63 150.28 149.82 149.81 149.82 149.80 149.82 149.80 149.82 149.79 149.82 149.79 149.74 149.43 149.67 149.07 150.55 149.34 151.44 149.61 150.71 149.94 149.99 150.27 149.98 150.27 Z" data-drauu_index="30"></path><path fill="#ff595e" d="M 233.92 149.50 Q 233.92 149.50 233.11 149.20 232.31 148.90 232.51 147.94 232.71 146.97 233.12 146.49 233.53 146.01 233.73 145.95 233.93 145.89 234.14 145.88 234.35 145.87 234.56 145.91 234.77 145.95 234.96 146.03 235.15 146.12 235.32 146.25 235.48 146.39 235.61 146.55 235.74 146.72 235.83 146.91 235.91 147.11 235.95 147.32 235.99 147.52 235.97 147.73 235.96 147.95 235.89 148.15 235.83 148.35 235.72 148.53 235.61 148.71 235.46 148.86 235.31 149.01 235.13 149.11 234.94 149.22 234.08 149.87 233.22 150.52 231.96 150.26 230.70 150.00 229.95 149.50 229.20 149.00 228.73 148.29 228.26 147.59 228.64 146.24 229.02 144.90 229.72 144.56 230.42 144.22 231.39 144.16 232.35 144.11 232.59 144.13 232.82 144.15 233.04 144.22 233.26 144.30 233.46 144.43 233.66 144.55 233.82 144.72 233.98 144.89 234.10 145.10 234.22 145.30 234.28 145.53 234.34 145.76 234.35 145.99 234.36 146.23 234.31 146.46 234.26 146.69 234.16 146.90 234.06 147.11 233.91 147.29 233.76 147.47 233.57 147.61 233.38 147.75 233.17 147.84 232.95 147.93 232.72 147.97 232.49 148.01 233.39 147.38 234.30 146.75 232.72 148.14 231.14 149.52 231.14 149.52 231.14 149.52 231.13 149.51 231.13 149.51 230.82 148.09 230.51 146.68 231.43 145.39 232.35 144.11 232.59 144.13 232.82 144.15 233.04 144.22 233.26 144.30 233.46 144.43 233.66 144.55 233.82 144.72 233.98 144.89 234.10 145.10 234.22 145.30 234.28 145.53 234.34 145.76 234.35 145.99 234.36 146.23 234.31 146.46 234.26 146.69 234.16 146.90 234.06 147.11 233.91 147.29 233.76 147.47 233.57 147.61 233.38 147.75 233.17 147.84 232.95 147.93 232.72 147.97 232.49 148.01 232.05 147.81 231.62 147.62 231.62 146.79 231.61 145.97 231.96 146.65 232.32 147.34 232.92 146.68 233.53 146.01 233.73 145.95 233.93 145.89 234.14 145.88 234.35 145.87 234.56 145.91 234.77 145.95 234.96 146.03 235.15 146.12 235.32 146.25 235.48 146.39 235.61 146.55 235.74 146.72 235.83 146.91 235.91 147.11 235.95 147.32 235.99 147.52 235.97 147.73 235.96 147.95 235.89 148.15 235.83 148.35 235.72 148.53 235.61 148.71 235.46 148.86 235.31 149.01 235.13 149.11 234.94 149.22 235.03 148.78 235.11 148.33 234.52 148.92 233.94 149.50 233.93 149.50 Z" data-drauu_index="31"></path><path fill="#ff595e" d="M 148.82 147.96 Q 148.82 147.96 148.56 146.60 148.30 145.23 148.89 144.62 149.48 144.01 150.49 143.13 151.49 142.25 152.11 141.80 152.74 141.34 153.73 140.56 154.72 139.77 155.50 139.32 156.27 138.86 156.99 138.60 157.72 138.33 158.31 138.26 158.89 138.18 159.16 138.16 159.42 138.14 159.69 138.18 159.95 138.22 160.20 138.32 160.44 138.42 160.66 138.58 160.87 138.73 161.04 138.94 161.21 139.14 161.33 139.38 161.45 139.62 161.50 139.88 161.56 140.14 161.55 140.41 161.54 140.68 161.47 140.93 161.40 141.19 161.27 141.42 161.14 141.65 160.96 141.85 160.77 142.04 160.55 142.19 160.33 142.33 160.08 142.42 159.82 142.50 158.80 142.69 157.77 142.87 155.47 143.74 153.17 144.61 153.17 144.61 153.17 144.60 153.16 144.60 153.16 144.60 154.19 143.05 155.21 141.51 155.71 140.86 156.22 140.21 156.77 139.68 157.32 139.15 158.11 138.67 158.89 138.18 159.16 138.16 159.42 138.14 159.69 138.18 159.95 138.22 160.20 138.32 160.44 138.42 160.66 138.58 160.87 138.73 161.04 138.94 161.21 139.14 161.33 139.38 161.45 139.62 161.50 139.88 161.56 140.14 161.55 140.41 161.54 140.67 161.47 140.93 161.40 141.19 161.27 141.42 161.14 141.65 160.96 141.85 160.77 142.04 160.55 142.18 160.33 142.33 160.08 142.42 159.82 142.50 159.20 142.69 158.58 142.88 157.57 143.53 156.55 144.19 155.48 145.03 154.42 145.87 153.60 146.59 152.78 147.31 152.17 147.90 151.56 148.50 150.20 148.23 148.84 147.97 148.83 147.97 Z" data-drauu_index="32"></path><path fill="#ff595e" d="M 149.21 149.49 Q 149.21 149.49 149.65 148.40 150.09 147.32 151.60 147.58 153.10 147.85 153.81 148.28 154.51 148.72 155.07 149.27 155.63 149.82 156.60 151.05 157.57 152.28 158.37 153.34 159.17 154.39 159.62 155.05 160.07 155.71 158.88 155.30 157.69 154.89 157.69 154.89 157.69 154.89 157.69 154.89 157.70 154.89 157.70 154.89 157.70 154.90 157.70 154.90 157.70 154.90 157.70 154.90 157.70 154.90 157.69 154.90 157.69 154.90 157.69 154.90 157.69 154.90 157.69 154.90 157.69 154.91 157.69 154.91 157.69 154.91 157.69 154.91 157.69 154.91 157.68 154.91 157.68 154.91 157.68 154.91 157.68 154.91 157.68 154.90 157.68 154.90 157.68 154.90 157.69 154.90 157.69 154.89 157.69 154.89 157.69 154.89 157.69 154.89 157.69 154.89 157.70 154.89 157.70 154.89 157.70 154.90 157.70 154.90 157.70 154.90 157.70 154.90 157.70 154.90 157.69 154.90 157.69 154.90 157.69 154.90 157.69 154.90 157.69 154.90 157.69 154.91 157.69 154.91 157.69 154.91 157.69 154.91 157.69 154.91 157.68 154.91 157.68 154.91 157.68 154.91 157.68 154.91 157.68 154.90 157.68 154.90 157.24 156.87 156.79 158.84 156.22 158.31 155.64 157.77 155.19 157.04 154.74 156.32 154.22 155.69 153.70 155.06 152.90 153.91 152.09 152.77 151.09 152.22 150.09 151.68 149.65 150.60 149.21 149.51 149.21 149.50 Z" data-drauu_index="33"></path><path fill="#ff595e" d="M 151.51 145.27 Q 151.51 145.27 152.43 144.38 153.34 143.48 154.25 143.49 155.15 143.49 156.12 143.40 157.09 143.30 158.03 143.24 158.98 143.18 160.19 142.95 161.41 142.72 162.50 142.60 163.59 142.48 164.38 142.33 165.17 142.18 167.25 142.97 169.34 143.76 169.34 143.76 169.34 143.76 169.34 143.76 169.34 143.76 169.34 143.76 169.34 143.76 169.34 143.76 169.34 143.76 169.34 143.76 169.35 143.76 169.35 143.76 169.35 143.76 169.35 143.77 169.35 143.77 169.35 143.77 169.35 143.77 169.35 143.77 169.35 143.77 169.35 143.77 169.35 143.77 169.34 143.77 169.34 143.78 169.34 143.78 169.34 143.78 169.34 143.78 169.34 143.78 169.34 143.77 169.34 143.77 169.34 143.76 169.34 143.76 169.34 143.76 169.34 143.76 169.34 143.76 169.34 143.76 169.34 143.76 169.34 143.76 169.34 143.76 169.34 143.76 169.34 143.76 169.35 143.76 169.35 143.76 169.35 143.76 169.35 143.77 169.35 143.77 169.35 143.77 169.35 143.77 169.35 143.77 169.35 143.77 169.35 143.77 169.35 143.77 169.34 143.77 169.34 143.78 169.34 143.78 169.34 143.78 169.34 143.78 169.34 143.78 168.42 144.97 167.50 146.16 166.72 146.35 165.94 146.54 164.99 146.70 164.04 146.85 163.10 146.94 162.17 147.02 159.97 147.30 157.77 147.58 156.37 147.68 154.96 147.78 153.87 147.66 152.77 147.53 152.14 146.41 151.51 145.29 151.51 145.28 Z" data-drauu_index="34"></path><path fill="#ff595e" d="M 209.78 143.36 Q 209.78 143.36 210.11 142.35 210.44 141.33 211.71 141.10 212.98 140.87 214.26 140.63 215.54 140.40 216.54 140.26 217.54 140.13 218.37 140.06 219.20 140.00 220.45 139.81 221.69 139.62 223.48 140.35 225.26 141.09 225.26 141.09 225.27 141.10 225.27 141.10 225.27 141.11 224.13 142.60 222.98 144.09 222.07 144.20 221.16 144.30 219.66 144.51 218.16 144.72 216.65 144.89 215.15 145.07 214.42 145.25 213.68 145.42 212.06 145.41 210.44 145.40 210.11 144.39 209.78 143.38 209.78 143.37 Z" data-drauu_index="35"></path><path fill="#ff595e" d="M 226.26 141.07 Q 226.26 141.07 225.46 141.52 224.66 141.96 223.96 141.67 223.25 141.39 222.45 140.72 221.65 140.05 221.01 139.61 220.38 139.17 219.55 138.70 218.72 138.23 218.14 137.73 217.56 137.23 217.46 136.99 217.36 136.76 217.32 136.50 217.28 136.25 217.30 135.99 217.32 135.74 217.40 135.49 217.48 135.25 217.62 135.03 217.75 134.82 217.94 134.64 218.12 134.46 218.35 134.33 218.57 134.20 218.81 134.13 219.06 134.06 219.32 134.05 219.57 134.04 219.83 134.09 220.08 134.14 220.31 134.25 220.54 134.36 220.74 134.52 220.94 134.68 221.10 134.89 221.25 135.09 222.30 135.41 223.35 135.72 224.43 136.28 225.52 136.83 226.28 137.16 227.05 137.49 227.74 137.83 228.43 138.16 229.02 138.73 229.60 139.31 229.91 140.00 230.23 140.68 229.63 141.92 229.04 143.15 228.39 143.93 227.74 144.72 226.73 145.54 225.72 146.37 223.60 146.66 221.48 146.96 221.47 146.95 221.47 146.95 221.47 146.94 221.47 146.94 222.27 145.22 223.08 143.50 223.70 142.81 224.33 142.13 225.19 141.45 226.06 140.77 226.55 141.45 227.04 142.13 226.24 141.75 225.44 141.38 223.96 140.76 222.47 140.14 221.55 139.66 220.64 139.18 219.90 138.86 219.16 138.55 218.36 137.89 217.56 137.23 217.46 136.99 217.36 136.76 217.32 136.50 217.28 136.25 217.30 135.99 217.32 135.74 217.40 135.49 217.48 135.25 217.62 135.03 217.75 134.82 217.94 134.64 218.12 134.46 218.35 134.33 218.57 134.20 218.81 134.13 219.06 134.06 219.32 134.05 219.57 134.04 219.83 134.09 220.08 134.14 220.31 134.25 220.54 134.36 220.74 134.52 220.94 134.68 221.09 134.89 221.25 135.09 221.44 135.07 221.64 135.05 222.53 135.71 223.43 136.37 224.38 137.31 225.34 138.25 225.94 138.77 226.54 139.30 226.40 140.18 226.27 141.06 226.26 141.07 Z" data-drauu_index="36"></path><path fill="#ff595e" d="M 189.46 149.88 Q 189.46 149.88 189.33 148.97 189.21 148.06 189.94 147.86 190.66 147.67 191.79 148.24 192.92 148.82 192.95 148.87 192.99 148.92 193.07 149.13 193.15 149.34 193.18 149.56 193.21 149.79 193.18 150.01 193.16 150.24 193.08 150.45 193.00 150.66 192.88 150.85 192.75 151.03 192.58 151.18 192.42 151.33 192.22 151.44 192.02 151.55 191.80 151.60 191.58 151.66 191.36 151.66 191.13 151.66 190.91 151.61 190.69 151.56 190.49 151.46 190.29 151.36 190.12 151.21 189.95 151.06 189.82 150.88 189.69 150.69 190.62 151.19 191.55 151.68 190.31 151.96 189.08 152.24 187.81 152.08 186.54 151.91 185.69 150.97 184.85 150.03 184.95 149.24 185.06 148.45 185.83 147.67 186.59 146.88 187.87 146.72 189.15 146.55 189.89 147.04 190.64 147.52 190.86 148.26 191.08 148.99 189.56 148.81 188.04 148.62 188.04 148.62 188.04 148.62 188.04 148.62 188.04 148.62 188.04 148.63 188.04 148.63 188.04 148.63 188.04 148.63 188.04 148.63 188.04 148.63 188.04 148.63 188.03 148.63 188.03 148.63 188.03 148.63 188.03 148.63 188.03 148.63 188.03 148.63 188.03 148.63 188.03 148.63 188.03 148.63 188.03 148.63 188.02 148.63 188.02 148.62 188.02 148.62 188.02 148.62 188.02 148.62 188.03 148.62 188.03 148.62 188.04 148.62 188.04 148.62 188.04 148.62 188.04 148.62 188.04 148.62 188.04 148.62 188.04 148.63 188.04 148.63 188.04 148.63 188.04 148.63 188.04 148.63 188.04 148.63 188.04 148.63 188.03 148.63 188.03 148.63 188.03 148.63 188.03 148.63 188.03 148.63 188.03 148.63 188.03 148.63 188.03 148.63 188.03 148.63 188.03 148.63 188.02 148.63 188.02 148.62 188.02 148.62 188.02 148.62 188.02 148.62 187.74 149.33 187.47 150.04 188.22 149.93 188.98 149.82 188.94 149.03 188.90 148.23 189.81 148.13 190.73 148.02 191.86 148.47 192.98 148.92 193.07 149.13 193.15 149.34 193.18 149.56 193.21 149.79 193.18 150.01 193.16 150.24 193.08 150.45 193.00 150.66 192.88 150.85 192.75 151.03 192.58 151.18 192.42 151.33 192.22 151.44 192.02 151.55 191.80 151.60 191.58 151.66 191.36 151.66 191.13 151.67 190.91 151.61 190.69 151.56 190.49 151.46 190.29 151.36 190.12 151.21 189.95 151.06 189.82 150.88 189.69 150.69 190.36 150.76 191.04 150.83 190.25 150.36 189.47 149.89 189.46 149.88 Z" data-drauu_index="37"></path><path fill="#ff595e" d="M 190.24 150.27 Q 190.24 150.27 190.55 151.02 190.85 151.77 189.72 152.03 188.58 152.29 187.85 151.50 187.11 150.71 187.80 149.09 188.50 147.46 189.77 147.69 191.05 147.92 191.53 148.51 192.01 149.10 191.48 150.36 190.95 151.62 189.74 151.81 188.53 152.01 187.91 150.07 187.29 148.14 187.29 148.14 187.30 148.14 187.30 148.14 187.31 148.14 188.40 148.36 189.50 148.57 189.20 149.75 188.91 150.92 189.68 150.23 190.46 149.54 189.59 149.59 188.72 149.64 189.47 149.95 190.22 150.26 190.23 150.27 Z" data-drauu_index="38"></path><path fill="#ff595e" d="M 189.07 147.97 Q 189.07 147.97 188.23 147.71 187.40 147.45 187.38 146.64 187.37 145.82 188.21 144.95 189.06 144.09 189.90 144.24 190.74 144.40 191.35 145.10 191.97 145.80 191.78 147.08 191.59 148.36 190.09 147.85 188.58 147.34 188.58 147.34 188.58 147.34 188.58 147.34 188.58 147.34 188.58 147.34 188.58 147.34 188.58 147.34 188.58 147.34 188.57 147.34 188.57 147.34 188.57 147.34 188.57 147.34 188.57 147.34 188.57 147.34 188.57 147.34 188.57 147.34 188.57 147.33 188.57 147.33 188.57 147.33 188.57 147.33 188.57 147.33 188.57 147.33 188.57 147.33 188.57 147.33 188.57 147.33 188.57 147.32 188.58 147.33 188.58 147.33 188.58 147.34 188.58 147.34 188.58 147.34 188.58 147.34 188.58 147.34 188.58 147.34 188.58 147.34 188.58 147.34 188.58 147.34 188.58 147.34 188.57 147.34 188.57 147.34 188.57 147.34 188.57 147.34 188.57 147.34 188.57 147.34 188.57 147.34 188.57 147.34 188.57 147.33 188.57 147.33 188.57 147.33 188.57 147.33 188.57 147.33 188.57 147.33 188.57 147.33 188.57 147.33 188.57 147.33 188.57 147.32 188.61 147.07 188.64 146.82 189.48 146.77 190.32 146.72 189.70 147.34 189.09 147.96 189.08 147.97 Z" data-drauu_index="39"></path><path fill="#ff595e" d="M 485.59 286.53 Q 485.59 286.53 485.59 286.54 485.59 286.54 485.58 286.55 485.58 286.55 485.59 286.54 Z" data-drauu_index="40"></path>
</svg>